<svg width="20" height="14" viewBox="0 0 20 14" fill="none" xmlns="http://www.w3.org/2000/svg">
<path d="M16.6667 2.93023H8V7.83915H7.07692V6.17054C7.07585 5.22514 6.69088 4.31876 6.00647 3.65026C5.32207 2.98175 4.39412 2.60572 3.42621 2.60465H1.33333V0H0V14H1.33333V12.057L18.6667 12.1924V14H20V6.18605C19.999 5.32285 19.6475 4.49529 19.0226 3.88492C18.3977 3.27455 17.5504 2.93121 16.6667 2.93023ZM1.33333 3.90698H3.42621C4.0406 3.90766 4.62963 4.14635 5.06407 4.57068C5.49851 4.99502 5.74289 5.57035 5.74358 6.17046V7.83906H1.33333V3.90698ZM18.6667 10.89L1.33333 10.7546V9.14147H18.6667V10.89ZM18.6667 7.83915H9.33333V4.23256H16.6667C17.1969 4.23315 17.7053 4.43915 18.0802 4.80538C18.4552 5.1716 18.6661 5.66813 18.6667 6.18605V7.83915Z" fill="#464646"/>
</svg>
