<svg width="24" height="25" viewBox="0 0 24 25" fill="none" xmlns="http://www.w3.org/2000/svg">
<path d="M14.956 3.30561C14.8489 3.36274 14.7739 3.43772 14.7168 3.54483L14.6346 3.69835V7.97927V12.2566H10.0395H5.44086L5.29804 12.3387C5.21949 12.3816 5.11952 12.4815 5.0731 12.5601C4.99456 12.6922 4.99099 12.7315 5.00884 13.1171C5.0731 14.5774 5.78719 16.0341 6.90115 16.9695L7.16179 17.1909L6.39772 18.9761C5.83717 20.2936 5.63723 20.797 5.63723 20.9006C5.63723 21.4326 6.25134 21.6968 6.62266 21.329C6.68693 21.2647 6.81903 21.0077 6.96185 20.6756L7.19749 20.1294L10.4109 20.1186L13.6242 20.1115L13.8456 20.6221C14.1276 21.2755 14.1741 21.3504 14.3597 21.4326C14.5561 21.5254 14.6918 21.5218 14.8846 21.4254C15.0738 21.329 15.2059 21.1255 15.2059 20.922C15.2059 20.822 15.006 20.3186 14.4883 19.1011C14.0919 18.1728 13.7456 17.3659 13.7206 17.3052C13.6742 17.1945 13.6742 17.1945 13.9313 16.9731C14.2955 16.6589 14.6775 16.2233 14.9453 15.8163C15.3951 15.1344 15.6308 14.506 15.7915 13.5741C15.8129 13.4527 15.8272 13.442 15.9664 13.4206C16.2056 13.3849 16.6305 13.2313 16.9376 13.0742C17.9908 12.5387 18.8513 11.4854 19.2583 10.2393C19.8403 8.46127 19.5689 6.50826 18.5371 5.04797C18.4443 4.91943 18.2408 4.67665 18.0837 4.51241C17.4124 3.81618 16.6448 3.40558 15.7593 3.27348C15.2987 3.20207 15.1345 3.20921 14.956 3.30561ZM16.2985 4.65165C17.3017 5.10509 18.0301 6.14051 18.3015 7.4937C18.3943 7.96499 18.3836 8.83617 18.2836 9.31817C17.9908 10.6785 17.1661 11.7603 16.1235 12.1459C16.0093 12.1852 15.895 12.2209 15.8664 12.2209C15.82 12.2209 15.8129 11.7246 15.8129 8.3613V4.5017L15.945 4.52669C16.0164 4.54097 16.1771 4.59453 16.2985 4.65165ZM14.5989 13.5027C14.5989 13.774 14.299 14.6024 14.0491 15.0237C13.2993 16.284 11.8961 17.0767 10.4216 17.0767C8.80775 17.0767 7.33674 16.1591 6.60838 14.7023C6.46199 14.4096 6.28347 13.8669 6.25848 13.6312L6.23349 13.4348H10.418C14.4811 13.4348 14.5989 13.4384 14.5989 13.5027ZM12.8851 18.3727C13.0065 18.6619 13.1029 18.9083 13.0922 18.9154C13.0815 18.9261 11.8712 18.9297 10.3966 18.9261L7.71877 18.9154L7.94728 18.3799C8.07224 18.0871 8.18293 17.8407 8.19007 17.83C8.20078 17.8229 8.34717 17.8657 8.51854 17.9264C9.19692 18.1656 9.72534 18.2585 10.4216 18.2585C10.9393 18.2585 11.2713 18.2192 11.7248 18.1085C12.0104 18.0371 12.4531 17.8871 12.5602 17.8264C12.5924 17.8086 12.6281 17.805 12.6388 17.8193C12.6495 17.8336 12.7602 18.0835 12.8851 18.3727Z" fill="#464646"/>
<path d="M10.1893 6.37967C10.043 6.4475 9.893 6.61531 9.85016 6.7617C9.82873 6.83311 9.81445 7.72214 9.81445 9.00748C9.81445 10.9998 9.82159 11.1426 9.88229 11.2783C10.0894 11.7317 10.7071 11.7567 10.9498 11.3175C11.0034 11.214 11.0105 11.0176 11.0212 9.186C11.0284 8.07561 11.0212 7.06875 11.0105 6.94736C10.982 6.67244 10.8856 6.51891 10.6714 6.40823C10.4928 6.31897 10.3464 6.31183 10.1893 6.37967Z" fill="#464646"/>
<path d="M7.77595 8.2184C7.61171 8.27196 7.49746 8.36836 7.42248 8.52188C7.35464 8.6647 7.35107 8.73611 7.35107 9.91791C7.35107 11.0854 7.35464 11.1711 7.42248 11.3068C7.63314 11.7388 8.24725 11.7424 8.45433 11.3139C8.52574 11.1711 8.52931 11.1033 8.52931 9.91791C8.52931 8.73254 8.52574 8.6647 8.45433 8.52188C8.41505 8.43619 8.32936 8.33622 8.2651 8.29695C8.12942 8.21126 7.90806 8.17555 7.77595 8.2184Z" fill="#464646"/>
<path d="M12.6388 8.26489C12.321 8.42913 12.3317 8.36843 12.321 9.87514C12.3139 11.1176 12.3175 11.2105 12.3782 11.3283C12.4638 11.4854 12.6281 11.5996 12.8137 11.6318C12.9994 11.6639 13.235 11.5568 13.3707 11.3783L13.4743 11.2462V9.91799C13.4743 8.44698 13.4814 8.50768 13.2315 8.31488C13.053 8.1792 12.8352 8.16135 12.6388 8.26489Z" fill="#464646"/>
</svg>
