<svg width="120" height="121" viewBox="0 0 120 121" fill="none" xmlns="http://www.w3.org/2000/svg">
<g clip-path="url(#clip0_224_4495)">
<path d="M57.1277 0.734584C56.8086 1.24522 57.4681 1.37288 60.1277 1.30905C62.4043 1.24522 62.8724 1.18139 62.8724 0.926074C62.8724 0.670755 62.383 0.606925 60.0639 0.543095C58.1703 0.500542 57.2128 0.564372 57.1277 0.734584Z" fill="#3D5224"/>
<path d="M49.6809 1.24489C48.9788 1.4151 48.1703 1.54276 47.8724 1.56404C47.2128 1.56404 46.6171 2.35127 47.1277 2.54276C47.4043 2.64914 51.7022 2.11723 52.5107 1.86191C52.6809 1.81936 52.766 1.60659 52.7234 1.4151C52.6383 0.925738 51.4043 0.861908 49.6809 1.24489Z" fill="#3D5224"/>
<path d="M67.2979 1.26558C67.1064 1.77622 67.4042 1.90388 69.3617 2.18048C73.234 2.75495 73.0213 2.75495 72.9362 2.18048C72.8723 1.73367 72.6808 1.64856 70.851 1.32941C68.234 0.840051 67.4681 0.840051 67.2979 1.26558Z" fill="#3D5224"/>
<path d="M39.7448 3.86136C37.7235 4.54221 37.4469 4.69114 37.4469 5.11668C37.4469 5.77625 37.766 5.75497 40.532 4.77625C42.3831 4.11668 42.8724 3.86136 42.8724 3.56349C42.8724 2.94646 42.2341 3.01029 39.7448 3.86136Z" fill="#3D5224"/>
<path d="M77.1065 3.28772C77.0426 3.41538 77.0852 3.62815 77.2129 3.75581C77.4895 4.0324 81.1065 5.3941 81.9788 5.54304C82.532 5.64942 82.5746 5.60687 82.5107 5.16006C82.4682 4.73453 82.1065 4.54304 80.3192 3.86219C78.0852 3.0324 77.3618 2.90474 77.1065 3.28772Z" fill="#3D5224"/>
<path d="M30.6384 8.05425C29.532 8.69255 28.532 9.24574 28.4469 9.2883C28.1916 9.3734 28.5107 10.0755 28.8086 10.0755C28.9363 10.0968 30.0639 9.58617 31.3192 8.96915C33.1703 8.05425 33.5958 7.75638 33.5958 7.35213C33.6171 6.58617 32.8724 6.77766 30.6384 8.05425Z" fill="#3D5224"/>
<path d="M86.4043 7.35213C86.4043 7.75638 86.8298 8.05425 88.6809 8.96915C89.9362 9.58617 91.0851 10.0968 91.234 10.0755C91.3617 10.0755 91.4894 9.88404 91.4894 9.67127C91.4894 9.35213 90.9149 8.92659 89.4043 8.07553C87.1064 6.75638 86.383 6.58617 86.4043 7.35213Z" fill="#3D5224"/>
<path d="M22.6597 13.3949C21.8512 14.0545 20.9576 14.7566 20.681 14.9694C20.1703 15.3736 20.2342 16.0332 20.7661 16.0332C21.2767 16.0332 24.8937 13.0119 24.8937 12.5864C24.8937 11.9055 24.1916 12.1609 22.6597 13.3949Z" fill="#3D5224"/>
<path d="M95.1064 12.5864C95.1064 13.0332 98.7235 16.0332 99.2554 16.0332C100.064 16.0332 99.4894 15.1396 97.7873 13.7141C96.0213 12.2034 95.1064 11.8204 95.1064 12.5864Z" fill="#3D5224"/>
<path d="M14.9575 20.8194C14.0427 21.8194 13.298 22.7556 13.298 22.9046C13.298 23.0535 13.4895 23.1812 13.7448 23.2237C14.0852 23.2663 14.5746 22.8407 15.7235 21.479C16.5533 20.479 17.2341 19.5216 17.2341 19.3514C17.2341 18.6492 16.5533 19.0748 14.9575 20.8194Z" fill="#3D5224"/>
<path d="M102.766 19.4572C102.766 19.9466 105.872 23.4785 106.319 23.4785C106.957 23.4785 106.511 22.4998 105.085 20.7977C103.553 18.9892 102.766 18.5423 102.766 19.4572Z" fill="#3D5224"/>
<path d="M9.93624 27.3516C7.87241 30.0962 7.12773 31.7771 7.9788 31.7771C8.3405 31.7771 11.0639 27.6494 11.0639 27.0962C11.0639 26.458 10.5107 26.5856 9.93624 27.3516Z" fill="#3D5224"/>
<path d="M108.936 27.2026C108.936 27.692 111.702 31.7771 112.043 31.7771C112.575 31.7771 112.362 31.1388 111.149 28.9899C110.149 27.2452 109.872 26.8835 109.447 26.8835C109.149 26.8835 108.936 27.0111 108.936 27.2026Z" fill="#3D5224"/>
<path d="M5.12772 35.9676C4.55326 37.074 3.21283 40.5634 3.31921 40.7336C3.5107 41.074 4.25538 40.9463 4.40432 40.5421C4.46815 40.3506 4.85113 39.3719 5.25538 38.3719C6.27666 35.9038 6.31921 35.6059 5.7873 35.6059C5.53198 35.6059 5.25538 35.7761 5.12772 35.9676Z" fill="#3D5224"/>
<path d="M114.043 35.99C114.043 36.224 114.383 37.3091 114.787 38.373C115.192 39.4368 115.532 40.4581 115.532 40.607C115.532 40.8623 115.979 41.1389 116.404 41.1389C116.809 41.1389 116.532 39.9049 115.681 37.841C115.085 36.4581 114.66 35.6921 114.404 35.6496C114.17 35.607 114.043 35.7134 114.043 35.99Z" fill="#3D5224"/>
<path d="M1.9575 45.2461C1.55324 45.7355 0.659626 50.3738 0.936222 50.544C1.51069 50.9482 1.76601 50.5653 2.17026 48.6929C2.80856 45.6716 2.87239 44.9695 2.51069 44.9695C2.3192 44.9695 2.08516 45.0972 1.9575 45.2461Z" fill="#3D5224"/>
<path d="M117.319 45.479C117.255 45.6492 117.404 46.6704 117.638 47.7343C117.894 48.8194 118.085 49.9045 118.085 50.1811C118.085 50.6704 118.596 51.0321 118.958 50.7981C119.532 50.4577 118.489 45.3513 117.809 45.2236C117.617 45.1811 117.383 45.2875 117.319 45.479Z" fill="#3D5224"/>
<path d="M0.255351 55.2236C-0.0637976 55.5427 -0.106351 60.6278 0.212798 60.8193C0.340458 60.9044 0.595777 60.8406 0.76599 60.6916C1.02131 60.4789 1.06386 59.9257 1.02131 57.7767C0.957479 55.1597 0.808543 54.6704 0.255351 55.2236Z" fill="#3D5224"/>
<path d="M119.085 55.1167C119 55.1805 118.936 56.4784 118.936 57.9465C118.936 60.0741 119 60.7124 119.255 60.9252C119.426 61.0528 119.66 61.1167 119.787 61.0316C120.106 60.8401 120.064 55.5422 119.745 55.2231C119.447 54.9252 119.277 54.9039 119.085 55.1167Z" fill="#3D5224"/>
<path d="M0.297946 65.4997C0.0639036 66.0742 0.659648 70.4571 1.00007 70.7337C1.61709 71.2444 1.76603 70.6486 1.51071 68.755C1.38305 67.7976 1.25539 66.6061 1.21284 66.138C1.19156 65.521 1.0639 65.2656 0.787308 65.2231C0.595818 65.1805 0.361776 65.3082 0.297946 65.4997Z" fill="#3D5224"/>
<path d="M118.83 65.6494C118.787 65.7983 118.638 66.8834 118.511 68.0536C118.383 69.2238 118.234 70.3302 118.17 70.5217C118.043 70.9472 118.681 71.2238 119.043 70.9259C119.341 70.6706 119.915 66.2451 119.723 65.7345C119.553 65.3302 118.958 65.2877 118.83 65.6494Z" fill="#3D5224"/>
<path d="M1.91492 75.5427C1.91492 75.8831 2.21279 77.1597 2.57449 78.415C3.12768 80.2874 3.31917 80.7129 3.6596 80.7129C3.87236 80.7129 4.10641 80.564 4.19151 80.3725C4.31917 80.032 3.08513 75.7129 2.70215 75.2235C2.34045 74.7554 1.91492 74.9257 1.91492 75.5427Z" fill="#3D5224"/>
<path d="M117.298 75.4364C116.957 75.9896 115.596 80.3939 115.681 80.6492C115.745 80.7981 115.915 80.9258 116.064 80.9258C116.511 80.9258 116.723 80.5002 117.511 78.0534C118.043 76.3726 118.191 75.6492 118.043 75.4577C117.766 75.1173 117.511 75.1173 117.298 75.4364Z" fill="#3D5224"/>
<path d="M5.31921 85.0954C5.31921 85.9252 7.46815 89.8613 7.93624 89.8613C8.55326 89.8613 8.34049 89.0315 7.17028 86.7762C6.02134 84.5847 5.31921 83.9252 5.31921 85.0954Z" fill="#3D5224"/>
<path d="M112.66 87.0956C111.532 89.3722 111.362 90.1594 112.106 90.0318C112.511 89.9466 114.66 85.9466 114.681 85.2232C114.681 84.9041 114.553 84.7552 114.255 84.7552C113.936 84.7552 113.575 85.2871 112.66 87.0956Z" fill="#3D5224"/>
<path d="M10.2341 93.9479C10.2553 94.6501 12.7873 98.0331 13.3617 98.1182C14.1915 98.2458 13.8936 97.416 12.4256 95.3948C10.9787 93.4586 10.1915 92.9267 10.2341 93.9479Z" fill="#3D5224"/>
<path d="M108.277 94.4793C108 94.9048 107.341 95.8197 106.766 96.4793C105.787 97.6708 105.596 98.3729 106.277 98.3729C106.83 98.3729 109.575 94.7772 109.575 94.0751C109.575 93.3942 108.787 93.6495 108.277 94.4793Z" fill="#3D5224"/>
<path d="M16.5958 101.735C16.5958 102.288 19.8086 105.395 20.3831 105.395C20.6384 105.395 20.8511 105.267 20.8511 105.118C20.8511 104.714 17.3831 101.352 16.9575 101.352C16.7448 101.352 16.5958 101.522 16.5958 101.735Z" fill="#3D5224"/>
<path d="M100.489 103.288C98.7448 104.99 98.4682 105.607 99.4469 105.607C100 105.607 103.192 102.48 103.192 101.927C103.192 101.097 102.234 101.586 100.489 103.288Z" fill="#3D5224"/>
<path d="M24.2554 108.352C24.2554 108.969 27.766 111.564 28.5958 111.564C29.4469 111.564 28.8298 110.735 26.9149 109.373C24.8086 107.884 24.2554 107.671 24.2554 108.352Z" fill="#3D5224"/>
<path d="M94.1702 108.691C93.8298 108.968 92.8936 109.564 92.1064 110.01C91.2979 110.457 90.6383 110.861 90.6383 110.925C90.6383 110.989 90.7447 111.181 90.8511 111.351C91.1277 111.776 91.8723 111.478 94.0426 110.053C95.1277 109.329 95.7447 108.776 95.7447 108.542C95.7447 107.989 94.9149 108.074 94.1702 108.691Z" fill="#3D5224"/>
<path d="M32.766 113.735C32.766 114.16 33.1064 114.373 34.9575 115.118C37.3405 116.118 38.1702 116.267 38.0426 115.671C37.9788 115.352 33.6809 113.267 33.0426 113.267C32.8937 113.267 32.766 113.479 32.766 113.735Z" fill="#3D5224"/>
<path d="M83.8936 114.415C82.0426 115.16 81.7234 115.352 81.7021 115.756C81.7021 116.501 82.4681 116.373 84.8936 115.267C86.4681 114.522 87.0213 114.16 87.0213 113.884C87.0213 113.288 86.3617 113.394 83.8936 114.415Z" fill="#3D5224"/>
<path d="M42.1703 117.457C42.2554 117.925 45.3617 119.032 46.6809 119.074C47.4256 119.117 47.5532 119.053 47.5532 118.691C47.5532 118.33 47.2128 118.181 45.4256 117.691C42.8086 117.011 42.0639 116.947 42.1703 117.457Z" fill="#3D5224"/>
<path d="M74.3192 117.693C72.5319 118.139 72.1277 118.31 72.1277 118.629C72.1277 119.288 72.6596 119.288 75.2128 118.671C77.4468 118.118 77.6596 118.033 77.6596 117.586C77.6596 116.948 77.1702 116.969 74.3192 117.693Z" fill="#3D5224"/>
<path d="M51.9149 119.5C51.9149 120.096 52.4681 120.245 55.0213 120.394C56.9575 120.521 57.6383 120.479 57.766 120.287C58.1064 119.713 57.3404 119.479 54.6383 119.33C52.3192 119.224 51.9149 119.245 51.9149 119.5Z" fill="#3D5224"/>
<path d="M63.9363 119.415C62.3405 119.543 62.2341 119.586 62.1703 120.054L62.0852 120.564L64.7235 120.415C67.298 120.266 68.1278 120.011 67.7873 119.458C67.6384 119.224 66.915 119.203 63.9363 119.415Z" fill="#3D5224"/>
<path d="M25 64.791C29.5 64.291 29.5 69.291 34.5 69.291C39.5 69.291 39.5 64.791 44.5 64.791C49.5 64.791 51 69.291 55.5 69.291C60.5 69.291 62.5 64.791 66.5 64.791C70.5 64.791 74 69.291 77.5 69.291C81 69.291 84 64.791 88.5 64.791" stroke="#3D5224" stroke-width="1.2"/>
<path d="M25 76.3261C29.5 75.8262 29.5 80.8261 34.5 80.8261C39.5 80.8261 39.5 76.3261 44.5 76.3261C49.5 76.3261 51 80.8261 55.5 80.8261C60.5 80.8261 62.5 76.3261 66.5 76.3261C70.5 76.3261 74 80.8261 77.5 80.8261C81 80.8261 84 76.3261 88.5 76.3261" stroke="#3D5224" stroke-width="1.2"/>
<path d="M25 87.8612C29.5 87.3612 29.5 92.3612 34.5 92.3612C39.5 92.3612 39.5 87.8612 44.5 87.8612C49.5 87.8612 51 92.3612 55.5 92.3612C60.5 92.3612 62.5 87.8612 66.5 87.8612C70.5 87.8612 74 92.3612 77.5 92.3612C81 92.3612 84 87.8612 88.5 87.8612" stroke="#3D5224" stroke-width="1.2"/>
<path d="M58.5 63.7568V33.2565C59 27.001 69.5 27.5004 70.5 32.2567C71.5 39.7565 69.5 40.2566 69 40.2565C65.5 40.2565 68.1416 32.7567 64.5 32.7566C62 32.7565 62.5 37.2565 62.5 39.7565V63.7568" stroke="#3D5224" stroke-width="1.5"/>
<path d="M63 47.7578H76.5" stroke="#3D5224" stroke-width="1.5"/>
<path d="M63 51.7578H76.5" stroke="#3D5224" stroke-width="1.5"/>
<path d="M63 55.7578H76.5" stroke="#3D5224" stroke-width="1.5"/>
<path d="M63 59.7578H76.5" stroke="#3D5224" stroke-width="1.5"/>
<path d="M76 63.6318V33.1315C76.5 26.876 87 27.3754 88 32.1317C89 39.6315 87 40.1316 86.5 40.1315C83 40.1315 85.6416 32.6317 82 32.6316C79.5 32.6315 80 37.1315 80 39.6315V63.6318" stroke="#3D5224" stroke-width="1.5"/>
<path d="M14.026 42.64C10.82 42.64 9.7 40.792 9.7 38.706H11.268C11.282 40.4 11.996 41.282 14.026 41.282C15.93 41.282 16.658 40.848 16.658 39.924C16.658 38.958 16.112 38.482 14.712 38.3L13.228 38.104C10.848 37.81 9.896 36.732 9.896 35.094C9.896 33.68 10.876 32.56 13.788 32.56C17.218 32.56 17.904 34.548 17.904 36.004L16.336 36.018C16.336 34.772 15.79 33.862 13.788 33.862C11.968 33.862 11.38 34.38 11.38 35.136C11.38 35.934 11.968 36.55 13.256 36.704L14.712 36.9C17.358 37.236 18.198 38.216 18.198 39.868C18.198 41.324 17.358 42.64 14.026 42.64ZM24.379 42.64C21.593 42.64 19.325 40.904 19.325 37.586C19.325 34.296 21.593 32.56 24.379 32.56C27.165 32.56 29.447 34.296 29.447 37.586C29.447 40.904 27.165 42.64 24.379 42.64ZM24.379 41.282C26.619 41.282 27.865 39.798 27.865 37.586C27.865 35.402 26.619 33.918 24.379 33.918C22.139 33.918 20.907 35.402 20.907 37.586C20.907 39.798 22.139 41.282 24.379 41.282ZM35.9044 42.64C33.1184 42.64 30.8504 40.904 30.8504 37.586C30.8504 34.296 33.1184 32.56 35.9044 32.56C38.6904 32.56 40.9724 34.296 40.9724 37.586C40.9724 40.904 38.6904 42.64 35.9044 42.64ZM35.9044 41.282C38.1444 41.282 39.3904 39.798 39.3904 37.586C39.3904 35.402 38.1444 33.918 35.9044 33.918C33.6644 33.918 32.4324 35.402 32.4324 37.586C32.4324 39.798 33.6644 41.282 35.9044 41.282ZM42.3758 42.5V32.7H43.9578L43.6358 35.01H43.9578C44.4618 33.484 45.5398 32.7 47.3458 32.7C49.6418 32.7 51.2518 34.072 51.2518 37.012V42.5H49.6558V37.012C49.6558 34.898 48.5498 34.058 47.1218 34.058C45.0358 34.058 43.9718 35.234 43.9718 37.012L43.9578 42.5H42.3758Z" fill="#3D5224"/>
<circle cx="60" cy="60.5" r="60" fill="black" fill-opacity="0.1"/>
</g>
<defs>
<clipPath id="clip0_224_4495">
<rect width="120" height="120" fill="white" transform="translate(0 0.5)"/>
</clipPath>
</defs>
</svg>
