<svg width="120" height="121" viewBox="0 0 120 121" fill="none" xmlns="http://www.w3.org/2000/svg">
<g clip-path="url(#clip0_224_4356)">
<path d="M57.1277 0.734584C56.8086 1.24522 57.4681 1.37288 60.1277 1.30905C62.4043 1.24522 62.8724 1.18139 62.8724 0.926074C62.8724 0.670755 62.383 0.606925 60.0639 0.543095C58.1703 0.500542 57.2128 0.564372 57.1277 0.734584Z" fill="#3D5224"/>
<path d="M49.6809 1.24489C48.9788 1.4151 48.1703 1.54276 47.8724 1.56404C47.2128 1.56404 46.6171 2.35127 47.1277 2.54276C47.4043 2.64914 51.7022 2.11723 52.5107 1.86191C52.6809 1.81936 52.766 1.60659 52.7234 1.4151C52.6383 0.925738 51.4043 0.861908 49.6809 1.24489Z" fill="#3D5224"/>
<path d="M67.2979 1.26558C67.1064 1.77622 67.4042 1.90388 69.3617 2.18048C73.234 2.75495 73.0213 2.75495 72.9362 2.18048C72.8723 1.73367 72.6808 1.64856 70.851 1.32941C68.234 0.840051 67.4681 0.840051 67.2979 1.26558Z" fill="#3D5224"/>
<path d="M39.7448 3.86136C37.7235 4.54221 37.4469 4.69114 37.4469 5.11668C37.4469 5.77625 37.766 5.75497 40.532 4.77625C42.3831 4.11668 42.8724 3.86136 42.8724 3.56349C42.8724 2.94646 42.2341 3.01029 39.7448 3.86136Z" fill="#3D5224"/>
<path d="M77.1065 3.28772C77.0426 3.41538 77.0852 3.62815 77.2129 3.75581C77.4895 4.0324 81.1065 5.3941 81.9788 5.54304C82.532 5.64942 82.5746 5.60687 82.5107 5.16006C82.4682 4.73453 82.1065 4.54304 80.3192 3.86219C78.0852 3.0324 77.3618 2.90474 77.1065 3.28772Z" fill="#3D5224"/>
<path d="M30.6384 8.05425C29.532 8.69255 28.532 9.24574 28.4469 9.2883C28.1916 9.3734 28.5107 10.0755 28.8086 10.0755C28.9363 10.0968 30.0639 9.58617 31.3192 8.96915C33.1703 8.05425 33.5958 7.75638 33.5958 7.35213C33.6171 6.58617 32.8724 6.77766 30.6384 8.05425Z" fill="#3D5224"/>
<path d="M86.4043 7.35213C86.4043 7.75638 86.8298 8.05425 88.6809 8.96915C89.9362 9.58617 91.0851 10.0968 91.234 10.0755C91.3617 10.0755 91.4894 9.88404 91.4894 9.67127C91.4894 9.35213 90.9149 8.92659 89.4043 8.07553C87.1064 6.75638 86.383 6.58617 86.4043 7.35213Z" fill="#3D5224"/>
<path d="M22.6597 13.3949C21.8512 14.0545 20.9576 14.7566 20.681 14.9694C20.1703 15.3736 20.2342 16.0332 20.7661 16.0332C21.2767 16.0332 24.8937 13.0119 24.8937 12.5864C24.8937 11.9055 24.1916 12.1609 22.6597 13.3949Z" fill="#3D5224"/>
<path d="M95.1064 12.5864C95.1064 13.0332 98.7235 16.0332 99.2554 16.0332C100.064 16.0332 99.4894 15.1396 97.7873 13.7141C96.0213 12.2034 95.1064 11.8204 95.1064 12.5864Z" fill="#3D5224"/>
<path d="M14.9575 20.8194C14.0427 21.8194 13.298 22.7556 13.298 22.9046C13.298 23.0535 13.4895 23.1812 13.7448 23.2237C14.0852 23.2663 14.5746 22.8407 15.7235 21.479C16.5533 20.479 17.2341 19.5216 17.2341 19.3514C17.2341 18.6492 16.5533 19.0748 14.9575 20.8194Z" fill="#3D5224"/>
<path d="M102.766 19.4572C102.766 19.9466 105.872 23.4785 106.319 23.4785C106.957 23.4785 106.511 22.4998 105.085 20.7977C103.553 18.9892 102.766 18.5423 102.766 19.4572Z" fill="#3D5224"/>
<path d="M9.93624 27.3516C7.87241 30.0962 7.12773 31.7771 7.9788 31.7771C8.3405 31.7771 11.0639 27.6494 11.0639 27.0962C11.0639 26.458 10.5107 26.5856 9.93624 27.3516Z" fill="#3D5224"/>
<path d="M108.936 27.2026C108.936 27.692 111.702 31.7771 112.043 31.7771C112.575 31.7771 112.362 31.1388 111.149 28.9899C110.149 27.2452 109.872 26.8835 109.447 26.8835C109.149 26.8835 108.936 27.0111 108.936 27.2026Z" fill="#3D5224"/>
<path d="M5.12772 35.9676C4.55326 37.074 3.21283 40.5634 3.31921 40.7336C3.5107 41.074 4.25538 40.9463 4.40432 40.5421C4.46815 40.3506 4.85113 39.3719 5.25538 38.3719C6.27666 35.9038 6.31921 35.6059 5.7873 35.6059C5.53198 35.6059 5.25538 35.7761 5.12772 35.9676Z" fill="#3D5224"/>
<path d="M114.043 35.99C114.043 36.224 114.383 37.3091 114.787 38.373C115.192 39.4368 115.532 40.4581 115.532 40.607C115.532 40.8623 115.979 41.1389 116.404 41.1389C116.809 41.1389 116.532 39.9049 115.681 37.841C115.085 36.4581 114.66 35.6921 114.404 35.6496C114.17 35.607 114.043 35.7134 114.043 35.99Z" fill="#3D5224"/>
<path d="M1.9575 45.2461C1.55324 45.7355 0.659626 50.3738 0.936222 50.544C1.51069 50.9482 1.76601 50.5653 2.17026 48.6929C2.80856 45.6716 2.87239 44.9695 2.51069 44.9695C2.3192 44.9695 2.08516 45.0972 1.9575 45.2461Z" fill="#3D5224"/>
<path d="M117.319 45.479C117.255 45.6492 117.404 46.6704 117.638 47.7343C117.894 48.8194 118.085 49.9045 118.085 50.1811C118.085 50.6704 118.596 51.0321 118.958 50.7981C119.532 50.4577 118.489 45.3513 117.809 45.2236C117.617 45.1811 117.383 45.2875 117.319 45.479Z" fill="#3D5224"/>
<path d="M0.255351 55.2236C-0.0637976 55.5427 -0.106351 60.6278 0.212798 60.8193C0.340458 60.9044 0.595777 60.8406 0.76599 60.6916C1.02131 60.4789 1.06386 59.9257 1.02131 57.7767C0.957479 55.1597 0.808543 54.6704 0.255351 55.2236Z" fill="#3D5224"/>
<path d="M119.085 55.1167C119 55.1805 118.936 56.4784 118.936 57.9465C118.936 60.0741 119 60.7124 119.255 60.9252C119.426 61.0528 119.66 61.1167 119.787 61.0316C120.106 60.8401 120.064 55.5422 119.745 55.2231C119.447 54.9252 119.277 54.9039 119.085 55.1167Z" fill="#3D5224"/>
<path d="M0.297946 65.4997C0.0639036 66.0742 0.659648 70.4571 1.00007 70.7337C1.61709 71.2444 1.76603 70.6486 1.51071 68.755C1.38305 67.7976 1.25539 66.6061 1.21284 66.138C1.19156 65.521 1.0639 65.2656 0.787308 65.2231C0.595818 65.1805 0.361776 65.3082 0.297946 65.4997Z" fill="#3D5224"/>
<path d="M118.83 65.6494C118.787 65.7983 118.638 66.8834 118.511 68.0536C118.383 69.2238 118.234 70.3302 118.17 70.5217C118.043 70.9472 118.681 71.2238 119.043 70.9259C119.341 70.6706 119.915 66.2451 119.723 65.7345C119.553 65.3302 118.958 65.2877 118.83 65.6494Z" fill="#3D5224"/>
<path d="M1.91492 75.5427C1.91492 75.8831 2.21279 77.1597 2.57449 78.415C3.12768 80.2874 3.31917 80.7129 3.6596 80.7129C3.87236 80.7129 4.10641 80.564 4.19151 80.3725C4.31917 80.032 3.08513 75.7129 2.70215 75.2235C2.34045 74.7554 1.91492 74.9257 1.91492 75.5427Z" fill="#3D5224"/>
<path d="M117.298 75.4364C116.957 75.9896 115.596 80.3939 115.681 80.6492C115.745 80.7981 115.915 80.9258 116.064 80.9258C116.511 80.9258 116.723 80.5002 117.511 78.0534C118.043 76.3726 118.191 75.6492 118.043 75.4577C117.766 75.1173 117.511 75.1173 117.298 75.4364Z" fill="#3D5224"/>
<path d="M5.31921 85.0954C5.31921 85.9252 7.46815 89.8613 7.93624 89.8613C8.55326 89.8613 8.34049 89.0315 7.17028 86.7762C6.02134 84.5847 5.31921 83.9252 5.31921 85.0954Z" fill="#3D5224"/>
<path d="M112.66 87.0956C111.532 89.3722 111.362 90.1594 112.106 90.0318C112.511 89.9466 114.66 85.9466 114.681 85.2232C114.681 84.9041 114.553 84.7552 114.255 84.7552C113.936 84.7552 113.575 85.2871 112.66 87.0956Z" fill="#3D5224"/>
<path d="M10.2341 93.9479C10.2553 94.6501 12.7873 98.0331 13.3617 98.1182C14.1915 98.2458 13.8936 97.416 12.4256 95.3948C10.9787 93.4586 10.1915 92.9267 10.2341 93.9479Z" fill="#3D5224"/>
<path d="M108.277 94.4793C108 94.9048 107.341 95.8197 106.766 96.4793C105.787 97.6708 105.596 98.3729 106.277 98.3729C106.83 98.3729 109.575 94.7772 109.575 94.0751C109.575 93.3942 108.787 93.6495 108.277 94.4793Z" fill="#3D5224"/>
<path d="M16.5958 101.735C16.5958 102.288 19.8086 105.395 20.3831 105.395C20.6384 105.395 20.8511 105.267 20.8511 105.118C20.8511 104.714 17.3831 101.352 16.9575 101.352C16.7448 101.352 16.5958 101.522 16.5958 101.735Z" fill="#3D5224"/>
<path d="M100.489 103.288C98.7448 104.99 98.4682 105.607 99.4469 105.607C100 105.607 103.192 102.48 103.192 101.927C103.192 101.097 102.234 101.586 100.489 103.288Z" fill="#3D5224"/>
<path d="M24.2554 108.352C24.2554 108.969 27.766 111.564 28.5958 111.564C29.4469 111.564 28.8298 110.735 26.9149 109.373C24.8086 107.884 24.2554 107.671 24.2554 108.352Z" fill="#3D5224"/>
<path d="M94.1702 108.691C93.8298 108.968 92.8936 109.564 92.1064 110.01C91.2979 110.457 90.6383 110.861 90.6383 110.925C90.6383 110.989 90.7447 111.181 90.8511 111.351C91.1277 111.776 91.8723 111.478 94.0426 110.053C95.1277 109.329 95.7447 108.776 95.7447 108.542C95.7447 107.989 94.9149 108.074 94.1702 108.691Z" fill="#3D5224"/>
<path d="M32.766 113.735C32.766 114.16 33.1064 114.373 34.9575 115.118C37.3405 116.118 38.1702 116.267 38.0426 115.671C37.9788 115.352 33.6809 113.267 33.0426 113.267C32.8937 113.267 32.766 113.479 32.766 113.735Z" fill="#3D5224"/>
<path d="M83.8936 114.415C82.0426 115.16 81.7234 115.352 81.7021 115.756C81.7021 116.501 82.4681 116.373 84.8936 115.267C86.4681 114.522 87.0213 114.16 87.0213 113.884C87.0213 113.288 86.3617 113.394 83.8936 114.415Z" fill="#3D5224"/>
<path d="M42.1703 117.457C42.2554 117.925 45.3617 119.032 46.6809 119.074C47.4256 119.117 47.5532 119.053 47.5532 118.691C47.5532 118.33 47.2128 118.181 45.4256 117.691C42.8086 117.011 42.0639 116.947 42.1703 117.457Z" fill="#3D5224"/>
<path d="M74.3192 117.693C72.5319 118.139 72.1277 118.31 72.1277 118.629C72.1277 119.288 72.6596 119.288 75.2128 118.671C77.4468 118.118 77.6596 118.033 77.6596 117.586C77.6596 116.948 77.1702 116.969 74.3192 117.693Z" fill="#3D5224"/>
<path d="M51.9149 119.5C51.9149 120.096 52.4681 120.245 55.0213 120.394C56.9575 120.521 57.6383 120.479 57.766 120.287C58.1064 119.713 57.3404 119.479 54.6383 119.33C52.3192 119.224 51.9149 119.245 51.9149 119.5Z" fill="#3D5224"/>
<path d="M63.9363 119.415C62.3405 119.543 62.2341 119.586 62.1703 120.054L62.0852 120.564L64.7235 120.415C67.298 120.266 68.1278 120.011 67.7873 119.458C67.6384 119.224 66.915 119.203 63.9363 119.415Z" fill="#3D5224"/>
<path d="M33.1644 95.0019C30.1437 95.0019 27.305 93.1922 25.9312 90.3911C24.2454 86.9545 25.17 82.8413 28.1776 80.3887L29.0892 79.6432L28.5322 79.1475C24.7838 75.8134 24.0133 72.1605 26.2468 68.2878C27.836 65.5333 30.1066 64.1355 32.9991 64.1355C34.2727 64.1355 35.68 64.4039 37.1838 64.9332L38.0824 65.25L38.023 64.2958C37.9914 63.7851 37.9506 63.2726 37.9116 62.7787C37.8243 61.6792 37.7426 60.6411 37.7482 59.5918C37.7631 56.4609 38.593 53.2945 40.2843 49.9119C40.8524 48.775 41.5282 47.6549 42.1817 46.5721C42.3265 46.3317 42.4732 46.0895 42.618 45.8472C42.8463 45.4651 43.0988 45.2713 43.368 45.2713C43.4312 45.2713 43.4961 45.2806 43.5648 45.3011C43.847 45.3831 44.0568 45.5024 44.1756 46.3168C44.3743 47.6904 44.6249 49.3155 44.9907 50.9481C45.1392 51.6116 45.5161 52.2023 45.8484 52.7242L45.9078 52.8174C46.3757 53.5535 47.1053 54.0064 48.0187 54.1275C48.1895 54.1499 48.3566 54.1611 48.5144 54.1611C49.7899 54.1611 50.5919 53.3858 50.6606 52.0868C50.7405 50.5586 50.6885 49.2447 50.4973 48.0687C49.983 44.8874 50.6495 41.9726 52.4782 39.4063C53.4269 38.0719 54.5074 36.7822 55.549 35.5354C55.9277 35.0825 56.3065 34.6297 56.6796 34.1749C58.0201 32.5405 59.4923 30.5911 60.0196 28.1142C60.1477 27.5141 60.1978 26.9065 60.2461 26.3195C60.2572 26.1778 60.2684 26.0381 60.2814 25.8983C60.3296 25.3634 60.5487 25.1882 60.7789 25.0783C60.8903 25.0242 60.9924 25 61.0908 25C61.2412 25 61.3935 25.0615 61.5531 25.1864C66.2354 28.8597 69.3581 33.0306 71.1014 37.9396C71.8571 40.0679 71.987 42.3211 71.4987 44.8277C71.3354 45.6645 71.3521 46.5162 71.3669 47.34V47.463C71.3892 48.6334 71.8236 49.3956 72.6554 49.7274C73.049 49.8839 73.4463 49.9641 73.8306 49.9641C74.4841 49.9641 75.0745 49.733 75.5405 49.2931C76.2646 48.611 76.7101 47.9755 76.9032 47.3493C77.2504 46.2199 77.4862 45.0514 77.7145 43.922C77.7795 43.6033 77.8426 43.2846 77.9095 42.9678C77.9633 42.7106 77.9633 42.4646 77.9633 42.2447C77.9633 42.1273 77.9633 42.0154 77.9726 41.9148C78.0246 41.3054 78.3179 41.1544 78.5686 41.0911C78.6502 41.0706 78.7301 41.0594 78.8025 41.0594C78.9009 41.0594 79.2035 41.0594 79.4578 41.5048C79.6881 41.9092 79.9238 42.3099 80.1578 42.7106C80.8206 43.8437 81.5075 45.0141 82.0663 46.2069C83.8022 49.9044 84.5857 53.5982 84.3945 57.184C84.3221 58.5258 84.0677 59.8994 83.8208 61.23C83.7112 61.8171 83.5998 62.4228 83.5033 63.0248C83.4829 63.1496 83.4439 63.2857 83.3938 63.4571C83.3659 63.5559 83.3344 63.6621 83.3028 63.7814L83.0466 64.7524L84.0306 64.566C84.2292 64.5287 84.4205 64.4915 84.6061 64.4542C84.9811 64.3797 85.3339 64.3107 85.6811 64.2567C86.0877 64.1952 86.4998 64.1635 86.9083 64.1635C90.833 64.1635 94.1841 67.0019 94.8748 70.9156C94.9026 71.0721 94.9565 71.2045 94.9992 71.3088V73.4148C94.9528 73.5043 94.9008 73.6179 94.8766 73.7614C94.5146 75.7873 93.5492 77.4273 91.9266 78.7748C91.83 78.8549 91.7465 78.9369 91.6573 79.0226C91.6184 79.0618 91.5757 79.1028 91.5292 79.1456L90.9816 79.6619L91.5812 80.1147C93.1185 81.274 94.1247 82.6922 94.6538 84.4515C94.7411 84.7441 94.8228 85.0386 94.9045 85.3349C94.936 85.4486 94.9658 85.5604 94.9973 85.6741V87.8807C94.9676 87.9963 94.9379 88.1118 94.9082 88.2274C94.8302 88.5349 94.756 88.8256 94.6687 89.1145C93.6142 92.6238 90.4729 94.9795 86.8507 94.9795C86.0969 94.9795 85.3339 94.877 84.5857 94.6757C81.9661 93.9712 79.3465 93.2668 76.725 92.5623C71.5155 91.1608 66.1277 89.7109 60.8253 88.2945C60.5858 88.2311 60.3278 88.1975 60.0623 88.1975C59.7968 88.1975 59.5313 88.2311 59.2918 88.2945C56.2897 89.094 53.2394 89.9159 50.2912 90.7098C45.3249 92.0479 40.1896 93.4308 35.1305 94.7484C34.4844 94.9161 33.8216 95.0019 33.1606 95.0019H33.1644ZM88.4845 80.5136C88.284 80.5136 88.0909 80.5359 87.9108 80.5807C86.1266 81.0224 84.478 81.4622 82.8739 81.93C82.4042 82.066 81.9252 82.3922 81.6208 82.7798C79.8682 85.02 79.7995 88.2441 81.4537 90.6166C82.6901 92.3908 84.7119 93.4494 86.8618 93.4494C87.5339 93.4494 88.2023 93.345 88.8447 93.1419C91.5701 92.2753 93.4749 89.6736 93.4786 86.8147C93.4824 84.1459 91.7855 81.6187 89.3496 80.6683C89.0897 80.5676 88.7889 80.5136 88.4826 80.5136H88.4845ZM33.2405 80.1744C29.6109 80.1744 26.6478 83.1358 26.6329 86.7737C26.6255 88.5367 27.3125 90.2029 28.5656 91.4683C29.8262 92.7412 31.4953 93.4438 33.2665 93.4475C36.8979 93.4475 39.8461 90.475 39.8517 86.8221C39.8554 85.0274 39.1741 83.3538 37.9357 82.107C36.6974 80.8602 35.0302 80.1744 33.2423 80.1725H33.2386L33.2405 80.1744ZM65.1716 86.6936L65.205 87.8285L65.658 87.9665L80.271 91.9081L79.6528 90.652C78.5908 88.4957 78.446 86.3562 79.1905 83.9204L79.5265 82.8245L65.1697 86.6954L65.1716 86.6936ZM86.899 65.7327C86.2269 65.7327 85.5344 65.8277 84.8437 66.0122C70.3514 69.9129 55.8609 73.8174 41.3704 77.7218C40.5795 77.9342 39.7923 78.1542 38.9828 78.3815C38.5985 78.4896 38.2105 78.5977 37.8151 78.7077L36.5173 79.0674L37.622 79.8389C41.1959 82.3325 42.3432 86.6749 40.4774 90.6427L39.9037 91.8634L41.5635 91.4348C41.7825 91.3789 41.9738 91.3304 42.165 91.2782L50.1668 89.1238C59.3178 86.66 68.467 84.1962 77.6161 81.7287C78.5611 81.4734 79.5061 81.2218 80.453 80.9702C83.2118 80.234 86.0635 79.4736 88.8539 78.6573C91.8374 77.7851 93.8852 74.6169 93.4192 71.5958C92.8771 68.0884 90.2556 65.7327 86.8953 65.7327H86.899ZM33.1829 65.7085C30.3869 65.7085 27.901 67.5274 26.995 70.2354C25.8866 73.5453 27.4498 77.0676 30.6283 78.4263C30.9272 78.5548 31.2892 78.6238 31.6494 78.6238C31.8759 78.6238 32.0913 78.5977 32.2899 78.5437C36.2463 77.4981 40.2602 76.4153 44.1441 75.3679C45.388 75.0325 46.6319 74.697 47.8758 74.3616C49.3815 73.9553 50.889 73.5527 52.3947 73.1502L54.9697 72.4606L54.9103 71.3554L54.5019 71.2194C54.4573 71.2045 54.4146 71.1896 54.3701 71.1746C54.2605 71.1355 54.1473 71.0964 54.021 71.0628C52.2406 70.5839 50.4601 70.1049 48.6797 69.6241C44.1404 68.3996 39.447 67.1342 34.8204 65.9191C34.282 65.7774 33.7306 65.7066 33.1811 65.7066L33.1829 65.7085ZM60.5599 51.4326L60.4986 52.1222C60.4615 52.5397 60.4299 52.9049 60.3946 53.2702C60.0809 56.3956 58.9502 58.565 56.8356 60.0969C55.9834 60.7138 55.2426 61.463 54.6931 62.0445C53.0389 63.7963 52.4281 65.8836 52.8737 68.2487C52.9591 68.6997 53.1577 69.2439 53.9523 69.4489C54.9976 69.7191 56.0595 70.0061 57.0844 70.2857C57.866 70.4981 58.6476 70.7106 59.4311 70.9175C59.665 70.979 59.8841 71.0106 60.0827 71.0106C60.2312 71.0106 60.3705 70.9939 60.5004 70.9603C63.0477 70.2894 65.5911 69.6017 68.0604 68.9177C68.4373 68.8134 68.8123 68.4742 68.9497 68.1145C69.6366 66.316 69.917 64.6667 69.8093 63.0732C69.4157 57.2585 65.6079 53.82 61.5513 50.9723L60.6583 50.3461L60.5599 51.4364V51.4326ZM41.7807 50.2045C41.6359 50.5642 41.4836 50.9239 41.3332 51.2835C40.9972 52.0812 40.65 52.9068 40.3585 53.7511C39.059 57.5213 38.89 61.0548 39.8406 64.5511C40.0764 65.4177 40.5498 65.8892 41.3759 66.0812C42.4453 66.3291 43.5296 66.6273 44.5785 66.9161C45.0222 67.0373 45.466 67.1603 45.9097 67.2795L51.2139 68.6978V67.8722C51.2139 67.766 51.2139 67.6672 51.2139 67.574C51.2139 67.382 51.2176 67.1994 51.2102 67.0168C51.1378 65.0711 51.6316 63.4329 52.6787 62.1507C53.6107 61.0082 54.7525 59.8639 56.0707 58.7513C57.6005 57.4579 58.4025 56.1328 58.5919 54.5785C58.7887 52.9609 58.837 51.3134 58.8834 49.7199L58.8964 49.2428C58.9149 48.6334 59.212 48.2252 59.6353 48.2252C59.7857 48.2252 59.9472 48.2718 60.118 48.3631C63.5731 50.2045 66.2094 52.3384 68.1755 54.8898C70.6781 58.1344 71.6788 61.4947 71.2351 65.1587C71.1813 65.6041 71.1126 66.0514 71.0402 66.5248C71.0049 66.7577 70.9678 66.9963 70.9306 67.2441L70.7914 68.2002C70.7914 68.2002 73.1325 67.5666 73.8324 67.3783C75.9638 66.8006 77.9782 66.2545 80.0334 65.7178C80.6832 65.5482 81.0842 65.1978 81.3367 64.5809C83.3585 59.631 83.4365 54.4164 81.5632 49.0788C81.3144 48.3725 81.0229 47.6773 80.7389 47.0064C80.6089 46.6989 80.479 46.3895 80.3527 46.0801L79.9573 45.1092L79.2852 45.9124C78.9677 46.2926 78.8526 46.6299 78.7616 46.9002L78.7486 46.9374C78.3792 48.0351 77.8686 49.2801 76.8884 50.2082C75.9731 51.0729 74.939 51.5128 73.812 51.5128C73.3479 51.5128 72.8596 51.4382 72.3583 51.2929C70.9603 50.8866 70.1435 49.8597 69.9337 48.242C69.7926 47.1611 69.8018 45.9534 69.9597 44.6544C69.9801 44.4848 70.0024 44.3152 70.0228 44.1456C70.1973 42.7702 70.3792 41.3482 70.0451 39.8703C69.3656 36.8512 67.832 33.9848 65.2217 30.8501C64.6777 30.1978 64.104 29.5921 63.4969 28.9529C63.2203 28.6603 62.9363 28.3621 62.6503 28.0527L61.8446 27.1805L61.5717 28.3379C60.8513 31.4018 59.0635 33.7351 57.4427 35.6826L56.9748 36.2455C55.7885 37.6675 54.5613 39.1398 53.4771 40.6904C52.0828 42.6864 51.5908 45.0383 52.0104 47.681C52.2554 49.2186 52.4708 50.8549 52.1942 52.4726C51.8414 54.5413 50.4824 55.7284 48.4662 55.7284C48.4272 55.7284 48.3882 55.7284 48.3474 55.7284C46.6486 55.6912 45.3564 54.942 44.5061 53.5069C44.0995 52.8229 43.7746 52.0812 43.4293 51.2947C43.2696 50.9332 43.1063 50.5586 42.9299 50.184L42.3172 48.8719L41.7733 50.2157L41.7807 50.2045Z" fill="#3D5224"/>
</g>
<defs>
<clipPath id="clip0_224_4356">
<rect width="120" height="120" fill="white" transform="translate(0 0.5)"/>
</clipPath>
</defs>
</svg>
