<svg width="120" height="121" viewBox="0 0 120 121" fill="none" xmlns="http://www.w3.org/2000/svg">
<g clip-path="url(#clip0_224_4449)">
<path d="M57.1277 0.734584C56.8086 1.24522 57.4681 1.37288 60.1277 1.30905C62.4043 1.24522 62.8724 1.18139 62.8724 0.926074C62.8724 0.670755 62.383 0.606925 60.0639 0.543095C58.1703 0.500542 57.2128 0.564372 57.1277 0.734584Z" fill="#3D5224"/>
<path d="M49.6809 1.24489C48.9788 1.4151 48.1703 1.54276 47.8724 1.56404C47.2128 1.56404 46.6171 2.35127 47.1277 2.54276C47.4043 2.64914 51.7022 2.11723 52.5107 1.86191C52.6809 1.81936 52.766 1.60659 52.7234 1.4151C52.6383 0.925738 51.4043 0.861908 49.6809 1.24489Z" fill="#3D5224"/>
<path d="M67.2979 1.26558C67.1064 1.77622 67.4042 1.90388 69.3617 2.18048C73.234 2.75495 73.0213 2.75495 72.9362 2.18048C72.8723 1.73367 72.6808 1.64856 70.851 1.32941C68.234 0.840051 67.4681 0.840051 67.2979 1.26558Z" fill="#3D5224"/>
<path d="M39.7448 3.86136C37.7235 4.54221 37.4469 4.69114 37.4469 5.11668C37.4469 5.77625 37.766 5.75497 40.532 4.77625C42.3831 4.11668 42.8724 3.86136 42.8724 3.56349C42.8724 2.94646 42.2341 3.01029 39.7448 3.86136Z" fill="#3D5224"/>
<path d="M77.1065 3.28772C77.0426 3.41538 77.0852 3.62815 77.2129 3.75581C77.4895 4.0324 81.1065 5.3941 81.9788 5.54304C82.532 5.64942 82.5746 5.60687 82.5107 5.16006C82.4682 4.73453 82.1065 4.54304 80.3192 3.86219C78.0852 3.0324 77.3618 2.90474 77.1065 3.28772Z" fill="#3D5224"/>
<path d="M30.6384 8.05425C29.532 8.69255 28.532 9.24574 28.4469 9.2883C28.1916 9.3734 28.5107 10.0755 28.8086 10.0755C28.9363 10.0968 30.0639 9.58617 31.3192 8.96915C33.1703 8.05425 33.5958 7.75638 33.5958 7.35213C33.6171 6.58617 32.8724 6.77766 30.6384 8.05425Z" fill="#3D5224"/>
<path d="M86.4043 7.35213C86.4043 7.75638 86.8298 8.05425 88.6809 8.96915C89.9362 9.58617 91.0851 10.0968 91.234 10.0755C91.3617 10.0755 91.4894 9.88404 91.4894 9.67127C91.4894 9.35213 90.9149 8.92659 89.4043 8.07553C87.1064 6.75638 86.383 6.58617 86.4043 7.35213Z" fill="#3D5224"/>
<path d="M22.6597 13.3949C21.8512 14.0545 20.9576 14.7566 20.681 14.9694C20.1703 15.3736 20.2342 16.0332 20.7661 16.0332C21.2767 16.0332 24.8937 13.0119 24.8937 12.5864C24.8937 11.9055 24.1916 12.1609 22.6597 13.3949Z" fill="#3D5224"/>
<path d="M95.1064 12.5864C95.1064 13.0332 98.7235 16.0332 99.2554 16.0332C100.064 16.0332 99.4894 15.1396 97.7873 13.7141C96.0213 12.2034 95.1064 11.8204 95.1064 12.5864Z" fill="#3D5224"/>
<path d="M14.9575 20.8194C14.0427 21.8194 13.298 22.7556 13.298 22.9046C13.298 23.0535 13.4895 23.1812 13.7448 23.2237C14.0852 23.2663 14.5746 22.8407 15.7235 21.479C16.5533 20.479 17.2341 19.5216 17.2341 19.3514C17.2341 18.6492 16.5533 19.0748 14.9575 20.8194Z" fill="#3D5224"/>
<path d="M102.766 19.4572C102.766 19.9466 105.872 23.4785 106.319 23.4785C106.957 23.4785 106.511 22.4998 105.085 20.7977C103.553 18.9892 102.766 18.5423 102.766 19.4572Z" fill="#3D5224"/>
<path d="M9.93624 27.3516C7.87241 30.0962 7.12773 31.7771 7.9788 31.7771C8.3405 31.7771 11.0639 27.6494 11.0639 27.0962C11.0639 26.458 10.5107 26.5856 9.93624 27.3516Z" fill="#3D5224"/>
<path d="M108.936 27.2026C108.936 27.692 111.702 31.7771 112.043 31.7771C112.575 31.7771 112.362 31.1388 111.149 28.9899C110.149 27.2452 109.872 26.8835 109.447 26.8835C109.149 26.8835 108.936 27.0111 108.936 27.2026Z" fill="#3D5224"/>
<path d="M5.12772 35.9676C4.55326 37.074 3.21283 40.5634 3.31921 40.7336C3.5107 41.074 4.25538 40.9463 4.40432 40.5421C4.46815 40.3506 4.85113 39.3719 5.25538 38.3719C6.27666 35.9038 6.31921 35.6059 5.7873 35.6059C5.53198 35.6059 5.25538 35.7761 5.12772 35.9676Z" fill="#3D5224"/>
<path d="M114.043 35.99C114.043 36.224 114.383 37.3091 114.787 38.373C115.192 39.4368 115.532 40.4581 115.532 40.607C115.532 40.8623 115.979 41.1389 116.404 41.1389C116.809 41.1389 116.532 39.9049 115.681 37.841C115.085 36.4581 114.66 35.6921 114.404 35.6496C114.17 35.607 114.043 35.7134 114.043 35.99Z" fill="#3D5224"/>
<path d="M1.9575 45.2461C1.55324 45.7355 0.659626 50.3738 0.936222 50.544C1.51069 50.9482 1.76601 50.5653 2.17026 48.6929C2.80856 45.6716 2.87239 44.9695 2.51069 44.9695C2.3192 44.9695 2.08516 45.0972 1.9575 45.2461Z" fill="#3D5224"/>
<path d="M117.319 45.479C117.255 45.6492 117.404 46.6704 117.638 47.7343C117.894 48.8194 118.085 49.9045 118.085 50.1811C118.085 50.6704 118.596 51.0321 118.958 50.7981C119.532 50.4577 118.489 45.3513 117.809 45.2236C117.617 45.1811 117.383 45.2875 117.319 45.479Z" fill="#3D5224"/>
<path d="M0.255351 55.2236C-0.0637976 55.5427 -0.106351 60.6278 0.212798 60.8193C0.340458 60.9044 0.595777 60.8406 0.76599 60.6916C1.02131 60.4789 1.06386 59.9257 1.02131 57.7767C0.957479 55.1597 0.808543 54.6704 0.255351 55.2236Z" fill="#3D5224"/>
<path d="M119.085 55.1167C119 55.1805 118.936 56.4784 118.936 57.9465C118.936 60.0741 119 60.7124 119.255 60.9252C119.426 61.0528 119.66 61.1167 119.787 61.0316C120.106 60.8401 120.064 55.5422 119.745 55.2231C119.447 54.9252 119.277 54.9039 119.085 55.1167Z" fill="#3D5224"/>
<path d="M0.297946 65.4997C0.0639036 66.0742 0.659648 70.4571 1.00007 70.7337C1.61709 71.2444 1.76603 70.6486 1.51071 68.755C1.38305 67.7976 1.25539 66.6061 1.21284 66.138C1.19156 65.521 1.0639 65.2656 0.787308 65.2231C0.595818 65.1805 0.361776 65.3082 0.297946 65.4997Z" fill="#3D5224"/>
<path d="M118.83 65.6494C118.787 65.7983 118.638 66.8834 118.511 68.0536C118.383 69.2238 118.234 70.3302 118.17 70.5217C118.043 70.9472 118.681 71.2238 119.043 70.9259C119.34 70.6706 119.915 66.2451 119.723 65.7345C119.553 65.3302 118.957 65.2877 118.83 65.6494Z" fill="#3D5224"/>
<path d="M1.91492 75.5427C1.91492 75.8831 2.21279 77.1597 2.57449 78.415C3.12768 80.2874 3.31917 80.7129 3.6596 80.7129C3.87236 80.7129 4.10641 80.564 4.19151 80.3725C4.31917 80.032 3.08513 75.7129 2.70215 75.2235C2.34045 74.7554 1.91492 74.9257 1.91492 75.5427Z" fill="#3D5224"/>
<path d="M117.298 75.4364C116.957 75.9896 115.596 80.3939 115.681 80.6492C115.745 80.7981 115.915 80.9258 116.064 80.9258C116.511 80.9258 116.723 80.5002 117.511 78.0534C118.043 76.3726 118.191 75.6492 118.043 75.4577C117.766 75.1173 117.511 75.1173 117.298 75.4364Z" fill="#3D5224"/>
<path d="M5.31921 85.0954C5.31921 85.9252 7.46815 89.8613 7.93624 89.8613C8.55326 89.8613 8.34049 89.0315 7.17028 86.7762C6.02134 84.5847 5.31921 83.9252 5.31921 85.0954Z" fill="#3D5224"/>
<path d="M112.66 87.0956C111.532 89.3722 111.362 90.1594 112.106 90.0318C112.511 89.9466 114.66 85.9466 114.681 85.2232C114.681 84.9041 114.553 84.7552 114.255 84.7552C113.936 84.7552 113.575 85.2871 112.66 87.0956Z" fill="#3D5224"/>
<path d="M10.2341 93.9479C10.2553 94.6501 12.7873 98.0331 13.3617 98.1182C14.1915 98.2458 13.8936 97.416 12.4256 95.3948C10.9787 93.4586 10.1915 92.9267 10.2341 93.9479Z" fill="#3D5224"/>
<path d="M108.277 94.4793C108 94.9048 107.34 95.8197 106.766 96.4793C105.787 97.6708 105.596 98.3729 106.277 98.3729C106.83 98.3729 109.574 94.7772 109.574 94.0751C109.574 93.3942 108.787 93.6495 108.277 94.4793Z" fill="#3D5224"/>
<path d="M16.5958 101.735C16.5958 102.288 19.8086 105.395 20.3831 105.395C20.6384 105.395 20.8511 105.267 20.8511 105.118C20.8511 104.714 17.3831 101.352 16.9575 101.352C16.7448 101.352 16.5958 101.522 16.5958 101.735Z" fill="#3D5224"/>
<path d="M100.489 103.288C98.7448 104.99 98.4682 105.607 99.4469 105.607C100 105.607 103.192 102.48 103.192 101.927C103.192 101.097 102.234 101.586 100.489 103.288Z" fill="#3D5224"/>
<path d="M24.2554 108.352C24.2554 108.969 27.766 111.564 28.5958 111.564C29.4469 111.564 28.8298 110.735 26.9149 109.373C24.8086 107.884 24.2554 107.671 24.2554 108.352Z" fill="#3D5224"/>
<path d="M94.1702 108.691C93.8298 108.968 92.8936 109.564 92.1064 110.01C91.2979 110.457 90.6383 110.861 90.6383 110.925C90.6383 110.989 90.7447 111.181 90.8511 111.351C91.1277 111.776 91.8723 111.478 94.0426 110.053C95.1277 109.329 95.7447 108.776 95.7447 108.542C95.7447 107.989 94.9149 108.074 94.1702 108.691Z" fill="#3D5224"/>
<path d="M32.766 113.735C32.766 114.16 33.1064 114.373 34.9575 115.118C37.3405 116.118 38.1702 116.267 38.0426 115.671C37.9788 115.352 33.6809 113.267 33.0426 113.267C32.8937 113.267 32.766 113.479 32.766 113.735Z" fill="#3D5224"/>
<path d="M83.8937 114.415C82.0426 115.16 81.7235 115.352 81.7022 115.756C81.7022 116.501 82.4682 116.373 84.8937 115.267C86.4682 114.522 87.0214 114.16 87.0214 113.884C87.0214 113.288 86.3618 113.394 83.8937 114.415Z" fill="#3D5224"/>
<path d="M42.1703 117.457C42.2554 117.925 45.3617 119.032 46.6809 119.074C47.4256 119.117 47.5532 119.053 47.5532 118.691C47.5532 118.33 47.2128 118.181 45.4256 117.691C42.8086 117.011 42.0639 116.947 42.1703 117.457Z" fill="#3D5224"/>
<path d="M74.3192 117.693C72.5319 118.139 72.1277 118.31 72.1277 118.629C72.1277 119.288 72.6596 119.288 75.2128 118.671C77.4468 118.118 77.6596 118.033 77.6596 117.586C77.6596 116.948 77.1702 116.969 74.3192 117.693Z" fill="#3D5224"/>
<path d="M51.9149 119.5C51.9149 120.096 52.4681 120.245 55.0213 120.394C56.9575 120.521 57.6383 120.479 57.766 120.287C58.1064 119.713 57.3404 119.479 54.6383 119.33C52.3192 119.224 51.9149 119.245 51.9149 119.5Z" fill="#3D5224"/>
<path d="M63.9363 119.415C62.3405 119.543 62.2341 119.586 62.1703 120.054L62.0852 120.564L64.7235 120.415C67.298 120.266 68.1278 120.011 67.7873 119.458C67.6384 119.224 66.915 119.203 63.9363 119.415Z" fill="#3D5224"/>
<path d="M103.493 65.4232C102.627 66.608 101.439 67.4724 100.057 67.9231C97.9608 68.6065 95.6419 68.241 93.86 66.9492L88.8046 63.2726C88.4319 63.0014 87.8895 62.285 87.4242 60.4137C86.9252 58.4048 87.3462 56.2767 88.58 54.5744C89.8453 52.8286 91.7713 51.7654 93.8672 51.6535C94.1135 51.6415 94.3429 51.635 94.5554 51.635C95.9341 51.635 96.6013 51.8894 96.9201 52.1196L101.967 55.7922C105.043 58.0281 105.727 62.3486 103.493 65.4232ZM80.1338 83.3065H69.3985V72.9392C69.3985 72.7452 69.3051 72.5657 69.1497 72.4528L61.4826 66.9677C61.2798 66.8237 61.0117 66.8172 60.8057 66.9557L52.5196 72.4415C52.353 72.5512 52.2524 72.738 52.2524 72.9392V83.3065H42.4338V50.3247C42.4338 50.1734 42.3726 50.039 42.2793 49.9335L60.6697 38.1954L80.1338 50.6193V83.3065ZM102.669 54.8271L97.6203 51.1529C96.846 50.5943 95.6009 50.3666 93.8036 50.4623C91.3472 50.5919 89.0911 51.8363 87.6134 53.8734C87.5965 53.8967 87.5836 53.9233 87.5667 53.9466L60.9908 36.9848C60.7944 36.8593 60.5449 36.8593 60.3485 36.9848L34.093 53.7422L32.1291 50.728C30.8638 48.7874 28.2569 48.2377 26.318 49.5029L15.2712 56.7001C14.9951 56.8795 14.917 57.2498 15.0965 57.525C15.2768 57.8019 15.6478 57.88 15.9223 57.6989L26.9699 50.5018C27.6419 50.0639 28.446 49.915 29.2308 50.0784C30.0163 50.245 30.6908 50.707 31.1286 51.3791L31.61 52.1179L18.0439 60.957C17.7678 61.1365 17.6906 61.5059 17.8701 61.7812C17.9844 61.9574 18.1759 62.0532 18.3707 62.0532C18.4826 62.0532 18.5952 62.0218 18.6959 61.9558L32.2611 53.1176L34.3827 56.3749L20.8175 65.2123C20.5414 65.3926 20.4633 65.7621 20.6436 66.0373C20.7579 66.2136 20.9487 66.3086 21.1443 66.3086C21.2561 66.3086 21.3688 66.278 21.4686 66.212L35.0339 57.3737L35.516 58.1126C35.9538 58.7855 36.1043 59.5887 35.9385 60.3735C35.7719 61.1598 35.3107 61.8335 34.6378 62.2713L23.5911 69.4691C23.315 69.6496 23.2369 70.019 23.4164 70.2951C23.5315 70.4705 23.7222 70.5655 23.917 70.5655C24.0289 70.5655 24.1424 70.535 24.243 70.4689L35.2898 63.2718C36.2291 62.6593 36.8746 61.7168 37.1056 60.6198C37.3374 59.5227 37.1281 58.4007 36.5156 57.4615L35.7083 56.2228L34.7441 54.7418L41.2402 50.5968V83.9029C41.2402 84.2328 41.5074 84.5 41.8366 84.5H52.8496C53.1788 84.5 53.446 84.2328 53.446 83.9029V73.2592L61.122 68.1775L68.2048 73.2457V83.9029C68.2048 84.2328 68.4728 84.5 68.802 84.5H80.731C81.061 84.5 81.3282 84.2328 81.3282 83.9029V51.3815L86.9526 54.9712C86.0439 56.7379 85.7847 58.7637 86.266 60.7019C86.7151 62.5104 87.3156 63.6662 88.1027 64.2376L93.1581 67.9151C94.5546 68.9268 96.2295 69.4541 97.9213 69.4541C98.7632 69.4541 99.6091 69.3236 100.427 69.0573C102.049 68.5292 103.443 67.5159 104.457 66.1267C107.08 62.5184 106.277 57.4502 102.669 54.8271Z" fill="#3D5224"/>
<path d="M65.2485 53.3591H55.7511V47.8257L60.1779 44.7326L65.2485 47.8482V53.3591ZM59.8149 43.5301L54.8127 47.0248C54.6525 47.1367 54.5575 47.3202 54.5575 47.515V53.9563C54.5575 54.2855 54.8247 54.5527 55.1547 54.5527H65.8449C66.1741 54.5527 66.4414 54.2855 66.4414 53.9563V47.515C66.4414 47.3073 66.3343 47.115 66.1572 47.0063L60.4693 43.5108C60.2656 43.3868 60.0097 43.3933 59.8149 43.5301Z" fill="#3D5224"/>
</g>
<defs>
<clipPath id="clip0_224_4449">
<rect width="120" height="120" fill="white" transform="translate(0 0.5)"/>
</clipPath>
</defs>
</svg>
