<svg width="120" height="121" viewBox="0 0 120 121" fill="none" xmlns="http://www.w3.org/2000/svg">
<g clip-path="url(#clip0_224_4306)">
<path d="M57.1277 0.734584C56.8086 1.24522 57.4681 1.37288 60.1277 1.30905C62.4043 1.24522 62.8724 1.18139 62.8724 0.926074C62.8724 0.670755 62.383 0.606925 60.0639 0.543095C58.1703 0.500542 57.2128 0.564372 57.1277 0.734584Z" fill="#3D5224"/>
<path d="M49.6809 1.24489C48.9788 1.4151 48.1703 1.54276 47.8724 1.56404C47.2128 1.56404 46.6171 2.35127 47.1277 2.54276C47.4043 2.64914 51.7022 2.11723 52.5107 1.86191C52.6809 1.81936 52.766 1.60659 52.7234 1.4151C52.6383 0.925738 51.4043 0.861908 49.6809 1.24489Z" fill="#3D5224"/>
<path d="M67.2979 1.26558C67.1064 1.77622 67.4042 1.90388 69.3617 2.18048C73.234 2.75495 73.0213 2.75495 72.9362 2.18048C72.8723 1.73367 72.6808 1.64856 70.851 1.32941C68.234 0.840051 67.4681 0.840051 67.2979 1.26558Z" fill="#3D5224"/>
<path d="M39.7448 3.86136C37.7235 4.54221 37.4469 4.69114 37.4469 5.11668C37.4469 5.77625 37.766 5.75497 40.532 4.77625C42.3831 4.11668 42.8724 3.86136 42.8724 3.56349C42.8724 2.94646 42.2341 3.01029 39.7448 3.86136Z" fill="#3D5224"/>
<path d="M77.1065 3.28772C77.0426 3.41538 77.0852 3.62815 77.2129 3.75581C77.4895 4.0324 81.1065 5.3941 81.9788 5.54304C82.532 5.64942 82.5746 5.60687 82.5107 5.16006C82.4682 4.73453 82.1065 4.54304 80.3192 3.86219C78.0852 3.0324 77.3618 2.90474 77.1065 3.28772Z" fill="#3D5224"/>
<path d="M30.6384 8.05425C29.532 8.69255 28.532 9.24574 28.4469 9.2883C28.1916 9.3734 28.5107 10.0755 28.8086 10.0755C28.9363 10.0968 30.0639 9.58617 31.3192 8.96915C33.1703 8.05425 33.5958 7.75638 33.5958 7.35213C33.6171 6.58617 32.8724 6.77766 30.6384 8.05425Z" fill="#3D5224"/>
<path d="M86.4043 7.35213C86.4043 7.75638 86.8298 8.05425 88.6809 8.96915C89.9362 9.58617 91.0851 10.0968 91.234 10.0755C91.3617 10.0755 91.4894 9.88404 91.4894 9.67127C91.4894 9.35213 90.9149 8.92659 89.4043 8.07553C87.1064 6.75638 86.383 6.58617 86.4043 7.35213Z" fill="#3D5224"/>
<path d="M22.6597 13.3949C21.8512 14.0545 20.9576 14.7566 20.681 14.9694C20.1703 15.3736 20.2342 16.0332 20.7661 16.0332C21.2767 16.0332 24.8937 13.0119 24.8937 12.5864C24.8937 11.9055 24.1916 12.1609 22.6597 13.3949Z" fill="#3D5224"/>
<path d="M95.1064 12.5864C95.1064 13.0332 98.7235 16.0332 99.2554 16.0332C100.064 16.0332 99.4894 15.1396 97.7873 13.7141C96.0213 12.2034 95.1064 11.8204 95.1064 12.5864Z" fill="#3D5224"/>
<path d="M14.9575 20.8194C14.0427 21.8194 13.298 22.7556 13.298 22.9046C13.298 23.0535 13.4895 23.1812 13.7448 23.2237C14.0852 23.2663 14.5746 22.8407 15.7235 21.479C16.5533 20.479 17.2341 19.5216 17.2341 19.3514C17.2341 18.6492 16.5533 19.0748 14.9575 20.8194Z" fill="#3D5224"/>
<path d="M102.766 19.4572C102.766 19.9466 105.872 23.4785 106.319 23.4785C106.957 23.4785 106.511 22.4998 105.085 20.7977C103.553 18.9892 102.766 18.5423 102.766 19.4572Z" fill="#3D5224"/>
<path d="M9.93624 27.3516C7.87241 30.0962 7.12773 31.7771 7.9788 31.7771C8.3405 31.7771 11.0639 27.6494 11.0639 27.0962C11.0639 26.458 10.5107 26.5856 9.93624 27.3516Z" fill="#3D5224"/>
<path d="M108.936 27.2026C108.936 27.692 111.702 31.7771 112.043 31.7771C112.575 31.7771 112.362 31.1388 111.149 28.9899C110.149 27.2452 109.872 26.8835 109.447 26.8835C109.149 26.8835 108.936 27.0111 108.936 27.2026Z" fill="#3D5224"/>
<path d="M5.12772 35.9676C4.55326 37.074 3.21283 40.5634 3.31921 40.7336C3.5107 41.074 4.25538 40.9463 4.40432 40.5421C4.46815 40.3506 4.85113 39.3719 5.25538 38.3719C6.27666 35.9038 6.31921 35.6059 5.7873 35.6059C5.53198 35.6059 5.25538 35.7761 5.12772 35.9676Z" fill="#3D5224"/>
<path d="M114.043 35.99C114.043 36.224 114.383 37.3091 114.787 38.373C115.192 39.4368 115.532 40.4581 115.532 40.607C115.532 40.8623 115.979 41.1389 116.404 41.1389C116.809 41.1389 116.532 39.9049 115.681 37.841C115.085 36.4581 114.66 35.6921 114.404 35.6496C114.17 35.607 114.043 35.7134 114.043 35.99Z" fill="#3D5224"/>
<path d="M1.9575 45.2461C1.55324 45.7355 0.659626 50.3738 0.936222 50.544C1.51069 50.9482 1.76601 50.5653 2.17026 48.6929C2.80856 45.6716 2.87239 44.9695 2.51069 44.9695C2.3192 44.9695 2.08516 45.0972 1.9575 45.2461Z" fill="#3D5224"/>
<path d="M117.319 45.479C117.255 45.6492 117.404 46.6704 117.638 47.7343C117.894 48.8194 118.085 49.9045 118.085 50.1811C118.085 50.6704 118.596 51.0321 118.958 50.7981C119.532 50.4577 118.489 45.3513 117.809 45.2236C117.617 45.1811 117.383 45.2875 117.319 45.479Z" fill="#3D5224"/>
<path d="M0.255351 55.2236C-0.0637976 55.5427 -0.106351 60.6278 0.212798 60.8193C0.340458 60.9044 0.595777 60.8406 0.76599 60.6916C1.02131 60.4789 1.06386 59.9257 1.02131 57.7767C0.957479 55.1597 0.808543 54.6704 0.255351 55.2236Z" fill="#3D5224"/>
<path d="M119.085 55.1167C119 55.1805 118.936 56.4784 118.936 57.9465C118.936 60.0741 119 60.7124 119.255 60.9252C119.426 61.0528 119.66 61.1167 119.787 61.0316C120.106 60.8401 120.064 55.5422 119.745 55.2231C119.447 54.9252 119.277 54.9039 119.085 55.1167Z" fill="#3D5224"/>
<path d="M0.297946 65.4997C0.0639036 66.0742 0.659648 70.4571 1.00007 70.7337C1.61709 71.2444 1.76603 70.6486 1.51071 68.755C1.38305 67.7976 1.25539 66.6061 1.21284 66.138C1.19156 65.521 1.0639 65.2656 0.787308 65.2231C0.595818 65.1805 0.361776 65.3082 0.297946 65.4997Z" fill="#3D5224"/>
<path d="M118.83 65.6494C118.787 65.7983 118.638 66.8834 118.511 68.0536C118.383 69.2238 118.234 70.3302 118.17 70.5217C118.043 70.9472 118.681 71.2238 119.043 70.9259C119.34 70.6706 119.915 66.2451 119.723 65.7345C119.553 65.3302 118.957 65.2877 118.83 65.6494Z" fill="#3D5224"/>
<path d="M1.91492 75.5427C1.91492 75.8831 2.21279 77.1597 2.57449 78.415C3.12768 80.2874 3.31917 80.7129 3.6596 80.7129C3.87236 80.7129 4.10641 80.564 4.19151 80.3725C4.31917 80.032 3.08513 75.7129 2.70215 75.2235C2.34045 74.7554 1.91492 74.9257 1.91492 75.5427Z" fill="#3D5224"/>
<path d="M117.298 75.4364C116.957 75.9896 115.596 80.3939 115.681 80.6492C115.745 80.7981 115.915 80.9258 116.064 80.9258C116.511 80.9258 116.723 80.5002 117.511 78.0534C118.043 76.3726 118.191 75.6492 118.043 75.4577C117.766 75.1173 117.511 75.1173 117.298 75.4364Z" fill="#3D5224"/>
<path d="M5.31921 85.0954C5.31921 85.9252 7.46815 89.8613 7.93624 89.8613C8.55326 89.8613 8.34049 89.0315 7.17028 86.7762C6.02134 84.5847 5.31921 83.9252 5.31921 85.0954Z" fill="#3D5224"/>
<path d="M112.66 87.0956C111.532 89.3722 111.362 90.1594 112.106 90.0318C112.511 89.9466 114.66 85.9466 114.681 85.2232C114.681 84.9041 114.553 84.7552 114.255 84.7552C113.936 84.7552 113.575 85.2871 112.66 87.0956Z" fill="#3D5224"/>
<path d="M10.2341 93.9479C10.2553 94.6501 12.7873 98.0331 13.3617 98.1182C14.1915 98.2458 13.8936 97.416 12.4256 95.3948C10.9787 93.4586 10.1915 92.9267 10.2341 93.9479Z" fill="#3D5224"/>
<path d="M108.277 94.4793C108 94.9048 107.34 95.8197 106.766 96.4793C105.787 97.6708 105.596 98.3729 106.277 98.3729C106.83 98.3729 109.574 94.7772 109.574 94.0751C109.574 93.3942 108.787 93.6495 108.277 94.4793Z" fill="#3D5224"/>
<path d="M16.5958 101.735C16.5958 102.288 19.8086 105.395 20.3831 105.395C20.6384 105.395 20.8511 105.267 20.8511 105.118C20.8511 104.714 17.3831 101.352 16.9575 101.352C16.7448 101.352 16.5958 101.522 16.5958 101.735Z" fill="#3D5224"/>
<path d="M100.489 103.288C98.7448 104.99 98.4682 105.607 99.4469 105.607C100 105.607 103.192 102.48 103.192 101.927C103.192 101.097 102.234 101.586 100.489 103.288Z" fill="#3D5224"/>
<path d="M24.2554 108.352C24.2554 108.969 27.766 111.564 28.5958 111.564C29.4469 111.564 28.8298 110.735 26.9149 109.373C24.8086 107.884 24.2554 107.671 24.2554 108.352Z" fill="#3D5224"/>
<path d="M94.1702 108.691C93.8298 108.968 92.8936 109.564 92.1064 110.01C91.2979 110.457 90.6383 110.861 90.6383 110.925C90.6383 110.989 90.7447 111.181 90.8511 111.351C91.1277 111.776 91.8723 111.478 94.0426 110.053C95.1277 109.329 95.7447 108.776 95.7447 108.542C95.7447 107.989 94.9149 108.074 94.1702 108.691Z" fill="#3D5224"/>
<path d="M32.766 113.735C32.766 114.16 33.1064 114.373 34.9575 115.118C37.3405 116.118 38.1702 116.267 38.0426 115.671C37.9788 115.352 33.6809 113.267 33.0426 113.267C32.8937 113.267 32.766 113.479 32.766 113.735Z" fill="#3D5224"/>
<path d="M83.8937 114.415C82.0426 115.16 81.7235 115.352 81.7022 115.756C81.7022 116.501 82.4682 116.373 84.8937 115.267C86.4682 114.522 87.0214 114.16 87.0214 113.884C87.0214 113.288 86.3618 113.394 83.8937 114.415Z" fill="#3D5224"/>
<path d="M42.1703 117.457C42.2554 117.925 45.3617 119.032 46.6809 119.074C47.4256 119.117 47.5532 119.053 47.5532 118.691C47.5532 118.33 47.2128 118.181 45.4256 117.691C42.8086 117.011 42.0639 116.947 42.1703 117.457Z" fill="#3D5224"/>
<path d="M74.3192 117.693C72.5319 118.139 72.1277 118.31 72.1277 118.629C72.1277 119.288 72.6596 119.288 75.2128 118.671C77.4468 118.118 77.6596 118.033 77.6596 117.586C77.6596 116.948 77.1702 116.969 74.3192 117.693Z" fill="#3D5224"/>
<path d="M51.9149 119.5C51.9149 120.096 52.4681 120.245 55.0213 120.394C56.9575 120.521 57.6383 120.479 57.766 120.287C58.1064 119.713 57.3404 119.479 54.6383 119.33C52.3192 119.224 51.9149 119.245 51.9149 119.5Z" fill="#3D5224"/>
<path d="M63.9363 119.415C62.3405 119.543 62.2341 119.586 62.1703 120.054L62.0852 120.564L64.7235 120.415C67.298 120.266 68.1278 120.011 67.7873 119.458C67.6384 119.224 66.915 119.203 63.9363 119.415Z" fill="#3D5224"/>
<path d="M94.2076 46.3027L82.811 34.9053C81.7901 33.8852 80.0096 33.8852 78.9888 34.9053L67.5092 46.3856C66.4818 47.4123 66.0037 48.8828 66.2293 50.3184L67.2065 56.5076C67.3294 57.2854 67.0486 58.0595 66.457 58.5776L59.525 64.6452C59.3009 64.841 59.2791 65.1822 59.4748 65.4063C59.672 65.6311 60.0125 65.653 60.2359 65.4573L67.1672 59.3896C68.0403 58.6256 68.4529 57.4855 68.2724 56.3387L67.296 50.1504C67.1235 49.0546 67.4881 47.9326 68.2717 47.1489L79.752 35.6686C80.3654 35.0552 81.4357 35.0559 82.0491 35.6686L93.4458 47.0653C93.7522 47.3723 93.9209 47.7798 93.9209 48.2142C93.9209 48.6478 93.7522 49.0553 93.4458 49.3623L81.9647 60.842C81.1818 61.6263 80.0584 61.9923 78.964 61.8184L72.7625 60.839C71.6275 60.6601 70.4909 61.0668 69.7277 61.9269L63.85 68.5474C63.6513 68.7701 63.6724 69.1113 63.8944 69.3093C63.9969 69.4002 64.125 69.4453 64.2531 69.4453C64.4022 69.4453 64.5506 69.3842 64.6561 69.2641L70.5339 62.6435C71.0527 62.0592 71.8254 61.7842 72.5938 61.905L78.7952 62.8837C80.2337 63.1107 81.7013 62.6319 82.728 61.6053L94.2076 50.1249C94.7191 49.6148 95 48.936 95 48.2142C95 47.4916 94.7191 46.8135 94.2076 46.3027Z" fill="#3D5224"/>
<path d="M44.9748 78.8178L51.2308 73.3417C51.4549 73.1453 51.4775 72.8047 51.281 72.5799C51.0845 72.3551 50.744 72.334 50.5192 72.5297L44.2639 78.0058C43.2343 78.9073 42.6107 80.2068 42.5532 81.5718C42.4994 82.8721 42.9541 84.0908 43.8367 85.004C44.7317 85.9317 45.9738 86.457 47.2587 86.457C47.2966 86.457 47.3359 86.457 47.3737 86.4556C48.7002 86.4236 49.9611 85.832 50.8321 84.8374L56.7571 78.1636C56.955 77.941 56.9353 77.5997 56.712 77.4018C56.49 77.2046 56.1473 77.2236 55.9501 77.4469L50.023 84.1236C49.3375 84.9065 48.388 85.351 47.3468 85.3765C46.3048 85.4013 45.3357 85.0032 44.6124 84.2545C43.9386 83.556 43.5894 82.6196 43.6323 81.6169C43.6767 80.5459 44.1664 79.5257 44.9748 78.8178Z" fill="#3D5224"/>
<path d="M81.3992 40.8202L72.9123 49.3072C72.5798 49.6404 72.0006 49.6404 71.668 49.3072C71.3246 48.9637 71.3246 48.4057 71.668 48.0615L80.1542 39.576C80.3209 39.4094 80.5413 39.3185 80.7764 39.3185C81.0128 39.3185 81.2326 39.4094 81.3992 39.576C81.7427 39.9187 81.7427 40.4775 81.3992 40.8202ZM79.3917 38.8127L70.9048 47.2989C70.1408 48.0629 70.1408 49.3064 70.9048 50.0697C71.2744 50.4401 71.767 50.6445 72.2894 50.6445C72.8133 50.6445 73.3059 50.4401 73.6756 50.0697L82.1625 41.5835C82.9265 40.8195 82.9265 39.576 82.1625 38.8127C81.4218 38.0728 80.1324 38.0728 79.3917 38.8127Z" fill="#3D5224"/>
<path d="M85.5097 44.9301L77.0235 53.4163C76.6822 53.7597 76.122 53.7597 75.7778 53.4163C75.4358 53.0736 75.4358 52.5148 75.7778 52.1713L84.2647 43.6851C84.4314 43.5185 84.6526 43.4268 84.8876 43.4268C85.1226 43.4268 85.3438 43.5185 85.5097 43.6851C85.6763 43.8518 85.7687 44.0722 85.7687 44.308C85.7687 44.543 85.6763 44.7642 85.5097 44.9301ZM83.5022 42.9219L75.0153 51.4088C74.252 52.1728 74.252 53.4156 75.0153 54.1803C75.3973 54.5616 75.8986 54.7522 76.4006 54.7522C76.9027 54.7522 77.4048 54.5616 77.7868 54.1796L86.273 45.6934C86.6433 45.323 86.8471 44.8311 86.8471 44.308C86.8471 43.7841 86.6433 43.2922 86.273 42.9219C85.533 42.1819 84.2407 42.1819 83.5022 42.9219Z" fill="#3D5224"/>
<path d="M79.8088 56.2016L88.2957 47.7154C88.4623 47.5488 88.6835 47.4571 88.9186 47.4571C89.1536 47.4571 89.374 47.5488 89.5407 47.7154C89.7066 47.8813 89.799 48.1025 89.799 48.3375C89.799 48.5725 89.7066 48.7937 89.5407 48.9604L81.0538 57.4466C80.7205 57.7798 80.142 57.7798 79.8088 57.4466C79.6436 57.2799 79.5512 57.0594 79.5512 56.8244C79.5512 56.5887 79.6436 56.3675 79.8088 56.2016ZM78.4722 56.8244C78.4722 57.3476 78.6759 57.8395 79.0462 58.2091C79.4151 58.5795 79.9077 58.7832 80.4316 58.7832C80.9548 58.7832 81.4474 58.5795 81.817 58.2091L90.3032 49.7229C90.6736 49.3525 90.8773 48.8607 90.8773 48.3375C90.8773 47.8144 90.6736 47.3218 90.3032 46.9521C89.5647 46.2121 88.2717 46.2121 87.5332 46.9521L79.0462 55.4391C78.6759 55.8087 78.4722 56.3005 78.4722 56.8244Z" fill="#3D5224"/>
<path d="M26.5384 44.0493C26.6112 44.5987 26.7487 45.183 26.9655 45.8022C27.7041 47.905 29.2095 50.1613 31.2032 52.1542C34.4127 55.3645 44.3229 63.409 49.7043 66.2875L49.5493 66.4425C43.4148 64.8177 32.5114 57.3225 29.2735 54.0839C27.4261 52.2365 26.3027 49.8928 26.1091 47.4837C26.0102 46.262 26.163 45.1 26.5384 44.0493ZM33.5323 39.3016C33.7724 39.3016 34.0154 39.3118 34.2614 39.3314C36.6698 39.525 39.0142 40.6492 40.8608 42.4966C44.0995 45.7345 51.5947 56.6364 53.2202 62.7724L53.0652 62.9274C50.186 57.5452 42.1415 47.635 38.9319 44.4255C36.9383 42.4318 34.6819 40.9271 32.5791 40.1886C31.9635 39.9718 31.3822 39.8349 30.835 39.7622C31.6725 39.4639 32.5784 39.3016 33.5323 39.3016ZM72.2343 81.7021C72.2597 82.7418 71.8617 83.7132 71.113 84.4372C70.4145 85.111 69.4962 85.4595 68.4739 85.4173C67.4036 85.3729 66.3828 84.8832 65.6755 84.0741L50.6313 66.887L50.99 66.5276H50.9907L53.3053 64.213C53.306 64.2123 53.306 64.2123 53.306 64.2116L53.771 63.7474L70.982 79.0274C71.7642 79.712 72.2095 80.6616 72.2343 81.7021ZM27.8765 41.8621L51.0038 64.9887L50.5025 65.49C45.2964 62.8153 35.1978 54.6238 31.9657 51.3917C30.0841 49.5094 28.6696 47.3978 27.9835 45.4442C27.4574 43.9482 27.4312 42.6858 27.8765 41.8621ZM51.7657 64.2254L28.6391 41.0988C29.0196 40.8929 29.4882 40.7831 30.0375 40.7831C30.6771 40.7831 31.4171 40.9235 32.2218 41.2065C34.1748 41.8927 36.287 43.3064 38.1694 45.1888C41.4007 48.4201 49.5923 58.518 52.267 63.7248L51.7657 64.2254ZM49.5886 67.5652C49.6308 67.5754 49.6723 67.5805 49.7145 67.5805C49.7407 67.5805 49.764 67.5688 49.7902 67.5652L64.8628 84.7857C65.765 85.8146 67.0645 86.4381 68.4296 86.4956C68.4994 86.4985 68.5693 86.5 68.6384 86.5C69.8601 86.5 70.9973 86.0474 71.8624 85.2136C72.8171 84.2909 73.3461 83.0009 73.314 81.6752C73.2806 80.3494 72.6898 79.0885 71.6951 78.2175L54.3421 62.8109C52.8454 56.5672 44.9864 45.0949 41.6241 41.7333C39.5962 39.7047 37.011 38.47 34.3479 38.256C31.6463 38.0348 29.1949 38.8905 27.4312 40.6543C25.6682 42.4173 24.8169 44.873 25.033 47.5703C25.2476 50.2341 26.4824 52.8186 28.5103 54.8472C31.8733 58.2088 43.3457 66.0678 49.5886 67.5652Z" fill="#3D5224"/>
</g>
<defs>
<clipPath id="clip0_224_4306">
<rect width="120" height="120" fill="white" transform="translate(0 0.5)"/>
</clipPath>
</defs>
</svg>
