<svg width="19" height="14" viewBox="0 0 19 14" fill="none" xmlns="http://www.w3.org/2000/svg">
<path d="M9.03794 0.420115C8.63447 0.547135 8.34307 0.801175 8.17122 1.17103C8.08155 1.36529 8.06661 1.45122 8.0554 1.83228L8.04046 2.26938L7.90223 2.29553C4.33073 2.91942 1.51014 5.82967 0.968434 9.4348C0.938547 9.64775 0.912396 9.89058 0.912396 9.97651C0.912396 10.0662 0.897452 10.1558 0.882509 10.1782C0.867565 10.2044 0.721866 10.2268 0.550015 10.2343C0.258616 10.2492 0.232465 10.2567 0.120388 10.3725C0.000840197 10.4921 -0.00289568 10.4995 0.000840201 10.8208C0.00831197 11.8034 0.63594 12.7597 1.56618 13.2193C2.1938 13.5256 1.48025 13.4994 9.39285 13.4994C17.3055 13.4994 16.5882 13.5256 17.2195 13.2193C17.7762 12.9503 18.2282 12.4945 18.5084 11.9304C18.6989 11.5381 18.7774 11.2206 18.7849 10.8208C18.7886 10.4995 18.7849 10.4921 18.6653 10.3725C18.5495 10.2567 18.5271 10.2492 18.2282 10.2343C17.8621 10.2193 17.9032 10.2791 17.8397 9.67763C17.7575 8.88936 17.5035 7.96286 17.1635 7.20448C16.0465 4.72012 13.79 2.90074 11.145 2.3441L10.7452 2.26191L10.7303 1.82854C10.7191 1.45122 10.7041 1.36529 10.6145 1.17103C10.5024 0.928195 10.3119 0.711514 10.0989 0.573286C9.80753 0.386492 9.35549 0.319246 9.03794 0.420115ZM9.70666 1.41012C9.815 1.51847 9.82248 1.54835 9.83742 1.84349L9.84863 2.16104H9.39285H8.93707L8.94828 1.84722C8.96322 1.5745 8.97443 1.51847 9.05662 1.43254C9.1799 1.29805 9.26957 1.26069 9.44515 1.27937C9.54602 1.29058 9.62821 1.33167 9.70666 1.41012ZM10.1251 3.09874C12.8 3.36026 15.1573 5.02646 16.293 7.45852C16.6293 8.17581 16.8982 9.14714 16.9692 9.90179L16.9991 10.2305H9.39285H1.78659L1.81648 9.90179C2.00701 7.83958 3.15393 5.82594 4.87243 4.55574C6.37052 3.44244 8.27209 2.91569 10.1251 3.09874ZM17.8359 11.1981C17.8359 11.2355 17.7724 11.3924 17.6977 11.5418C17.5296 11.8781 17.2008 12.218 16.8796 12.3862C16.4088 12.6327 16.8646 12.6215 9.39285 12.6215C1.92108 12.6215 2.37686 12.6327 1.90614 12.3862C1.58485 12.218 1.2561 11.8781 1.08798 11.5418C1.01326 11.3924 0.949754 11.2355 0.949754 11.1981C0.949754 11.1309 1.17764 11.1272 9.39285 11.1272C17.6081 11.1272 17.8359 11.1309 17.8359 11.1981Z" fill="#464646"/>
</svg>
