<svg width="18" height="19" viewBox="0 0 18 19" fill="none" xmlns="http://www.w3.org/2000/svg">
<path d="M5.48441 0.614404C5.48441 0.744483 5.4141 0.916748 5.24887 1.18042C5.00277 1.57769 4.93949 1.80972 4.94301 2.30542C4.94652 2.81167 4.98168 2.9312 5.2559 3.41636C5.38949 3.64839 5.46332 3.82065 5.47738 3.92261L5.49496 4.08081H6.0223H6.54965L6.52855 3.85933C6.49691 3.53589 6.42309 3.32847 6.19809 2.93823L5.99418 2.58667V2.28784C5.99418 1.98901 5.99418 1.9855 6.17348 1.69019C6.39496 1.31753 6.4934 1.05737 6.52504 0.762061L6.54965 0.530029H6.01527H5.48441V0.614404Z" fill="#464646"/>
<path d="M8.54316 0.653223C8.54316 0.786817 8.49043 0.906348 8.28301 1.25088C8.0791 1.58486 8.00879 1.85908 8.00879 2.28799C8.00879 2.73799 8.07207 2.9665 8.33223 3.4165C8.44473 3.61338 8.52207 3.79268 8.53613 3.89814L8.56074 4.06338L9.08105 4.07393L9.59785 4.08447V3.89111C9.59785 3.62393 9.4959 3.32861 9.2709 2.92783C8.97207 2.404 8.96855 2.15791 9.25332 1.67979C9.46074 1.33174 9.56973 1.03643 9.59082 0.765723L9.6084 0.530176H9.07402H8.54316V0.653223Z" fill="#464646"/>
<path d="M11.6226 0.681201C11.6085 0.769092 11.5241 0.962451 11.4257 1.1312C11.1233 1.63745 11.0952 1.74292 11.0952 2.28784C11.0952 2.82925 11.1198 2.92065 11.4257 3.448C11.5347 3.63784 11.6085 3.81714 11.6226 3.91909L11.6472 4.08081H12.1745H12.7019L12.6772 3.85581C12.6456 3.54995 12.5507 3.29331 12.3327 2.91011C12.1604 2.61128 12.1464 2.56909 12.1358 2.323C12.1218 2.03823 12.1112 2.06987 12.4593 1.43706C12.5823 1.21206 12.6878 0.839404 12.6913 0.624951V0.530029H12.1675H11.6437L11.6226 0.681201Z" fill="#464646"/>
<path d="M0 6.04984C0 6.92523 0.0246094 7.11508 0.179297 7.44203C0.326953 7.75492 0.502734 7.94125 0.903516 8.21195C0.910547 8.21547 1.11094 10.5112 1.35352 13.3131C1.59609 16.1151 1.8 18.4284 1.81055 18.4495C1.83164 18.5163 16.1684 18.5163 16.1895 18.453C16.2 18.4284 16.4039 16.1151 16.6465 13.3131C16.8891 10.5112 17.0895 8.21547 17.0965 8.21195C17.4973 7.94125 17.673 7.75492 17.8207 7.44203C17.9754 7.11508 18 6.92523 18 6.04984V5.24125H9H0V6.04984ZM16.9383 6.60531C16.9277 6.8725 16.9137 6.93578 16.8328 7.05883C16.7766 7.1432 16.6781 7.23109 16.5867 7.2768L16.432 7.35063H9H1.56797L1.41328 7.2768C1.32187 7.23109 1.22344 7.1432 1.16719 7.05883C1.08633 6.93578 1.07227 6.8725 1.06172 6.60531L1.04766 6.29594H9H16.9523L16.9383 6.60531ZM3.97617 11.5518C4.12734 13.2745 4.25742 14.7791 4.26797 14.8987L4.29258 15.1202H3.42773C2.95312 15.1202 2.56641 15.1096 2.56641 15.0991C2.56641 15.085 2.43984 13.6155 2.28516 11.8295C2.13047 10.0471 2.00391 8.54594 2.00391 8.49672V8.40531L2.85469 8.41234L3.70898 8.42289L3.97617 11.5518ZM6.60938 8.47563C6.60938 8.60219 6.92227 14.6737 6.93984 14.9022L6.95742 15.1202H6.15234C5.70586 15.1202 5.34375 15.1166 5.34375 15.1096C5.34375 15.1061 5.21719 13.6401 5.0625 11.8541C4.90781 10.0682 4.78125 8.56352 4.78125 8.50727V8.40531H5.69531C6.5918 8.40531 6.60938 8.40531 6.60938 8.47563ZM9.98438 8.42992C9.98438 8.54242 9.66445 14.7299 9.64687 14.8987L9.62578 15.1202H8.82422H8.01914L8.00156 14.9338C7.98398 14.7862 7.66406 8.59516 7.66406 8.4475C7.66406 8.41586 7.9207 8.40531 8.82422 8.40531C9.46406 8.40531 9.98438 8.41586 9.98438 8.42992ZM13.2188 8.50375C13.2188 8.55648 13.0922 10.0647 12.9375 11.8506C12.7828 13.6401 12.6562 15.1061 12.6562 15.1096C12.6562 15.1166 12.2133 15.1202 11.6719 15.1202H10.6875L10.7086 14.867C10.7262 14.628 11.0391 8.56 11.0391 8.45453C11.0391 8.41234 11.2254 8.40531 12.1289 8.40531H13.2188V8.50375ZM15.9961 8.49672C15.9961 8.54594 15.8695 10.0471 15.7148 11.8295C15.5602 13.6155 15.4336 15.085 15.4336 15.0991C15.4336 15.1096 15.0434 15.1202 14.5687 15.1202H13.7039L13.725 14.969C13.7355 14.8881 13.8656 13.3975 14.0133 11.6573C14.1609 9.91703 14.2875 8.47211 14.2945 8.4475C14.3016 8.41586 14.5055 8.40531 15.1523 8.40531H15.9961V8.49672ZM4.4332 16.7901C4.46133 17.117 4.47891 17.3983 4.47187 17.4123C4.46484 17.4299 4.08164 17.4405 3.62109 17.4405H2.78086L2.76328 17.2893C2.73516 17.0959 2.67188 16.3541 2.67188 16.2522V16.1748L3.52617 16.1819L4.37695 16.1924L4.4332 16.7901ZM7.01016 16.3577C7.0207 16.4596 7.03828 16.7444 7.05234 16.9905L7.07344 17.4405H6.31406H5.5582L5.54062 17.3245C5.51602 17.1838 5.44922 16.3893 5.44922 16.2663V16.1748H6.21914H6.99258L7.01016 16.3577ZM9.56602 16.5088C9.55898 16.6811 9.54492 16.9588 9.53438 17.1241L9.50977 17.4229L8.83125 17.4334C8.30742 17.4405 8.15273 17.4334 8.13867 17.3983C8.11758 17.3315 8.05781 16.2311 8.07539 16.1995C8.08594 16.1854 8.42695 16.1784 8.83477 16.1819L9.57656 16.1924L9.56602 16.5088ZM12.5508 16.2663C12.5508 16.3823 12.484 17.1768 12.4594 17.3245L12.4418 17.4405H11.5102H10.575L10.5961 16.9553C10.6102 16.6916 10.6277 16.4069 10.6383 16.3225L10.6559 16.1748H11.6051H12.5508V16.2663ZM15.3281 16.2522C15.3281 16.3541 15.2648 17.0959 15.2367 17.2893L15.2191 17.4405H14.3824C13.9219 17.4405 13.5387 17.4334 13.5316 17.4264C13.5141 17.4088 13.602 16.2909 13.623 16.217C13.6336 16.1854 13.8375 16.1748 14.4844 16.1748H15.3281V16.2522Z" fill="#464646"/>
</svg>
