<svg width="137" height="137" viewBox="0 0 137 137" fill="none" xmlns="http://www.w3.org/2000/svg">
<g clip-path="url(#clip0_100_2800)">
<path d="M68.5 136.5C106.055 136.5 136.5 106.055 136.5 68.5C136.5 30.9446 106.055 0.5 68.5 0.5C30.9446 0.5 0.5 30.9446 0.5 68.5C0.5 106.055 30.9446 136.5 68.5 136.5Z" stroke="#DDDDDC"/>
<path d="M29.7221 58.0458C28.6042 58.1856 27.6261 58.8842 27.1071 59.9122C26.2787 61.5491 26.3585 63.8147 27.4365 69.6236C28.7639 76.7299 28.7539 77.8378 27.3766 77.8378C26.9674 77.8378 26.8875 77.7979 26.4983 77.3687C25.4802 76.2408 25.081 74.6339 24.1128 67.7572C22.9451 59.543 22.985 59.7825 22.7155 59.2336C22.5758 58.9641 22.3163 58.6347 22.1366 58.505C21.8173 58.2754 21.7674 58.2754 19.1125 58.2554C16.7171 58.2455 16.4975 58.2554 17.0864 58.3652C18.1743 58.5549 18.5635 58.9641 18.5635 59.9023C18.5635 60.1917 17.7551 64.743 16.767 70.0228C15.7789 75.2927 14.9804 79.6243 15.0004 79.6443C15.0203 79.6742 16.5374 79.6742 18.3739 79.6643L21.7075 79.6343L21.0787 79.295C19.4718 78.4266 18.4737 76.5602 18.0046 73.586C17.805 72.3384 17.775 68.7053 17.9547 67.1084C18.1543 65.2919 18.9727 59.4831 19.0526 59.2835C19.1224 59.1038 19.1524 59.1238 19.3919 59.4431C19.7512 59.9122 20.0007 60.9503 20.2503 63.0263C20.5098 65.1821 21.0986 69.5038 21.3681 71.3003C22.0169 75.622 23.2246 78.1671 25.0411 79.0554C25.5301 79.295 25.7198 79.3349 26.4983 79.3349C27.5662 79.3249 28.0952 79.1053 28.4844 78.5065C29.1831 77.4485 29.0933 76.0712 27.9055 69.903C27.177 66.1203 26.9474 64.4934 26.9474 63.1261C26.9474 61.7088 27.0771 60.9103 27.4265 60.2815C27.7858 59.6328 28.1451 59.3733 28.694 59.3733C29.6123 59.3733 30.0315 60.1019 30.281 62.0781C30.3708 62.7268 30.9397 66.9587 31.5585 71.47L32.6864 79.6842H34.3032H35.9301L35.8802 79.4048C35.8503 79.2551 35.471 76.4804 35.0318 73.2466C33.9839 65.4416 33.375 61.2996 33.1854 60.581C32.6464 58.5549 31.6184 57.7963 29.7221 58.0458Z" fill="#DDDDDC"/>
<path d="M38.9302 68.7294V79.4688H40.4772H42.0242V68.7993V58.1298L41.2058 58.0799C40.7467 58.0599 40.048 58.02 39.6588 58.01L38.9302 58V68.7294Z" fill="#DDDDDC"/>
<path d="M45.204 58.1672C45.0344 58.3468 45.0244 59.0056 45.0244 69.0063V79.6558H47.2701H49.5157L48.9269 78.4781C46.7211 74.0766 45.723 69.5153 45.4635 62.6585C45.3937 60.9119 45.4036 60.8919 45.6033 60.8919C45.8827 60.8919 46.4017 61.4409 46.8109 62.1595C46.9906 62.4789 48.0985 64.6048 49.2562 66.8804C52.9491 74.0965 54.2267 76.1725 56.2029 78.1687C56.9215 78.8873 57.3207 79.2067 57.8397 79.4562C58.5783 79.8255 59.4466 79.9553 59.9257 79.7656L60.1952 79.6558V68.9265V58.1971H57.9894C56.7818 58.1971 55.8036 58.2271 55.8236 58.267C55.8436 58.3169 56.133 58.9057 56.4724 59.5944C58.5583 63.8662 59.5864 68.5871 59.766 74.6555L59.8259 76.8912L59.4965 76.8213C58.8079 76.6915 57.9994 75.8232 56.642 73.7672C55.2846 71.7011 53.7077 68.8466 51.6117 64.6347C49.5557 60.5027 49.0566 59.6343 48.358 58.9257C47.7092 58.277 47.2102 58.0674 46.2221 58.0175C45.4735 57.9775 45.3537 57.9975 45.204 58.1672Z" fill="#DDDDDC"/>
<path d="M63.1953 68.7294V79.4587H66.2195C69.3933 79.4587 70.4214 79.3789 71.7189 79.0495C73.725 78.5405 75.5715 77.263 76.6694 75.6361C77.4978 74.3885 78.1465 72.542 78.3761 70.7156C78.5358 69.3981 78.436 66.7132 78.1765 65.5355C77.2482 61.3037 74.7131 58.8084 70.6709 58.1497C69.9722 58.0399 68.9143 58 66.469 58H63.1953V68.7294ZM70.1319 58.6288C73.4456 59.7067 75.1623 62.7908 75.3419 67.9808C75.4717 71.5839 74.8129 74.4783 73.4356 76.4046C72.0782 78.301 70.1319 79.1593 67.1676 79.1593H66.2893V68.7194V58.2695L67.8164 58.3194C69.0839 58.3693 69.4632 58.4192 70.1319 58.6288Z" fill="#DDDDDC"/>
<path d="M89.0427 58.0488C86.4377 58.2883 84.1122 59.9651 82.8346 62.5202C81.068 66.0334 80.9882 71.2733 82.635 74.9463C84.1022 78.21 86.9467 80.0365 90.3202 79.8568C91.6277 79.787 92.3164 79.6073 93.4742 79.0384C95.8396 77.8806 97.4665 75.4154 98.1751 71.942C98.4546 70.5547 98.4246 67.1213 98.1252 65.724C97.8358 64.3866 97.5863 63.6779 97.0473 62.5701C95.9694 60.3543 94.063 58.7574 91.8673 58.2284C90.8891 57.9989 90.1306 57.949 89.0427 58.0488ZM91.0389 58.4979C93.7436 59.466 95.4104 64.5363 95.0112 70.5347C94.7717 74.1478 93.9233 76.8027 92.536 78.2998C91.1187 79.8369 89.1126 79.9766 87.6254 78.6292C86.4477 77.5612 85.6093 75.6549 85.1103 72.9002C84.9106 71.8023 84.8807 71.3332 84.8907 68.9079C84.8907 66.0334 84.9705 65.215 85.4396 63.3685C86.2481 60.2046 87.8949 58.3282 89.8711 58.3282C90.2803 58.3282 90.7694 58.3981 91.0389 58.4979Z" fill="#DDDDDC"/>
<path d="M101.368 68.7294V79.4587H102.965H104.562V68.8691V58.2894L107.437 58.3194C110.211 58.3493 110.321 58.3593 110.83 58.5889C113.186 59.6568 113.285 63.6392 111.02 65.8749C110.211 66.6633 109.972 66.833 108.295 67.8311C106.888 68.6695 106.319 69.1585 106.199 69.6376C105.97 70.5559 108.275 74.668 110.94 78.0914C112.028 79.4787 111.988 79.4687 114.653 79.4388C116.02 79.4188 116.719 79.3789 116.589 79.319C116.11 79.0994 115.282 78.3708 114.483 77.4326C112.198 74.7777 109.263 70.3363 108.784 68.7893L108.614 68.2603L108.914 67.9908C109.074 67.8411 109.702 67.5217 110.311 67.2822C114.393 65.6653 115.851 64.0883 115.721 61.4234C115.691 60.7447 115.621 60.4154 115.421 59.9762C115.062 59.1877 114.333 58.4791 113.615 58.2096C113.046 58 112.926 58 107.207 58H101.368V68.7294Z" fill="#DDDDDC"/>
<path d="M119.604 68.7294V79.4587H121.201H122.798V68.7294V58H121.201H119.604V68.7294Z" fill="#DDDDDC"/>
<path d="M46 132.55C49.6 131.75 58 130.05 62.5 136.05" stroke="#DDDDDC" stroke-width="0.3"/>
<path d="M66.5 136.5C66.1 134.1 61 129.55 55.5 128.05C49.5 126.55 44 128.05 40 130.05" stroke="#DDDDDC" stroke-width="0.3"/>
<path d="M71.5 136.5C74 130.5 60.4997 128.55 58.4997 124.55C56.8997 120.55 57.5 120.05 62.4997 118.05C65.2999 117.25 68.5 117.55 73 116.05L81.3791 110.628M81.3791 110.628L81.5 110.55M81.3791 110.628C84.2758 108.565 89 108.05 96 111.55C99.2 112.75 101.5 110.383 104 109.55C106.4 108.75 108.833 109.883 110.5 111.05C112.5 113.55 109.333 116.883 107.5 117.55C104.5 119.55 104.167 124.05 104.5 126.55" stroke="#DDDDDC" stroke-width="0.3"/>
<path d="M76.9997 136C78.4997 127.5 71.3892 128.356 68.4997 126.55C65.2997 124.55 63.9997 123.05 66.4996 121.55C71.2996 119.55 73.9994 121.05 82.9994 115.55C86.1994 113.95 95.9994 119.55 99.4994 129.05" stroke="#DDDDDC" stroke-width="0.5"/>
<path d="M83 135.05C83 131.55 82.5 127.55 85.5 126.55C88.2441 125.452 91.5 129.55 94 131.55" stroke="#DDDDDC" stroke-width="0.3"/>
<path d="M31.5 125.5C37.5 117.5 42 109.5 58 114C66.8 116.8 75.6667 111.167 79 108C83.4 103.6 90.5 104.833 93.5 106C97.5 107.6 102.5 103.75 107 104.5C110 105 116.5 110 118.5 115" stroke="#DDDDDC" stroke-width="0.5"/>
<path d="M28 122.5C33 116 39 112.036 43.5 108.5C48 104.965 46.5 103.5 56 108.5C60.8 110.5 68 109.5 74 107C82 101.4 87.5 100.667 89.5 101C94.3 101.8 96.5 102.5 100 102C105.048 101.279 106 101.5 109.5 102.5C111.9 103.3 117.5 106.5 120.5 111.5" stroke="#DDDDDC" stroke-width="0.3"/>
<path d="M122.5 110C116.5 101.5 109 98.5 100 98.5C93.5 99 91 97 86.5 97C82 97.5 79.3942 101.15 76 102.693C75.0889 103.107 74.2209 103.303 73.5 103.5C68 105 60 106 58.5 101C57.9 99 58 93.5 49.5 93.5C39.5 95 40 104.5 38 108.5C35.6 112.5 28.5 115 25.5 121" stroke="#DDDDDC" stroke-width="0.3"/>
<path d="M124 107.5C119 100 109.5 97.5002 96 93.5002C88 90.0002 85 91.7503 81.5 94.5003C75.9 98.9002 74 101 70 99.5002C66.4 98.7002 64 94.7859 62.5 93.5002C59 90.5002 48.4337 91.1135 46.5 91.5002C41.5 92.5002 37.5 98.0002 36 101.5C34.4 106.3 31.3333 108.833 30 109.5C26 111.5 22.5 114.5 21 116.5" stroke="#DDDDDC" stroke-width="0.5"/>
<path d="M126 104C123.6 100.4 121 98 115 96.9997C101.5 94 97.278 87.3388 89 85.4997C84.5 84.5 81.8207 88.2305 78.5 92.4997C76.7175 94.7914 73 96.9998 70 94.9998C64 89.9998 60.5 87.9998 53.5 87.9998C45.5 87.9998 38.1667 93.9998 35.5 97.4998C30.7634 103.717 26 107.5 16 111" stroke="#DDDDDC" stroke-width="0.3"/>
<path d="M128.5 100.5C127 95.0006 119.5 95.5006 116.5 94.5005C113 93.0006 114.167 90.6672 116 89.5006C117.6 88.7006 121 89.0006 125.5 88.5005C127.488 88.2797 130 85.5006 130 83.5006C130 79.5006 130.5 75.0006 134 74.0006C137 73.1434 136.5 73.5006 136 73.5006" stroke="#DDDDDC" stroke-width="0.3"/>
<path d="M10 102.5C18 98.1 19.554 91 19.054 88C18.5 85.5 11.5539 86 9.05402 84C4.10435 80.04 1.5 72 1 67C1 61.5 2.05388 56 3.55402 53.5C5.5 51 7.72072 49.8333 9.55405 49C11.5541 48.0909 13.5541 45.5 13.5541 43C13.5541 39.0516 10.5539 35.5 10.0541 34" stroke="#DDDDDC" stroke-width="0.5"/>
<path d="M129.5 39.5C126 44.5 122.554 53 127.054 59C129.054 62.5 134.054 62.5 136.554 64.5" stroke="#DDDDDC" stroke-width="0.3"/>
<path d="M16 25.9999C18.4 31.5999 21 37.3332 22 39.4999C24 43.9996 26.5 45.9996 30 49.4999C35 52.9996 42 53.9996 47 49.4999C51 44.9996 56.3333 41.8332 60 39.4999C65.2 36.6999 65.8333 29.3332 65.5 25.9999C65.1 23.1999 64 17.4996 67 14.4999C68.8413 12.6588 69.5 11.9996 73 9.99987C77 7.49958 80 3.99957 81.5 6.49987C83.5 10.4996 85 14.1666 85.5 14.4999C87 16.4999 91 15.4999 94 17.9999C97.2 19.5999 98.5 24.9999 96.5 29.9999C95 35.9999 97.5 38.9999 102 42.4999C107.2 45.6999 113.5 44.4996 115 42.9999C116.5 41.5002 118 34.9996 123 28.4996" stroke="#DDDDDC" stroke-width="0.3"/>
<path d="M46.9998 4C43.4998 5 42.829 5.2478 40.5001 8C34.9998 14.5 26.4998 21.5 25.4999 23C22.4999 25.7 22.9998 34 27.0001 42C29.0002 46 31.9873 47.5 35.5001 49.6936C35.6766 49.8039 35.8438 49.9062 36.0001 50C38.9998 51.7998 44.1668 48.5 46.5001 46C49.3001 43 50.9998 40 59.0001 36.5C64.4998 33 62.3335 24.8333 62.0001 20C62.0001 16.4 63.5835 13 66.5001 10.5C70.0001 7.5 74.3335 3.16667 76.0001 0.5" stroke="#DDDDDC" stroke-width="0.5"/>
<path d="M56.4997 1.5C56.4997 6 51.0956 6.86756 45.9997 8C43.6092 8.53123 38.9998 15 35.4998 18C30.9998 21.5 27.7029 25.8905 26.9997 28C25.3997 34.4 30.9997 42.6667 33.9997 46C36.3998 48 40.3331 46.8333 41.9998 46C45.9998 42.4 51.3331 37.8333 53.4998 36C59.4998 31.5 59.4998 32 59.4998 20.5C59.4998 18.1 58.9998 9.5 63.4998 7.5C65.9998 6 68.9998 5.5 71.4998 0.5" stroke="#DDDDDC" stroke-width="0.3"/>
<path d="M43.5 13.4998C42.1666 15.1665 38.8 19.1998 36 21.9998C34.3333 23.4998 31.2828 27.0199 31 28.9998C30.5 32.4998 31 37.9998 34 41.4998C35.2857 42.9998 38.1 44.1998 40.5 42.9998C41.8333 41.8331 44.9 39.1998 46.5 37.9998C48.3333 36.9998 52.6 34.0998 55 30.4998C57 27.4998 57.9 20.9998 57 16.4998C56.6666 14.8331 55.4 11.2998 53 10.4998C51.3333 9.99973 47.1 9.89973 43.5 13.4998Z" stroke="#DDDDDC" stroke-width="0.3"/>
<path d="M44.4999 18.0002C43.4999 19.3335 40.9999 22.6002 38.9999 25.0002C30.4999 34.5 37 41.3948 40.4999 39C43.6666 36.8333 50.4999 31.9 52.4999 29.5C55.9999 23 53.8999 16.1001 51.4999 14.5002C48.4999 13 45.6999 16.0002 44.4999 18.0002Z" stroke="#DDDDDC" stroke-width="0.3"/>
<path d="M19 22C21.4 20.8 27 18 29.5 16C31.3213 14.543 35 10.6667 37 8" stroke="#DDDDDC" stroke-width="0.3"/>
<path d="M59 1C59 2.5 59.0761 3.65284 59.4999 4.5C60.1184 5.73688 65 3.5 67 2.5C67.8 2.1 69 1.16667 69.5 0.5" stroke="#DDDDDC" stroke-width="0.3"/>
<path d="M89.0002 3.5C88.5002 7.5 88.7612 9 91.2611 10C93.7611 11 97.2612 12.5 98.7612 17C99.8061 20.1349 102.261 23.5 100.761 26C99.1612 28.4 97.7612 33.5 100.261 37C102.261 39.8 105.761 41.5 108.761 41.5C110.361 41.5 112 41.5 113.261 40C114.368 38.6831 118 28.5 120 24.5" stroke="#DDDDDC" stroke-width="0.3"/>
<path d="M111.5 15.5001C108.7 14.7001 108 13.5001 106.261 13.9998C105.045 14.3493 105.261 17.0001 106.761 21.4998C107.855 24.7819 104.928 28.1665 103.761 29.4999C102.161 31.0999 102.261 34.9999 104.261 36.9999C105.461 38.5999 110.261 39.4999 112.261 35.9999C113.296 34.1885 116.761 24.4999 116.261 19.9999" stroke="#DDDDDC" stroke-width="0.3"/>
<path d="M87.0392 34C86.781 32.7089 87.8392 30.2 89.0392 29C90.0392 30.8333 91.9392 34.9 91.5392 36.5C91.3725 37 90.7392 37.9 89.5392 37.5C88.8725 37.1667 87.4392 36 87.0392 34Z" stroke="#DDDDDC" stroke-width="0.2"/>
<path d="M73.5002 22.5003C70.0002 20.5002 68.3855 21.2384 68.5002 22.5003C68.6668 24.3336 68.8002 28.3003 68.0002 29.5003C67.1668 31.3336 65.5002 35.2003 65.5002 36.0003C65 39.5003 66.7002 39.9002 67.5002 39.5002C69.0002 38.8335 72.4002 37.5003 74.0002 37.5002C78.0002 37.0002 79 35.0003 80.0002 30.0002C81.5002 24.5002 76.8646 24.4228 73.5002 22.5003Z" stroke="#DDDDDC" stroke-width="0.2"/>
<path d="M70.9998 26.0007C70.8332 26.6674 70.3998 28.5007 69.9998 30.5007C69.3617 33.6912 75.1998 35.3007 75.9998 34.5007C76.9998 33.5007 78.4998 28.5007 77.9998 26.5007C77.6799 25.2212 75.0731 24.5374 73.9998 24.0007C72.9998 23.5007 71.4998 23.4999 70.9998 26.0007Z" stroke="#DDDDDC" stroke-width="0.2"/>
<path d="M73 26.0003C72.5 27 72 29.3003 72 30.5003C72 32.5002 75.5 34.0002 76 28.5003C76.5 25.0001 73.5 25 73 26.0003Z" stroke="#DDDDDC" stroke-width="0.2"/>
<path d="M93.9997 32.0001C94.4997 33.0001 95.9998 36 95.4997 37.5001C93.4997 41.5 88.9998 41.5 87.9998 41C86.3331 40.1667 82.7998 38.1 81.9998 36.5C81.4998 34.5 82.4998 31 83.4998 28.5C84.4998 26 81.3199 23.6601 78.9998 22.5C76.9997 21.5 74.4998 19.5 72.4997 18C71.333 17.1667 69.2997 15.3 70.4997 14.5C71.9997 13.1667 75.4997 10.4 77.4997 10C79.9997 10 82.3331 13 83.9997 16C84.833 17.5 87.0997 20.5001 89.4997 20.5001C90.6664 20.3334 93.0997 20.3001 93.4997 21.5001C94.333 23.1667 95.8997 26.7001 95.4997 27.5001C94.9997 28.5001 93.4997 30.5 93.9997 32.0001Z" stroke="#DDDDDC" stroke-width="0.2"/>
<path d="M79.5001 21.9999C80.6668 22.4999 83.5002 23.5002 84.5001 24.9999C85.0002 25.6666 85.5002 27.1666 85.0002 28.4999C84.5002 29.8332 83.5002 32.9999 83.5002 34.9999C83.5002 35.9999 84.4002 37.2999 86.0002 38.4999C87.1669 39.1666 89.0002 40.9999 91.0002 39.9999C94.0002 38.9999 94.5002 36.9999 94.0002 34.9999C93.0002 32.9999 93.0002 31.6754 93.0002 30.4999C93.0002 27.4999 94.0002 23.4999 92.0002 21.9999C90.5002 20.9999 88.0002 22.4999 87.0002 21.4999C86.0002 20.9999 84.5002 17.9999 82.5002 15.4999C81.0002 12.5 78.5002 11.0002 77.0001 11.4999C74.5002 12.4999 72.0002 14.5002 73.0001 16.4999C74.0002 18.5002 77.5001 21.1999 79.5001 21.9999Z" stroke="#DDDDDC" stroke-width="0.2"/>
<path d="M79.5 13.5C77.5002 12.0002 76.3 13.1 75.5 13.5C73.0002 15.5001 75.4 18.3001 77 19.5001C78.5002 20.6252 82.0002 22.5002 83.5 22.0001C84.5002 21.5002 84.5002 20.0002 84 19.0001C83.1667 17.5001 81.3168 14.8625 79.5 13.5Z" stroke="#DDDDDC" stroke-width="0.2"/>
<path d="M79.9999 15.5001C78.4998 14 75.4999 13.5 75.9999 16.0001C76.4999 17.5001 78.7999 19.6001 79.9999 20.0001C81.3192 20.4399 82.4999 20.3001 82.4999 19.5001C82.4999 18.5001 81.1999 16.7001 79.9999 15.5001Z" stroke="#DDDDDC" stroke-width="0.2"/>
<path d="M87.5 25C86.9999 27.4998 85.9998 30.9998 85.5 33C85.3333 34.8333 85 36 88.5001 39.0002C89.6668 39.3335 92.2001 39.5002 93.0001 37.5002C93.5002 36 92.5826 34.8305 92.0001 32.5002C91.5002 30.5 92 27 91.0001 25.0002C89.921 22.8418 87.8776 23.7414 87.5 25Z" stroke="#DDDDDC" stroke-width="0.2"/>
</g>
<defs>
<clipPath id="clip0_100_2800">
<rect width="137" height="137" fill="white"/>
</clipPath>
</defs>
</svg>
