<svg width="101" height="139" viewBox="0 0 101 139" fill="none" xmlns="http://www.w3.org/2000/svg">
<path d="M46.25 75.05V59.9C68.3 59.9 78.8 51.65 78.8 36.5C78.8 24.05 71.75 16.85 51.8 16.85C31.1 16.85 20.3 25.25 20.3 48.35H3.5C3.5 17.6 18.8 0.499996 51.8 0.499996C72.95 0.499996 95.9 11.6 95.9 34.4C95.9 49.55 91.4 59 68.3 65.9V67.85C93.8 75.35 100.4 82.7 100.4 100.7C100.4 123.35 77.45 138.5 51.8 138.5C18.5 138.5 0.5 120.35 0.5 90.65H17.3C17.3 112.4 30.05 121.25 51.8 121.25C71.15 121.25 83.3 113.15 83.3 98.6C83.3 84.65 68.3 75.05 46.25 75.05Z" fill="#7B856F" fill-opacity="0.15"/>
</svg>
