<svg width="120" height="120" viewBox="0 0 120 120" fill="none" xmlns="http://www.w3.org/2000/svg">
<g clip-path="url(#clip0_2717_3343)">
<path d="M57.1212 0.268764C56.802 0.779402 57.4616 0.907062 60.1212 0.843232C62.3978 0.779402 62.8658 0.715573 62.8658 0.460254C62.8658 0.204934 62.3765 0.141105 60.0573 0.0772747C58.1637 0.0347216 57.2063 0.0985514 57.1212 0.268764Z" fill="#3D5224"/>
<path d="M49.6752 0.77809C48.973 0.948303 48.1645 1.07596 47.8666 1.09724C47.2071 1.09724 46.6113 1.88447 47.122 2.07596C47.3986 2.18235 51.6964 1.65043 52.5049 1.39511C52.6752 1.35256 52.7603 1.13979 52.7177 0.948303C52.6326 0.458941 51.3986 0.395111 49.6752 0.77809Z" fill="#3D5224"/>
<path d="M67.2898 0.798787C67.0983 1.30942 67.3962 1.43708 69.3536 1.71368C73.226 2.28815 73.0132 2.28815 72.9281 1.71368C72.8643 1.26687 72.6728 1.18177 70.843 0.862616C68.226 0.373255 67.46 0.373255 67.2898 0.798787Z" fill="#3D5224"/>
<path d="M39.7403 3.39358C37.719 4.07444 37.4424 4.22337 37.4424 4.6489C37.4424 5.30848 37.7615 5.2872 40.5275 4.30848C42.3786 3.6489 42.8679 3.39358 42.8679 3.09571C42.8679 2.47869 42.2296 2.54252 39.7403 3.39358Z" fill="#3D5224"/>
<path d="M77.0977 2.81995C77.0339 2.94761 77.0765 3.16037 77.2041 3.28803C77.4807 3.56463 81.0977 4.92633 81.9701 5.07527C82.5233 5.18165 82.5658 5.1391 82.502 4.69229C82.4594 4.26676 82.0977 4.07527 80.3105 3.39442C78.0765 2.56463 77.3531 2.43697 77.0977 2.81995Z" fill="#3D5224"/>
<path d="M30.6352 7.5855C29.5288 8.2238 28.5288 8.77699 28.4437 8.81955C28.1884 8.90465 28.5076 9.60678 28.8054 9.60678C28.9331 9.62806 30.0607 9.11742 31.3161 8.5004C33.1671 7.5855 33.5927 7.28763 33.5927 6.88338C33.6139 6.11742 32.8693 6.30891 30.6352 7.5855Z" fill="#3D5224"/>
<path d="M86.395 6.88338C86.395 7.28763 86.8205 7.5855 88.6716 8.5004C89.9269 9.11742 91.0758 9.62806 91.2248 9.60678C91.3524 9.60678 91.4801 9.41529 91.4801 9.20252C91.4801 8.88338 90.9056 8.45784 89.395 7.60678C87.0971 6.28763 86.3737 6.11742 86.395 6.88338Z" fill="#3D5224"/>
<path d="M22.6572 12.925C21.8487 13.5843 20.9551 14.2863 20.6785 14.499C20.1679 14.9031 20.2317 15.5625 20.7636 15.5625C21.2743 15.5625 24.8913 12.5421 24.8913 12.1167C24.8913 11.436 24.1892 11.6913 22.6572 12.925Z" fill="#3D5224"/>
<path d="M95.0958 12.1167C95.0958 12.5634 98.7128 15.5625 99.2448 15.5625C100.053 15.5625 99.4788 14.6691 97.7767 13.244C96.0107 11.7338 95.0958 11.3509 95.0958 12.1167Z" fill="#3D5224"/>
<path d="M14.9556 20.3475C14.0407 21.3472 13.296 22.2831 13.296 22.432C13.296 22.5809 13.4875 22.7085 13.7428 22.751C14.0833 22.7936 14.5726 22.3682 15.7216 21.0069C16.5513 20.0071 17.2322 19.05 17.2322 18.8798C17.2322 18.1779 16.5513 18.6033 14.9556 20.3475Z" fill="#3D5224"/>
<path d="M102.755 18.986C102.755 19.4752 105.861 23.0061 106.308 23.0061C106.946 23.0061 106.5 22.0277 105.074 20.326C103.542 18.518 102.755 18.0713 102.755 18.986Z" fill="#3D5224"/>
<path d="M9.93496 26.8782C7.87113 29.6221 7.12645 31.3025 7.97751 31.3025C8.33922 31.3025 11.0626 27.176 11.0626 26.623C11.0626 25.9849 10.5094 26.1125 9.93496 26.8782Z" fill="#3D5224"/>
<path d="M108.924 26.7293C108.924 27.2185 111.69 31.3025 112.03 31.3025C112.562 31.3025 112.349 30.6644 111.137 28.516C110.137 26.7719 109.86 26.4103 109.434 26.4103C109.137 26.4103 108.924 26.5379 108.924 26.7293Z" fill="#3D5224"/>
<path d="M5.12687 35.4917C4.5524 36.5978 3.21198 40.0862 3.31836 40.2563C3.50985 40.5967 4.25453 40.469 4.40347 40.0649C4.4673 39.8735 4.85027 38.895 5.25453 37.8953C6.27581 35.4279 6.31836 35.1301 5.78644 35.1301C5.53113 35.1301 5.25453 35.3003 5.12687 35.4917Z" fill="#3D5224"/>
<path d="M114.03 35.5137C114.03 35.7476 114.371 36.8324 114.775 37.896C115.179 38.9595 115.52 39.9805 115.52 40.1294C115.52 40.3846 115.966 40.6611 116.392 40.6611C116.796 40.6611 116.52 39.4274 115.669 37.3642C115.073 35.9816 114.647 35.2159 114.392 35.1733C114.158 35.1308 114.03 35.2371 114.03 35.5137Z" fill="#3D5224"/>
<path d="M1.95725 44.7672C1.553 45.2564 0.659382 49.8934 0.935978 50.0635C1.51045 50.4677 1.76577 50.0848 2.17002 48.213C2.80832 45.1926 2.87215 44.4907 2.51045 44.4907C2.31896 44.4907 2.08491 44.6183 1.95725 44.7672Z" fill="#3D5224"/>
<path d="M117.306 45.0003C117.242 45.1704 117.391 46.1914 117.625 47.2549C117.88 48.3397 118.072 49.4245 118.072 49.701C118.072 50.1903 118.582 50.5519 118.944 50.3179C119.519 49.9776 118.476 44.8726 117.795 44.745C117.604 44.7025 117.37 44.8088 117.306 45.0003Z" fill="#3D5224"/>
<path d="M0.254863 54.7418C-0.0642859 55.0608 -0.106839 60.1445 0.21231 60.3359C0.339969 60.421 0.595289 60.3572 0.765501 60.2083C1.02082 59.9956 1.06337 59.4426 1.02082 57.2942C0.956991 54.6779 0.808055 54.1887 0.254863 54.7418Z" fill="#3D5224"/>
<path d="M119.072 54.635C118.987 54.6988 118.923 55.9963 118.923 57.4639C118.923 59.591 118.987 60.2291 119.242 60.4418C119.412 60.5694 119.646 60.6333 119.774 60.5482C120.093 60.3567 120.051 55.0604 119.732 54.7413C119.434 54.4435 119.263 54.4223 119.072 54.635Z" fill="#3D5224"/>
<path d="M0.297397 65.0149C0.0633543 65.5892 0.659099 69.9709 0.999524 70.2475C1.61655 70.7579 1.76548 70.1624 1.51016 68.2693C1.3825 67.3121 1.25484 66.121 1.21229 65.653C1.19101 65.0362 1.06335 64.7809 0.786758 64.7384C0.595269 64.6958 0.361227 64.8235 0.297397 65.0149Z" fill="#3D5224"/>
<path d="M118.817 65.1648C118.774 65.3137 118.625 66.3985 118.498 67.5684C118.37 68.7383 118.221 69.8443 118.157 70.0358C118.03 70.4612 118.668 70.7377 119.03 70.4399C119.327 70.1847 119.902 65.7604 119.71 65.2499C119.54 64.8457 118.944 64.8032 118.817 65.1648Z" fill="#3D5224"/>
<path d="M1.91406 75.0559C1.91406 75.3962 2.21193 76.6724 2.57364 77.9274C3.12683 79.7992 3.31832 80.2246 3.65874 80.2246C3.87151 80.2246 4.10555 80.0757 4.19066 79.8843C4.31832 79.544 3.08428 75.226 2.7013 74.7368C2.33959 74.2689 1.91406 74.439 1.91406 75.0559Z" fill="#3D5224"/>
<path d="M117.285 74.9497C116.945 75.5027 115.583 79.9057 115.668 80.161C115.732 80.3099 115.902 80.4375 116.051 80.4375C116.498 80.4375 116.711 80.0121 117.498 77.566C118.03 75.8856 118.179 75.1624 118.03 74.971C117.753 74.6306 117.498 74.6306 117.285 74.9497Z" fill="#3D5224"/>
<path d="M5.31818 84.6055C5.31818 85.4351 7.46711 89.3701 7.9352 89.3701C8.55222 89.3701 8.33945 88.5406 7.16924 86.2859C6.0203 84.095 5.31818 83.4356 5.31818 84.6055Z" fill="#3D5224"/>
<path d="M112.648 86.605C111.52 88.8809 111.35 89.6679 112.094 89.5403C112.499 89.4552 114.648 85.4564 114.669 84.7332C114.669 84.4141 114.541 84.2652 114.243 84.2652C113.924 84.2652 113.562 84.797 112.648 86.605Z" fill="#3D5224"/>
<path d="M10.2321 93.456C10.2534 94.1579 12.7853 97.5399 13.3598 97.625C14.1896 97.7526 13.8917 96.9231 12.4236 94.9024C10.9768 92.9667 10.1896 92.435 10.2321 93.456Z" fill="#3D5224"/>
<path d="M108.265 93.9864C107.988 94.4118 107.329 95.3264 106.754 95.9858C105.776 97.177 105.584 97.8789 106.265 97.8789C106.818 97.8789 109.563 94.2842 109.563 93.5823C109.563 92.9016 108.776 93.1568 108.265 93.9864Z" fill="#3D5224"/>
<path d="M16.5936 101.24C16.5936 101.793 19.8063 104.898 20.3808 104.898C20.6361 104.898 20.8489 104.771 20.8489 104.622C20.8489 104.218 17.3808 100.857 16.9553 100.857C16.7425 100.857 16.5936 101.027 16.5936 101.24Z" fill="#3D5224"/>
<path d="M100.479 102.793C98.7341 104.494 98.4575 105.111 99.4363 105.111C99.9895 105.111 103.181 101.985 103.181 101.432C103.181 100.602 102.223 101.091 100.479 102.793Z" fill="#3D5224"/>
<path d="M24.252 107.856C24.252 108.472 27.7626 111.067 28.5924 111.067C29.4434 111.067 28.8264 110.238 26.9115 108.877C24.8051 107.388 24.252 107.175 24.252 107.856Z" fill="#3D5224"/>
<path d="M94.1598 108.194C93.8194 108.471 92.8832 109.066 92.096 109.513C91.2875 109.96 90.6279 110.364 90.6279 110.428C90.6279 110.492 90.7343 110.683 90.8407 110.854C91.1173 111.279 91.862 110.981 94.0322 109.556C95.1173 108.832 95.7343 108.279 95.7343 108.045C95.7343 107.492 94.9045 107.577 94.1598 108.194Z" fill="#3D5224"/>
<path d="M32.7617 113.235C32.7617 113.661 33.1021 113.874 34.9532 114.618C37.3362 115.618 38.166 115.767 38.0383 115.172C37.9745 114.852 33.6766 112.767 33.0383 112.767C32.8894 112.767 32.7617 112.98 32.7617 113.235Z" fill="#3D5224"/>
<path d="M83.8848 113.916C82.0338 114.661 81.7146 114.853 81.6934 115.257C81.6934 116.001 82.4593 115.874 84.8848 114.767C86.4593 114.023 87.0125 113.661 87.0125 113.384C87.0125 112.789 86.3529 112.895 83.8848 113.916Z" fill="#3D5224"/>
<path d="M42.165 116.957C42.2501 117.425 45.3565 118.532 46.6756 118.574C47.4203 118.617 47.548 118.553 47.548 118.191C47.548 117.83 47.2076 117.681 45.4203 117.191C42.8033 116.511 42.0586 116.447 42.165 116.957Z" fill="#3D5224"/>
<path d="M74.3106 117.193C72.5234 117.639 72.1191 117.81 72.1191 118.129C72.1191 118.788 72.6511 118.788 75.2042 118.171C77.4383 117.618 77.6511 117.533 77.6511 117.086C77.6511 116.448 77.1617 116.469 74.3106 117.193Z" fill="#3D5224"/>
<path d="M51.9089 119C51.9089 119.596 52.4621 119.745 55.0153 119.894C56.9515 120.021 57.6323 119.979 57.76 119.787C58.1004 119.213 57.3345 118.979 54.6323 118.83C52.3132 118.724 51.9089 118.745 51.9089 119Z" fill="#3D5224"/>
<path d="M63.9291 118.916C62.3334 119.043 62.227 119.086 62.1632 119.554L62.0781 120.064L64.7164 119.916C67.2908 119.767 68.1206 119.511 67.7802 118.958C67.6313 118.724 66.9079 118.703 63.9291 118.916Z" fill="#3D5224"/>
<path d="M50.1489 26.4466L39.9787 29.9147L33.4894 38.7232L27 47.5317V58.404V69.2551L33.766 77.9785L40.5106 86.7019L50.4043 90.0423C55.8511 91.8721 60.4894 93.3828 60.7234 93.3828C61.1915 93.404 81.4681 86.8721 81.7234 86.6381C81.8085 86.553 84.7447 82.6168 88.2553 77.8721L94.6596 69.2551V58.2551V47.2338L92.6809 44.6381C86.7234 36.787 81.3404 29.6806 81.2553 29.5317C81.0638 29.2764 61.3617 22.9785 60.7872 22.9998C60.5106 22.9998 55.7234 24.553 50.1489 26.4466ZM64.617 27.0211C66.4894 28.4679 68.0213 29.6806 68 29.7019C67.9575 29.7445 57.9149 29.1487 54.0426 28.8934L53.1064 28.8296L56.9149 26.4679C59 25.17 60.8298 24.1487 60.9574 24.2338C61.0851 24.2977 62.7234 25.553 64.617 27.0211ZM71.3617 27.3402C74.5319 28.3615 77.1915 29.2551 77.2766 29.3615C77.3617 29.4466 75.766 29.5743 73.7234 29.6594L70 29.8083L67.1702 27.6381C63.4681 24.787 63.4894 24.8083 64.6596 25.1913C65.1915 25.3615 68.2128 26.3402 71.3617 27.3402ZM56.0426 25.7019C55.9149 25.8083 54.8085 26.5317 53.5319 27.3189L51.2553 28.7232L48.3404 29.0423C46.7234 29.2125 45.4043 29.3189 45.3617 29.2977C45.3191 29.2551 55.8723 25.5742 56.1489 25.553C56.1915 25.5317 56.1489 25.6168 56.0426 25.7019ZM60.8298 30.3189C64.1702 30.5104 67.2128 30.7019 67.5957 30.7657C68.2553 30.8721 68.0851 31.0211 62.2766 35.6381C58.9574 38.2764 56.2128 40.4253 56.1489 40.4253C56.0426 40.4253 52.3192 30.2338 52.3192 29.936C52.3192 29.8296 52.8723 29.8083 53.5532 29.8721C54.2128 29.936 57.4894 30.1487 60.8298 30.3189ZM49.3404 30.2764C49.1702 30.4466 46.8723 32.3615 44.234 34.5743C41.5957 36.7657 39.234 38.7657 38.9787 38.9998C38.5532 39.3828 38.5957 39.0849 39.5745 35.2977C40.1702 33.0211 40.7234 31.0849 40.8298 30.9998C40.9787 30.8296 47.1915 30.0849 48.9149 30.0211C49.5319 29.9998 49.5957 30.0423 49.3404 30.2764ZM52.4468 33.6381C53.1064 35.4466 53.9574 37.8083 54.3617 38.9147L55.0851 40.8934L49.2128 40.7445C45.9787 40.6594 42.383 40.5317 41.2128 40.4466L39.0851 40.3189L45.1064 35.2764C48.4043 32.4891 51.1489 30.2551 51.1915 30.2764C51.2128 30.3189 51.7872 31.8296 52.4468 33.6381ZM82.1489 34.2551C83.0638 36.2977 83.7872 38.0211 83.766 38.1062C83.7234 38.17 81.0426 36.5955 77.7872 34.6168C74.5532 32.6381 71.9362 30.936 72.0213 30.8721C72.1702 30.7019 76.1277 30.4891 78.5745 30.5104L80.4894 30.5317L82.1489 34.2551ZM72.234 39.1487C73.6596 43.3615 74.8085 46.8083 74.7872 46.8083C74.6596 46.8083 57.1489 41.2977 57.1064 41.2338C57.0213 41.1274 69.4468 31.3189 69.5532 31.4253C69.5957 31.4679 70.8085 34.9572 72.234 39.1487ZM77.7021 35.8508C81.3192 38.0423 84.1915 39.9147 84.0851 39.9998C82.0426 41.8296 76.0426 46.5743 75.9149 46.4466C75.8298 46.3615 74.7021 43.17 73.4255 39.3615C72.1277 35.553 71 32.2551 70.9149 32.0423C70.8298 31.8083 70.8511 31.6806 70.9575 31.7445C71.0638 31.8083 74.1064 33.6381 77.7021 35.8508ZM38.0213 37.0636L37.1277 40.553L34.1489 42.553C32.5106 43.6594 30.8936 44.7657 30.5532 44.9785C30.1702 45.2338 31.5745 43.1913 34.3617 39.404C36.7872 36.1062 38.8085 33.4466 38.8511 33.4891C38.8936 33.5317 38.5319 35.1487 38.0213 37.0636ZM87 38.936C88.8936 41.4466 90.2766 43.3615 90.0638 43.17C85.5319 39.4253 85.6809 39.5743 84.5532 36.9998C83.383 34.3828 83.2766 34.1062 83.4255 34.2551C83.4894 34.3189 85.1064 36.4253 87 38.936ZM86.9787 48.8508C88.0426 53.0636 88.9149 56.5955 88.9149 56.6594C88.9149 56.7445 86.6809 55.1487 83.9787 53.1274C81.2553 51.1062 78.4681 49.0423 77.7872 48.553L76.5745 47.6381L80.6596 44.2551C82.9149 42.3828 84.8085 40.936 84.8936 41.0211C84.9575 41.1062 85.8936 44.6168 86.9787 48.8508ZM48.1702 41.7232C51.6596 41.8296 54.5745 41.9785 54.617 41.9998C54.6596 42.0636 44.4255 55.9998 43.4681 57.1913C43.4468 57.2338 43.0851 56.1913 42.6596 54.8508C42.234 53.5317 41.0851 49.9785 40.1064 46.9572L38.3191 41.4891H40.0638C41 41.4891 44.6596 41.5955 48.1702 41.7232ZM89.8936 44.5104C92.383 46.6594 93.3617 47.6168 93.2766 47.8508C92.0426 51.2338 90.0638 56.1274 89.9575 55.9998C89.766 55.8083 86.1489 41.4891 86.2766 41.4891C86.3404 41.4891 87.9575 42.8508 89.8936 44.5104ZM33.617 49.4891C32.0851 53.3402 30.8085 56.3402 30.7447 56.17C30.6809 55.9998 30.0851 54.0849 29.4468 51.936C28.5745 49.0636 28.3191 47.9572 28.4894 47.787C28.7872 47.4891 36.234 42.404 36.2979 42.4466C36.3404 42.4679 35.1277 45.6381 33.617 49.4891ZM65.7872 45.1274C70.4255 46.5743 74.234 47.8296 74.234 47.8934C74.234 47.9785 71.383 50.17 67.9149 52.7445C63.617 55.936 61.5532 57.3615 61.4468 57.17C61.2553 56.8508 56.7872 42.7232 56.7872 42.4679C56.7872 42.3828 56.9149 42.3402 57.0638 42.3828C57.1915 42.4466 61.1277 43.6594 65.7872 45.1274ZM42 56.2551L42.5106 57.936L37.1489 57.787C34.2128 57.7019 31.766 57.5955 31.7021 57.553C31.6596 57.5104 32.9574 54.0849 34.5745 49.9572L37.5319 42.4679L39.4894 48.5317C40.5745 51.8508 41.7021 55.3402 42 56.2551ZM58.1702 50.4891C59.4043 54.4679 60.4043 57.7445 60.3404 57.787C60.2979 57.8296 56.6809 57.8508 52.3404 57.8296L44.4043 57.7657L50 50.2551C53.7234 45.2126 55.6383 42.8296 55.7234 43.0211C55.8085 43.17 56.9149 46.5317 58.1702 50.4891ZM82.9362 53.7019C87.7021 57.2551 88.8723 58.2125 88.6596 58.404C88.5106 58.553 85.6383 60.787 82.2766 63.3828L76.1489 68.0849V58.3828C76.1489 49.0636 76.1702 48.7019 76.5319 48.9785C76.7447 49.1274 79.617 51.2551 82.9362 53.7019ZM75.0851 58.404C75.0851 63.6168 75.0426 67.8721 74.9787 67.8721C74.9362 67.8721 72.0213 65.7445 68.5106 63.1274L62.1489 58.3828L68.4468 53.6806C71.9149 51.0849 74.8298 48.9572 74.9362 48.9572C75.0213 48.936 75.0851 53.1913 75.0851 58.404ZM93.5532 62.2338L93.4894 66.17L92.0213 62.2764C91.2128 60.1487 90.5532 58.2977 90.5532 58.17C90.5532 58.0423 91.2128 56.2338 92.0213 54.1274L93.4894 50.3189L93.5532 54.2977C93.5745 56.5104 93.5745 60.0636 93.5532 62.2338ZM29.234 54.8934L30.2128 58.1913L29.1489 61.8083L28.0851 65.4253V58.4253C28.0638 54.5742 28.1064 51.4679 28.1489 51.5104C28.1915 51.553 28.6809 53.0849 29.234 54.8934ZM39.8936 58.8508L42.4468 58.9998L39.7872 65.9785C38.2979 69.8083 37.0426 72.8934 36.9574 72.8083C36.7872 72.6381 31.6809 59.17 31.6809 58.9147C31.6809 58.6806 36.2766 58.6594 39.8936 58.8508ZM60.4043 59.0849C60.4043 59.1487 59.3404 62.5955 58.0426 66.7232L55.6596 74.2338L54.9787 73.3402C53.6596 71.5743 44.7234 59.4679 44.5745 59.1913C44.4468 58.9998 46.0851 58.936 52.4043 58.936C56.8085 58.936 60.4043 58.9998 60.4043 59.0849ZM68.3617 64.3615C71.6809 66.8083 74.3404 68.8934 74.2553 68.9572C74.1915 69.0423 70.2553 70.3189 65.5106 71.8083C60.766 73.2977 56.8298 74.553 56.766 74.5955C56.6809 74.6381 57.234 72.787 57.9574 70.4679C58.7021 68.17 59.7872 64.7232 60.4043 62.8083C61.4468 59.5104 61.5106 59.3402 61.9149 59.6168C62.1277 59.7657 65.0426 61.8934 68.3617 64.3615ZM49.1064 67.2125C52.1489 71.3615 54.6383 74.787 54.5957 74.8083C54.5106 74.8934 37.9787 74.2338 37.8936 74.1487C37.8511 74.1062 38.9787 71.0211 40.4043 67.2977C41.8298 63.5743 43.0851 60.2977 43.1915 60.0211C43.2979 59.7445 43.4255 59.553 43.4681 59.5955C43.5106 59.6381 46.0426 63.0636 49.1064 67.2125ZM88.9149 59.9147C88.9149 60.1487 85.4681 75.2125 85.4043 75.2764C85.2766 75.4253 76.8936 69.3402 76.8936 69.1062C76.8936 68.8934 88.4468 59.8296 88.766 59.8083C88.8511 59.787 88.9149 59.8508 88.9149 59.9147ZM33.4468 66.7445C34.8085 70.3402 35.8936 73.2977 35.8723 73.3189C35.8298 73.3615 28.5532 69.0849 28.383 68.8934C28.234 68.7445 30.6596 60.2125 30.8511 60.2125C30.9149 60.2125 32.0851 63.1487 33.4468 66.7445ZM91.7872 64.6381L93.4255 68.9572L92.5106 69.7657C92 70.2125 90.4681 71.5317 89.0851 72.7232L86.617 74.8934L86.8936 73.6594C87.0638 72.9998 87.7234 70.0423 88.383 67.1274C89.6809 61.3402 89.9787 60.1274 90.0638 60.2338C90.1064 60.2764 90.8723 62.2551 91.7872 64.6381ZM73.766 73.0211C73.1915 74.7019 72 78.0636 71.1489 80.5317C70.2979 82.9785 69.5319 84.9785 69.4255 84.9572C68.9575 84.8508 57.0426 75.6381 57.2766 75.553C58.1064 75.2551 74.5745 70.0211 74.6809 70.0211C74.766 69.9998 74.3404 71.3615 73.766 73.0211ZM81 73.6168C83.0213 75.0423 84.617 76.2977 84.5106 76.404C84.234 76.6806 71 84.7019 70.9362 84.6381C70.8723 84.5743 74.766 73.2338 75.6383 70.8934L75.9787 69.9785L76.6383 70.4891C77.0213 70.7657 78.9787 72.17 81 73.6168ZM34.1915 73.6168L36.5745 74.9998L37.9574 79.1487C38.7234 81.4253 39.2128 83.1487 39.0426 82.9785C38.8723 82.8083 36.7234 80.0423 34.2553 76.8508C29.9787 71.3402 29.8298 71.0849 30.7872 71.6381C31.3404 71.9785 32.8723 72.8508 34.1915 73.6168ZM90.0213 73.6594C89.9149 73.8083 88.5106 75.7019 86.8936 77.8721C85.2979 80.0423 83.9362 81.8508 83.8936 81.8934C83.8511 81.9572 84.3617 80.787 85.0213 79.2977C86.234 76.6806 86.2979 76.5743 88.0638 75.0211C89.7021 73.5743 90.5957 72.9572 90.0213 73.6594ZM48.1277 75.6168C51.8511 75.787 54.9362 75.9572 54.9787 75.9785C55.0426 76.0636 51.3404 86.17 51.1915 86.2977C51.1277 86.3615 40.0851 76.7232 38.9149 75.6168C38.5319 75.2338 39.1064 75.2338 48.1277 75.6168ZM62.2766 80.9998L68.383 85.6381L60.4043 86.2125C56.0213 86.5104 52.383 86.7445 52.3404 86.7019C52.2553 86.6168 56 76.3828 56.1064 76.3828C56.1489 76.3828 58.9149 78.4679 62.2766 80.9998ZM44.5319 82.0211C48.7234 85.7019 49.5319 86.4891 49.1064 86.5317C48.8298 86.5743 46.9787 86.4253 44.9787 86.2125L41.3617 85.8508L39.8298 81.3828C39 78.9147 38.2979 76.8296 38.2979 76.7445C38.2766 76.5104 38.3404 76.5743 44.5319 82.0211ZM84.383 78.0211C84.3404 78.1274 83.5532 79.8934 82.6383 81.9572L80.9787 85.7445L77.8723 85.7232C76.1702 85.7019 74.1064 85.6381 73.3192 85.553L71.8723 85.4253L78 81.6594C83.8511 78.0849 84.5745 77.6594 84.383 78.0211ZM68.0426 86.7019C67.9787 86.7445 66.3404 88.0211 64.3617 89.5317L60.7872 92.2764L56.9574 90.0211C53.4894 87.9572 53.2128 87.7657 53.8511 87.7019C54.234 87.6594 57.5319 87.4253 61.1489 87.1487C64.7872 86.8721 67.8298 86.6381 67.9362 86.6168C68.0426 86.6168 68.0851 86.6381 68.0426 86.7019ZM77.0851 86.787C77.5745 86.8934 76.3404 87.3615 70.7447 89.17C66.9149 90.4253 63.8511 91.3828 63.9149 91.2977C64 91.2338 65.3617 90.1487 66.9575 88.8934L69.8723 86.6168L73.1702 86.6381C74.9787 86.6381 76.7447 86.7019 77.0851 86.787ZM49.383 87.6594C51.1277 87.8721 51.3617 87.9572 53.5319 89.2764C54.7872 90.0423 55.6383 90.6168 55.4043 90.553C55.1702 90.4891 53.0213 89.7657 50.617 88.9572C46.1489 87.4466 45.9787 87.2764 49.383 87.6594Z" fill="#3D5224"/>
</g>
<defs>
<clipPath id="clip0_2717_3343">
<rect width="120" height="120" fill="white"/>
</clipPath>
</defs>
</svg>
