<svg width="120" height="120" viewBox="0 0 120 120" fill="none" xmlns="http://www.w3.org/2000/svg">
<g clip-path="url(#clip0_2717_829)">
<path d="M57.1278 0.232631C56.8087 0.74327 57.4682 0.870929 60.1278 0.807099C62.4044 0.74327 62.8725 0.67944 62.8725 0.424121C62.8725 0.168802 62.3831 0.104972 60.064 0.0411419C58.1704 -0.00141126 57.2129 0.0624186 57.1278 0.232631Z" fill="#3D5224"/>
<path d="M49.681 0.742934C48.9789 0.913147 48.1704 1.04081 47.8725 1.06208C47.2129 1.06208 46.6172 1.84932 47.1278 2.04081C47.4044 2.14719 51.7023 1.61527 52.5108 1.35996C52.681 1.3174 52.7661 1.10464 52.7236 0.913147C52.6385 0.423785 51.4044 0.359955 49.681 0.742934Z" fill="#3D5224"/>
<path d="M67.2984 0.76363C67.1069 1.27427 67.4048 1.40193 69.3622 1.67852C73.2346 2.25299 73.0218 2.25299 72.9367 1.67852C72.8729 1.23172 72.6814 1.14661 70.8516 0.82746C68.2346 0.338098 67.4686 0.338098 67.2984 0.76363Z" fill="#3D5224"/>
<path d="M39.7453 3.3594C37.724 4.04026 37.4474 4.18919 37.4474 4.61472C37.4474 5.2743 37.7665 5.25302 40.5325 4.2743C42.3836 3.61472 42.8729 3.3594 42.8729 3.06153C42.8729 2.44451 42.2346 2.50834 39.7453 3.3594Z" fill="#3D5224"/>
<path d="M77.1065 2.78577C77.0426 2.91343 77.0852 3.12619 77.2129 3.25385C77.4895 3.53045 81.1065 4.89215 81.9788 5.04109C82.532 5.14747 82.5746 5.10492 82.5107 4.65811C82.4682 4.23258 82.1065 4.04109 80.3192 3.36024C78.0852 2.53045 77.3618 2.40279 77.1065 2.78577Z" fill="#3D5224"/>
<path d="M30.6391 7.5523C29.5327 8.1906 28.5327 8.74379 28.4476 8.78634C28.1923 8.87145 28.5115 9.57358 28.8093 9.57358C28.937 9.59485 30.0646 9.08422 31.32 8.46719C33.171 7.5523 33.5966 7.25443 33.5966 6.85017C33.6178 6.08421 32.8732 6.2757 30.6391 7.5523Z" fill="#3D5224"/>
<path d="M86.4048 6.85017C86.4048 7.25443 86.8303 7.5523 88.6813 8.46719C89.9367 9.08422 91.0856 9.59485 91.2345 9.57358C91.3622 9.57358 91.4899 9.38209 91.4899 9.16932C91.4899 8.85017 90.9154 8.42464 89.4048 7.57358C87.1069 6.25443 86.3835 6.08422 86.4048 6.85017Z" fill="#3D5224"/>
<path d="M22.6602 12.893C21.8517 13.5525 20.958 14.2547 20.6814 14.4674C20.1708 14.8717 20.2346 15.5312 20.7666 15.5312C21.2772 15.5312 24.8942 12.51 24.8942 12.0844C24.8942 11.4036 24.1921 11.6589 22.6602 12.893Z" fill="#3D5224"/>
<path d="M95.1074 12.0844C95.1074 12.5312 98.7244 15.5312 99.2564 15.5312C100.065 15.5312 99.4904 14.6376 97.7883 13.2121C96.0223 11.7015 95.1074 11.3185 95.1074 12.0844Z" fill="#3D5224"/>
<path d="M14.9584 20.3175C14.0435 21.3175 13.2988 22.2537 13.2988 22.4026C13.2988 22.5515 13.4903 22.6792 13.7456 22.7218C14.0861 22.7643 14.5754 22.3388 15.7244 20.9771C16.5541 19.9771 17.235 19.0196 17.235 18.8494C17.235 18.1473 16.5541 18.5728 14.9584 20.3175Z" fill="#3D5224"/>
<path d="M102.766 18.9553C102.766 19.4446 105.873 22.9766 106.32 22.9766C106.958 22.9766 106.511 21.9978 105.086 20.2957C103.554 18.4872 102.766 18.0404 102.766 18.9553Z" fill="#3D5224"/>
<path d="M9.9371 26.8496C7.87327 29.5943 7.12859 31.2751 7.97965 31.2751C8.34135 31.2751 11.0648 27.1475 11.0648 26.5943C11.0648 25.956 10.5116 26.0837 9.9371 26.8496Z" fill="#3D5224"/>
<path d="M108.937 26.7007C108.937 27.19 111.703 31.2751 112.043 31.2751C112.575 31.2751 112.362 30.6368 111.149 28.4879C110.149 26.7432 109.873 26.3815 109.447 26.3815C109.149 26.3815 108.937 26.5092 108.937 26.7007Z" fill="#3D5224"/>
<path d="M5.12821 35.4676C4.55374 36.574 3.21332 40.0634 3.3197 40.2336C3.51119 40.574 4.25587 40.4463 4.40481 40.0421C4.46864 39.8506 4.85162 38.8719 5.25587 37.8719C6.27715 35.4038 6.3197 35.1059 5.78779 35.1059C5.53247 35.1059 5.25587 35.2761 5.12821 35.4676Z" fill="#3D5224"/>
<path d="M114.043 35.488C114.043 35.7221 114.384 36.8072 114.788 37.871C115.192 38.9348 115.532 39.9561 115.532 40.105C115.532 40.3604 115.979 40.637 116.405 40.637C116.809 40.637 116.532 39.4029 115.681 37.3391C115.086 35.9561 114.66 35.1902 114.405 35.1476C114.171 35.105 114.043 35.2114 114.043 35.488Z" fill="#3D5224"/>
<path d="M1.95799 44.7441C1.55373 45.2335 0.660114 49.8718 0.93671 50.042C1.51118 50.4463 1.7665 50.0633 2.17075 48.191C2.80905 45.1697 2.87288 44.4676 2.51118 44.4676C2.31969 44.4676 2.08565 44.5952 1.95799 44.7441Z" fill="#3D5224"/>
<path d="M117.32 44.977C117.256 45.1472 117.405 46.1685 117.639 47.2323C117.894 48.3174 118.085 49.4025 118.085 49.6791C118.085 50.1685 118.596 50.5302 118.958 50.2961C119.532 49.9557 118.49 44.8493 117.809 44.7217C117.617 44.6791 117.383 44.7855 117.32 44.977Z" fill="#3D5224"/>
<path d="M0.25584 54.7216C-0.0633093 55.0408 -0.105863 60.1259 0.213286 60.3173C0.340946 60.4025 0.596265 60.3386 0.766478 60.1897C1.0218 59.9769 1.06435 59.4237 1.0218 57.2748C0.957967 54.6578 0.809031 54.1684 0.25584 54.7216Z" fill="#3D5224"/>
<path d="M119.086 54.6147C119.001 54.6785 118.937 55.9764 118.937 57.4445C118.937 59.5722 119.001 60.2105 119.256 60.4232C119.426 60.5509 119.66 60.6147 119.788 60.5296C120.107 60.3381 120.064 55.0402 119.745 54.7211C119.447 54.4232 119.277 54.4019 119.086 54.6147Z" fill="#3D5224"/>
<path d="M0.298373 64.9977C0.0643308 65.5722 0.660075 69.9552 1.0005 70.2318C1.61752 70.7424 1.76646 70.1467 1.51114 68.2531C1.38348 67.2956 1.25582 66.1041 1.21327 65.636C1.19199 65.019 1.06433 64.7637 0.787735 64.7211C0.596246 64.6786 0.362203 64.8062 0.298373 64.9977Z" fill="#3D5224"/>
<path d="M118.83 65.1474C118.788 65.2963 118.639 66.3814 118.511 67.5517C118.383 68.7219 118.235 69.8282 118.171 70.0197C118.043 70.4453 118.681 70.7219 119.043 70.424C119.341 70.1687 119.915 65.7431 119.724 65.2325C119.554 64.8283 118.958 64.7857 118.83 65.1474Z" fill="#3D5224"/>
<path d="M1.91504 75.0407C1.91504 75.3811 2.21291 76.6577 2.57461 77.9131C3.1278 79.7854 3.31929 80.2109 3.65972 80.2109C3.87249 80.2109 4.10653 80.062 4.19163 79.8705C4.31929 79.5301 3.08525 75.2109 2.70227 74.7216C2.34057 74.2535 1.91504 74.4237 1.91504 75.0407Z" fill="#3D5224"/>
<path d="M117.299 74.9345C116.958 75.4877 115.596 79.8919 115.682 80.1472C115.745 80.2962 115.916 80.4238 116.065 80.4238C116.511 80.4238 116.724 79.9983 117.511 77.5515C118.043 75.8706 118.192 75.1472 118.043 74.9557C117.767 74.6153 117.511 74.6153 117.299 74.9345Z" fill="#3D5224"/>
<path d="M5.31934 84.5934C5.31934 85.4232 7.46827 89.3594 7.93636 89.3594C8.55338 89.3594 8.34061 88.5296 7.1704 86.2743C6.02146 84.0828 5.31934 83.4232 5.31934 84.5934Z" fill="#3D5224"/>
<path d="M112.66 86.5936C111.532 88.8702 111.362 89.6575 112.107 89.5298C112.511 89.4447 114.66 85.4447 114.681 84.7213C114.681 84.4021 114.554 84.2532 114.256 84.2532C113.937 84.2532 113.575 84.7851 112.66 86.5936Z" fill="#3D5224"/>
<path d="M10.2341 93.446C10.2553 94.1481 12.7873 97.5311 13.3617 97.6162C14.1915 97.7439 13.8936 96.9141 12.4256 94.8928C10.9787 92.9566 10.1915 92.4247 10.2341 93.446Z" fill="#3D5224"/>
<path d="M108.277 93.9772C108 94.4028 107.341 95.3177 106.766 95.9772C105.787 97.1687 105.596 97.8708 106.277 97.8708C106.83 97.8708 109.575 94.2751 109.575 93.573C109.575 92.8921 108.787 93.1474 108.277 93.9772Z" fill="#3D5224"/>
<path d="M16.5967 101.233C16.5967 101.786 19.8094 104.893 20.3839 104.893C20.6392 104.893 20.852 104.765 20.852 104.616C20.852 104.212 17.3839 100.85 16.9584 100.85C16.7456 100.85 16.5967 101.02 16.5967 101.233Z" fill="#3D5224"/>
<path d="M100.49 102.786C98.7449 104.488 98.4683 105.105 99.447 105.105C100 105.105 103.192 101.978 103.192 101.425C103.192 100.595 102.234 101.084 100.49 102.786Z" fill="#3D5224"/>
<path d="M24.2559 107.85C24.2559 108.467 27.7665 111.062 28.5963 111.062C29.4473 111.062 28.8303 110.233 26.9154 108.871C24.8091 107.382 24.2559 107.169 24.2559 107.85Z" fill="#3D5224"/>
<path d="M94.1708 108.189C93.8303 108.466 92.8942 109.062 92.1069 109.508C91.2984 109.955 90.6389 110.359 90.6389 110.423C90.6389 110.487 90.7452 110.679 90.8516 110.849C91.1282 111.274 91.8729 110.976 94.0431 109.551C95.1282 108.828 95.7452 108.274 95.7452 108.04C95.7452 107.487 94.9155 107.572 94.1708 108.189Z" fill="#3D5224"/>
<path d="M32.7665 113.233C32.7665 113.658 33.1069 113.871 34.958 114.616C37.3409 115.616 38.1707 115.765 38.0431 115.169C37.9792 114.85 33.6814 112.765 33.0431 112.765C32.8941 112.765 32.7665 112.977 32.7665 113.233Z" fill="#3D5224"/>
<path d="M83.8946 113.913C82.0436 114.658 81.7244 114.85 81.7031 115.254C81.7031 115.999 82.4691 115.871 84.8946 114.764C86.4691 114.02 87.0223 113.658 87.0223 113.382C87.0223 112.786 86.3627 112.892 83.8946 113.913Z" fill="#3D5224"/>
<path d="M42.1707 116.957C42.2559 117.425 45.3622 118.532 46.6814 118.574C47.4261 118.617 47.5537 118.553 47.5537 118.191C47.5537 117.83 47.2133 117.681 45.4261 117.191C42.809 116.511 42.0644 116.447 42.1707 116.957Z" fill="#3D5224"/>
<path d="M74.3194 117.189C72.5322 117.636 72.1279 117.806 72.1279 118.125C72.1279 118.784 72.6598 118.784 75.213 118.167C77.4471 117.614 77.6598 117.529 77.6598 117.082C77.6598 116.444 77.1705 116.465 74.3194 117.189Z" fill="#3D5224"/>
<path d="M51.915 118.998C51.915 119.594 52.4682 119.743 55.0214 119.892C56.9576 120.02 57.6384 119.977 57.7661 119.785C58.1065 119.211 57.3406 118.977 54.6384 118.828C52.3193 118.722 51.915 118.743 51.915 118.998Z" fill="#3D5224"/>
<path d="M63.937 118.914C62.3413 119.041 62.2349 119.084 62.171 119.552L62.0859 120.062L64.7242 119.914C67.2987 119.765 68.1285 119.509 67.7881 118.956C67.6391 118.722 66.9157 118.701 63.937 118.914Z" fill="#3D5224"/>
<path d="M86.8838 62.6177C89.2981 47.7415 79.1957 33.7247 64.3195 31.3104C49.4432 28.8961 35.4265 38.9985 33.0121 53.8747C30.5978 68.751 40.7002 82.7677 55.5765 85.1821C70.4527 87.5964 84.4695 77.494 86.8838 62.6177Z" stroke="#3D5224" stroke-width="1.16498" stroke-miterlimit="10"/>
<path d="M54.9572 31.7266C56.2514 32.1899 56.7141 33.7823 56.7696 35.1558C56.8251 36.5294 56.6863 38.0159 57.4392 39.1661C58.6343 40.9911 61.3569 40.9745 63.0524 42.3474C64.3393 43.3891 64.88 45.1567 64.7584 46.8078C64.6368 48.459 63.9361 50.0136 63.1019 51.4434C62.4588 52.5466 61.7171 53.6319 61.4534 54.8819C61.1897 56.1318 61.5499 57.625 62.6643 58.249C63.8634 58.9199 65.3374 58.3567 66.7037 58.2113C69.5023 57.9132 72.1338 59.4467 74.5299 60.9234C76.0059 61.8329 77.6028 62.8997 78.0417 64.5773C78.7093 67.1327 76.4144 69.3729 75.0263 71.6202C73.2138 74.5544 72.886 78.3459 74.1181 81.561" stroke="#3D5224" stroke-width="1.16498" stroke-miterlimit="10" stroke-linecap="round" stroke-linejoin="round"/>
<path d="M77.9554 37.957C76.7445 39.3669 75.5335 40.7768 74.3226 42.1867C73.2154 43.4757 72.0362 45.1764 72.7256 46.7298C73.4931 48.4589 76.0392 48.6651 77.0452 50.2674C77.6481 51.2272 77.5522 52.4652 77.9508 53.5261C78.551 55.1257 80.2266 56.1212 81.9135 56.3942C83.6003 56.6671 85.3202 56.3426 86.9978 56.02" stroke="#3D5224" stroke-width="1.16498" stroke-miterlimit="10"/>
<path d="M39.0829 40.998C38.8389 42.2004 38.6466 43.4226 38.8165 44.6315C39.0148 46.0474 39.8113 47.4659 41.1339 48.0079C41.6191 48.2069 42.1605 48.2849 42.5901 48.5856C43.3483 49.1157 43.5254 50.1475 44.0324 50.9216C45.1323 52.6005 47.5105 52.7677 49.5061 52.5516C51.5016 52.3354 53.6968 51.958 55.3744 53.0605C56.3527 53.7037 56.9766 54.752 57.5431 55.7766C58.3304 57.2004 59.0905 58.8779 58.5075 60.3969C57.9219 61.9225 56.12 62.8247 55.8186 64.431C55.5945 65.626 56.3156 66.8205 57.2483 67.6004C58.181 68.3804 59.3205 68.8636 60.3457 69.5173C61.3709 70.1704 62.336 71.0832 62.5786 72.2743C62.8225 73.4714 62.3029 74.7841 62.7901 75.9045C63.194 76.8339 64.1669 77.3501 64.9687 77.9701C66.8321 79.4118 67.9611 81.7576 67.9247 84.1134" stroke="#3D5224" stroke-width="1.16498" stroke-miterlimit="10" stroke-linecap="round" stroke-linejoin="round"/>
<path d="M62.3711 23.0664C80.7104 24.3137 95.2007 39.5847 95.2007 58.2406C95.2007 61.3862 94.7889 64.4354 94.0162 67.3372" stroke="#3D5224" stroke-width="1.16498" stroke-miterlimit="10"/>
<path d="M92.0457 66.567L95.736 67.8982C96.4255 68.1468 96.5848 69.0471 96.0256 69.5203C94.342 70.9461 91.4693 73.2206 90.9214 72.6277C90.3681 72.0281 90.5962 69.0537 90.7779 67.3556C90.8434 66.7435 91.4667 66.3581 92.0457 66.567Z" stroke="#3D5224" stroke-width="1.16498" stroke-miterlimit="10"/>
<path d="M55.3942 93.0671C37.1772 90.6089 23.7306 74.4119 24.9654 55.797C25.1736 52.6586 25.7863 49.6431 26.7494 46.7988" stroke="#3D5224" stroke-width="1.16498" stroke-miterlimit="10"/>
<path d="M28.6633 47.6982L25.0694 46.125C24.3979 45.8309 24.2987 44.9227 24.8877 44.4871C26.6618 43.1757 29.6792 41.0968 30.1862 41.7248C30.6985 42.3593 30.2741 45.312 29.9806 46.9949C29.8749 47.6017 29.2271 47.9454 28.6633 47.6982Z" stroke="#3D5224" stroke-width="1.16498" stroke-miterlimit="10"/>
</g>
<defs>
<clipPath id="clip0_2717_829">
<rect width="120" height="120" fill="white"/>
</clipPath>
</defs>
</svg>
