<svg width="120" height="120" viewBox="0 0 120 120" fill="none" xmlns="http://www.w3.org/2000/svg">
<g clip-path="url(#clip0_2717_1487)">
<path d="M57.1278 0.232631C56.8087 0.74327 57.4682 0.870929 60.1278 0.807099C62.4044 0.74327 62.8725 0.67944 62.8725 0.424121C62.8725 0.168802 62.3831 0.104972 60.064 0.0411419C58.1704 -0.00141126 57.2129 0.0624186 57.1278 0.232631Z" fill="#3D5224"/>
<path d="M49.681 0.742934C48.9789 0.913147 48.1704 1.04081 47.8725 1.06208C47.2129 1.06208 46.6172 1.84932 47.1278 2.04081C47.4044 2.14719 51.7023 1.61527 52.5108 1.35996C52.681 1.3174 52.7661 1.10464 52.7236 0.913147C52.6385 0.423785 51.4044 0.359955 49.681 0.742934Z" fill="#3D5224"/>
<path d="M67.2984 0.76363C67.1069 1.27427 67.4048 1.40193 69.3622 1.67852C73.2346 2.25299 73.0218 2.25299 72.9367 1.67852C72.8729 1.23172 72.6814 1.14661 70.8516 0.82746C68.2346 0.338098 67.4686 0.338098 67.2984 0.76363Z" fill="#3D5224"/>
<path d="M39.7453 3.3594C37.724 4.04026 37.4474 4.18919 37.4474 4.61472C37.4474 5.2743 37.7665 5.25302 40.5325 4.2743C42.3836 3.61472 42.8729 3.3594 42.8729 3.06153C42.8729 2.44451 42.2346 2.50834 39.7453 3.3594Z" fill="#3D5224"/>
<path d="M77.1065 2.78577C77.0426 2.91343 77.0852 3.12619 77.2129 3.25385C77.4895 3.53045 81.1065 4.89215 81.9788 5.04109C82.532 5.14747 82.5746 5.10492 82.5107 4.65811C82.4682 4.23258 82.1065 4.04109 80.3192 3.36024C78.0852 2.53045 77.3618 2.40279 77.1065 2.78577Z" fill="#3D5224"/>
<path d="M30.6391 7.5523C29.5327 8.1906 28.5327 8.74379 28.4476 8.78634C28.1923 8.87145 28.5115 9.57358 28.8093 9.57358C28.937 9.59485 30.0646 9.08422 31.32 8.46719C33.171 7.5523 33.5966 7.25443 33.5966 6.85017C33.6178 6.08421 32.8732 6.2757 30.6391 7.5523Z" fill="#3D5224"/>
<path d="M86.4048 6.85017C86.4048 7.25443 86.8303 7.5523 88.6813 8.46719C89.9367 9.08422 91.0856 9.59485 91.2345 9.57358C91.3622 9.57358 91.4899 9.38209 91.4899 9.16932C91.4899 8.85017 90.9154 8.42464 89.4048 7.57358C87.1069 6.25443 86.3835 6.08422 86.4048 6.85017Z" fill="#3D5224"/>
<path d="M22.6602 12.893C21.8517 13.5525 20.958 14.2547 20.6814 14.4674C20.1708 14.8717 20.2346 15.5312 20.7666 15.5312C21.2772 15.5312 24.8942 12.51 24.8942 12.0844C24.8942 11.4036 24.1921 11.6589 22.6602 12.893Z" fill="#3D5224"/>
<path d="M95.1074 12.0844C95.1074 12.5312 98.7244 15.5312 99.2564 15.5312C100.065 15.5312 99.4904 14.6376 97.7883 13.2121C96.0223 11.7015 95.1074 11.3185 95.1074 12.0844Z" fill="#3D5224"/>
<path d="M14.9584 20.3175C14.0435 21.3175 13.2988 22.2537 13.2988 22.4026C13.2988 22.5515 13.4903 22.6792 13.7456 22.7218C14.0861 22.7643 14.5754 22.3388 15.7244 20.9771C16.5541 19.9771 17.235 19.0196 17.235 18.8494C17.235 18.1473 16.5541 18.5728 14.9584 20.3175Z" fill="#3D5224"/>
<path d="M102.766 18.9553C102.766 19.4446 105.873 22.9766 106.32 22.9766C106.958 22.9766 106.511 21.9978 105.086 20.2957C103.554 18.4872 102.766 18.0404 102.766 18.9553Z" fill="#3D5224"/>
<path d="M9.9371 26.8496C7.87327 29.5943 7.12859 31.2751 7.97965 31.2751C8.34135 31.2751 11.0648 27.1475 11.0648 26.5943C11.0648 25.956 10.5116 26.0837 9.9371 26.8496Z" fill="#3D5224"/>
<path d="M108.937 26.7007C108.937 27.19 111.703 31.2751 112.043 31.2751C112.575 31.2751 112.362 30.6368 111.149 28.4879C110.149 26.7432 109.873 26.3815 109.447 26.3815C109.149 26.3815 108.937 26.5092 108.937 26.7007Z" fill="#3D5224"/>
<path d="M5.12821 35.4676C4.55374 36.574 3.21332 40.0634 3.3197 40.2336C3.51119 40.574 4.25587 40.4463 4.40481 40.0421C4.46864 39.8506 4.85162 38.8719 5.25587 37.8719C6.27715 35.4038 6.3197 35.1059 5.78779 35.1059C5.53247 35.1059 5.25587 35.2761 5.12821 35.4676Z" fill="#3D5224"/>
<path d="M114.043 35.488C114.043 35.7221 114.384 36.8072 114.788 37.871C115.192 38.9348 115.532 39.9561 115.532 40.105C115.532 40.3604 115.979 40.637 116.405 40.637C116.809 40.637 116.532 39.4029 115.681 37.3391C115.086 35.9561 114.66 35.1902 114.405 35.1476C114.171 35.105 114.043 35.2114 114.043 35.488Z" fill="#3D5224"/>
<path d="M1.95799 44.7441C1.55373 45.2335 0.660114 49.8718 0.93671 50.042C1.51118 50.4463 1.7665 50.0633 2.17075 48.191C2.80905 45.1697 2.87288 44.4676 2.51118 44.4676C2.31969 44.4676 2.08565 44.5952 1.95799 44.7441Z" fill="#3D5224"/>
<path d="M117.32 44.977C117.256 45.1472 117.405 46.1685 117.639 47.2323C117.894 48.3174 118.085 49.4025 118.085 49.6791C118.085 50.1685 118.596 50.5302 118.958 50.2961C119.532 49.9557 118.49 44.8493 117.809 44.7217C117.617 44.6791 117.383 44.7855 117.32 44.977Z" fill="#3D5224"/>
<path d="M0.25584 54.7216C-0.0633093 55.0408 -0.105863 60.1259 0.213286 60.3173C0.340946 60.4025 0.596265 60.3386 0.766478 60.1897C1.0218 59.9769 1.06435 59.4237 1.0218 57.2748C0.957967 54.6578 0.809031 54.1684 0.25584 54.7216Z" fill="#3D5224"/>
<path d="M119.086 54.6147C119.001 54.6785 118.937 55.9764 118.937 57.4445C118.937 59.5722 119.001 60.2105 119.256 60.4232C119.426 60.5509 119.66 60.6147 119.788 60.5296C120.107 60.3381 120.064 55.0402 119.745 54.7211C119.447 54.4232 119.277 54.4019 119.086 54.6147Z" fill="#3D5224"/>
<path d="M0.298373 64.9977C0.0643308 65.5722 0.660075 69.9552 1.0005 70.2318C1.61752 70.7424 1.76646 70.1467 1.51114 68.2531C1.38348 67.2956 1.25582 66.1041 1.21327 65.636C1.19199 65.019 1.06433 64.7637 0.787735 64.7211C0.596246 64.6786 0.362203 64.8062 0.298373 64.9977Z" fill="#3D5224"/>
<path d="M118.83 65.1474C118.788 65.2963 118.639 66.3814 118.511 67.5517C118.383 68.7219 118.235 69.8282 118.171 70.0197C118.043 70.4453 118.681 70.7219 119.043 70.424C119.341 70.1687 119.915 65.7431 119.724 65.2325C119.554 64.8283 118.958 64.7857 118.83 65.1474Z" fill="#3D5224"/>
<path d="M1.91504 75.0407C1.91504 75.3811 2.21291 76.6577 2.57461 77.9131C3.1278 79.7854 3.31929 80.2109 3.65972 80.2109C3.87249 80.2109 4.10653 80.062 4.19163 79.8705C4.31929 79.5301 3.08525 75.2109 2.70227 74.7216C2.34057 74.2535 1.91504 74.4237 1.91504 75.0407Z" fill="#3D5224"/>
<path d="M117.299 74.9345C116.958 75.4877 115.596 79.8919 115.682 80.1472C115.745 80.2962 115.916 80.4238 116.065 80.4238C116.511 80.4238 116.724 79.9983 117.511 77.5515C118.043 75.8706 118.192 75.1472 118.043 74.9557C117.767 74.6153 117.511 74.6153 117.299 74.9345Z" fill="#3D5224"/>
<path d="M5.31934 84.5934C5.31934 85.4232 7.46827 89.3594 7.93636 89.3594C8.55338 89.3594 8.34061 88.5296 7.1704 86.2743C6.02146 84.0828 5.31934 83.4232 5.31934 84.5934Z" fill="#3D5224"/>
<path d="M112.66 86.5936C111.532 88.8702 111.362 89.6575 112.107 89.5298C112.511 89.4447 114.66 85.4447 114.681 84.7213C114.681 84.4021 114.554 84.2532 114.256 84.2532C113.937 84.2532 113.575 84.7851 112.66 86.5936Z" fill="#3D5224"/>
<path d="M10.2341 93.446C10.2553 94.1481 12.7873 97.5311 13.3617 97.6162C14.1915 97.7439 13.8936 96.9141 12.4256 94.8928C10.9787 92.9566 10.1915 92.4247 10.2341 93.446Z" fill="#3D5224"/>
<path d="M108.277 93.9772C108 94.4028 107.341 95.3177 106.766 95.9772C105.787 97.1687 105.596 97.8708 106.277 97.8708C106.83 97.8708 109.575 94.2751 109.575 93.573C109.575 92.8921 108.787 93.1474 108.277 93.9772Z" fill="#3D5224"/>
<path d="M16.5967 101.233C16.5967 101.786 19.8094 104.893 20.3839 104.893C20.6392 104.893 20.852 104.765 20.852 104.616C20.852 104.212 17.3839 100.85 16.9584 100.85C16.7456 100.85 16.5967 101.02 16.5967 101.233Z" fill="#3D5224"/>
<path d="M100.49 102.786C98.7449 104.488 98.4683 105.105 99.447 105.105C100 105.105 103.192 101.978 103.192 101.425C103.192 100.595 102.234 101.084 100.49 102.786Z" fill="#3D5224"/>
<path d="M24.2559 107.85C24.2559 108.467 27.7665 111.062 28.5963 111.062C29.4473 111.062 28.8303 110.233 26.9154 108.871C24.8091 107.382 24.2559 107.169 24.2559 107.85Z" fill="#3D5224"/>
<path d="M94.1708 108.189C93.8303 108.466 92.8942 109.062 92.1069 109.508C91.2984 109.955 90.6389 110.359 90.6389 110.423C90.6389 110.487 90.7452 110.679 90.8516 110.849C91.1282 111.274 91.8729 110.976 94.0431 109.551C95.1282 108.828 95.7452 108.274 95.7452 108.04C95.7452 107.487 94.9155 107.572 94.1708 108.189Z" fill="#3D5224"/>
<path d="M32.7665 113.233C32.7665 113.658 33.1069 113.871 34.958 114.616C37.3409 115.616 38.1707 115.765 38.0431 115.169C37.9792 114.85 33.6814 112.765 33.0431 112.765C32.8941 112.765 32.7665 112.977 32.7665 113.233Z" fill="#3D5224"/>
<path d="M83.8946 113.913C82.0436 114.658 81.7244 114.85 81.7031 115.254C81.7031 115.999 82.4691 115.871 84.8946 114.764C86.4691 114.02 87.0223 113.658 87.0223 113.382C87.0223 112.786 86.3627 112.892 83.8946 113.913Z" fill="#3D5224"/>
<path d="M42.1707 116.957C42.2559 117.425 45.3622 118.532 46.6814 118.574C47.4261 118.617 47.5537 118.553 47.5537 118.191C47.5537 117.83 47.2133 117.681 45.4261 117.191C42.809 116.511 42.0644 116.447 42.1707 116.957Z" fill="#3D5224"/>
<path d="M74.3194 117.189C72.5322 117.636 72.1279 117.806 72.1279 118.125C72.1279 118.784 72.6598 118.784 75.213 118.167C77.4471 117.614 77.6598 117.529 77.6598 117.082C77.6598 116.444 77.1705 116.465 74.3194 117.189Z" fill="#3D5224"/>
<path d="M51.915 118.998C51.915 119.594 52.4682 119.743 55.0214 119.892C56.9576 120.02 57.6384 119.977 57.7661 119.785C58.1065 119.211 57.3406 118.977 54.6384 118.828C52.3193 118.722 51.915 118.743 51.915 118.998Z" fill="#3D5224"/>
<path d="M63.937 118.914C62.3413 119.041 62.2349 119.084 62.171 119.552L62.0859 120.062L64.7242 119.914C67.2987 119.765 68.1285 119.509 67.7881 118.956C67.6391 118.722 66.9157 118.701 63.937 118.914Z" fill="#3D5224"/>
<path d="M50.5264 57.2833L50.523 57.2854C46.0488 60.1352 41.9883 64.2931 39.1221 68.596C36.2406 72.9219 34.642 77.2782 34.9119 80.5334C35.3078 84.7675 36.8058 87.3174 39.2739 88.4502C40.8818 89.1678 41.8804 89.4523 42.8678 89.3787C43.8695 89.3041 44.9581 88.8539 46.7235 87.841L46.7234 87.8409L46.7334 87.8355C48.6767 86.7623 50.0832 86.1357 51.5454 86.1357C53.0077 86.1357 54.4142 86.7623 56.3575 87.8354L56.3614 87.8376C58.303 88.9261 59.3119 89.3623 60.266 89.3623C61.2202 89.3623 62.2291 88.9261 64.1707 87.8376L64.177 87.8341L64.1835 87.8306C65.0749 87.3552 66.0289 86.9077 66.8632 86.5769C67.2801 86.4117 67.6754 86.2723 68.0234 86.1731C68.3576 86.0779 68.6983 86.0049 68.9866 86.0049C69.2687 86.0049 69.6047 86.0715 69.941 86.1625C70.2895 86.2568 70.6858 86.3908 71.105 86.5532C71.9434 86.878 72.9042 87.3285 73.8054 87.8392L73.8086 87.841C75.5739 88.8539 76.6626 89.3041 77.6643 89.3787C78.6517 89.4523 79.6503 89.1678 81.2582 88.4502C83.7261 87.3175 85.2241 84.7678 85.6201 80.5343C85.7947 78.3583 85.1664 75.7623 83.9154 73.0293C82.668 70.3039 80.8247 67.4935 78.6381 64.9097C74.2401 59.7128 68.5772 55.5731 63.7591 54.7689C61.9165 54.4765 60.9875 54.3424 60.0531 54.3491C59.1179 54.3559 58.1596 54.5039 56.262 54.825C54.8524 55.098 52.2663 56.1607 50.5264 57.2833ZM67.557 64.7189L67.557 64.7188L67.5642 64.7235C68.3298 65.2241 68.9149 65.6833 69.2657 66.3459C69.6138 67.0034 69.6807 67.7664 69.6807 68.7345C69.6807 69.4298 69.5867 70.2332 69.4338 70.9748C69.2833 71.7048 69.0643 72.4306 68.7878 72.9512C68.1126 74.2655 66.4014 76.1081 64.7474 77.5872C63.9071 78.3388 63.0513 79.0235 62.3059 79.5251C61.9341 79.7754 61.577 79.9888 61.2543 80.1422C60.9526 80.2857 60.6012 80.4164 60.266 80.4164C59.9309 80.4164 59.5795 80.2857 59.2777 80.1422C58.9551 79.9888 58.598 79.7754 58.2261 79.5251C57.4808 79.0235 56.625 78.3388 55.7847 77.5872C54.1306 76.1081 52.4194 74.2654 51.7442 72.9511C51.4677 72.4305 51.2488 71.7047 51.0983 70.9748C50.9454 70.2332 50.8514 69.4298 50.8514 68.7345C50.8514 67.7664 50.9183 67.0034 51.2664 66.3459C51.6171 65.6833 52.2023 65.2241 52.9679 64.7235L52.9679 64.7235L52.9751 64.7189C55.1699 63.3222 57.8815 63.6068 59.8946 65.2929C60.0331 65.406 60.1278 65.4672 60.1933 65.4995C60.2242 65.5147 60.2439 65.5211 60.2542 65.5238C60.2593 65.5251 60.2624 65.5256 60.2639 65.5258L60.266 65.526L60.2682 65.5258C60.2697 65.5256 60.2728 65.5251 60.2779 65.5238C60.2882 65.5211 60.3078 65.5147 60.3388 65.4995C60.4043 65.4672 60.499 65.406 60.6375 65.2929C62.6506 63.6068 65.3622 63.3222 67.557 64.7189Z" stroke="#3D5224" stroke-width="1.38806"/>
<rect x="42.9114" y="31.9181" width="11.3297" height="17.2646" rx="5.66484" transform="rotate(-10.7172 42.9114 31.9181)" stroke="#3D5224" stroke-width="1.38806"/>
<rect x="26.3592" y="43.5641" width="11.3297" height="17.2646" rx="5.66484" transform="rotate(-16.1043 26.3592 43.5641)" stroke="#3D5224" stroke-width="1.38806"/>
<rect x="-0.87777" y="0.439175" width="11.3297" height="17.2646" rx="5.66484" transform="matrix(-0.948767 -0.315977 -0.315977 0.948767 93.9281 43.1924)" stroke="#3D5224" stroke-width="1.38806"/>
<rect x="-0.810987" y="0.552862" width="11.3297" height="17.2646" rx="5.66484" transform="matrix(-0.982557 -0.185961 -0.185961 0.982557 74.7255 31.3666)" stroke="#3D5224" stroke-width="1.38806"/>
</g>
<defs>
<clipPath id="clip0_2717_1487">
<rect width="120" height="120" fill="white"/>
</clipPath>
</defs>
</svg>
