<svg width="120" height="120" viewBox="0 0 120 120" fill="none" xmlns="http://www.w3.org/2000/svg">
<g clip-path="url(#clip0_2717_471)">
<path d="M57.1277 0.234584C56.8086 0.745223 57.4681 0.872882 60.1277 0.809053C62.4043 0.745223 62.8724 0.681393 62.8724 0.426074C62.8724 0.170755 62.383 0.106925 60.0639 0.0430951C58.1703 0.000541866 57.2128 0.0643717 57.1277 0.234584Z" fill="#3D5224"/>
<path d="M49.6809 0.744887C48.9788 0.9151 48.1703 1.04276 47.8724 1.06404C47.2128 1.06404 46.6171 1.85127 47.1277 2.04276C47.4043 2.14914 51.7022 1.61723 52.5107 1.36191C52.6809 1.31936 52.766 1.10659 52.7234 0.9151C52.6383 0.425738 51.4043 0.361908 49.6809 0.744887Z" fill="#3D5224"/>
<path d="M67.2979 0.765583C67.1064 1.27622 67.4042 1.40388 69.3617 1.68048C73.234 2.25495 73.0213 2.25495 72.9362 1.68048C72.8723 1.23367 72.6808 1.14856 70.851 0.829413C68.234 0.340051 67.4681 0.340051 67.2979 0.765583Z" fill="#3D5224"/>
<path d="M39.7448 3.36136C37.7235 4.04221 37.4469 4.19114 37.4469 4.61668C37.4469 5.27625 37.766 5.25497 40.532 4.27625C42.3831 3.61668 42.8724 3.36136 42.8724 3.06349C42.8724 2.44646 42.2341 2.51029 39.7448 3.36136Z" fill="#3D5224"/>
<path d="M77.1065 2.78772C77.0426 2.91538 77.0852 3.12815 77.2129 3.25581C77.4895 3.5324 81.1065 4.8941 81.9788 5.04304C82.532 5.14942 82.5746 5.10687 82.5107 4.66006C82.4682 4.23453 82.1065 4.04304 80.3192 3.36219C78.0852 2.5324 77.3618 2.40474 77.1065 2.78772Z" fill="#3D5224"/>
<path d="M30.6384 7.55425C29.532 8.19255 28.532 8.74574 28.4469 8.7883C28.1916 8.8734 28.5107 9.57553 28.8086 9.57553C28.9363 9.59681 30.0639 9.08617 31.3192 8.46915C33.1703 7.55425 33.5958 7.25638 33.5958 6.85213C33.6171 6.08617 32.8724 6.27766 30.6384 7.55425Z" fill="#3D5224"/>
<path d="M86.4043 6.85213C86.4043 7.25638 86.8298 7.55425 88.6809 8.46915C89.9362 9.08617 91.0851 9.59681 91.234 9.57553C91.3617 9.57553 91.4894 9.38404 91.4894 9.17127C91.4894 8.85213 90.9149 8.42659 89.4043 7.57553C87.1064 6.25638 86.383 6.08617 86.4043 6.85213Z" fill="#3D5224"/>
<path d="M22.6597 12.8949C21.8512 13.5545 20.9576 14.2566 20.681 14.4694C20.1703 14.8736 20.2342 15.5332 20.7661 15.5332C21.2767 15.5332 24.8937 12.5119 24.8937 12.0864C24.8937 11.4055 24.1916 11.6609 22.6597 12.8949Z" fill="#3D5224"/>
<path d="M95.1064 12.0864C95.1064 12.5332 98.7235 15.5332 99.2554 15.5332C100.064 15.5332 99.4894 14.6396 97.7873 13.2141C96.0213 11.7034 95.1064 11.3204 95.1064 12.0864Z" fill="#3D5224"/>
<path d="M14.9575 20.3194C14.0427 21.3194 13.298 22.2556 13.298 22.4046C13.298 22.5535 13.4895 22.6812 13.7448 22.7237C14.0852 22.7663 14.5746 22.3407 15.7235 20.979C16.5533 19.979 17.2341 19.0216 17.2341 18.8514C17.2341 18.1492 16.5533 18.5748 14.9575 20.3194Z" fill="#3D5224"/>
<path d="M102.766 18.9572C102.766 19.4466 105.872 22.9785 106.319 22.9785C106.957 22.9785 106.511 21.9998 105.085 20.2977C103.553 18.4892 102.766 18.0423 102.766 18.9572Z" fill="#3D5224"/>
<path d="M9.93624 26.8516C7.87241 29.5962 7.12773 31.2771 7.9788 31.2771C8.3405 31.2771 11.0639 27.1494 11.0639 26.5962C11.0639 25.958 10.5107 26.0856 9.93624 26.8516Z" fill="#3D5224"/>
<path d="M108.936 26.7026C108.936 27.192 111.702 31.2771 112.043 31.2771C112.575 31.2771 112.362 30.6388 111.149 28.4899C110.149 26.7452 109.872 26.3835 109.447 26.3835C109.149 26.3835 108.936 26.5111 108.936 26.7026Z" fill="#3D5224"/>
<path d="M5.12772 35.4676C4.55326 36.574 3.21283 40.0634 3.31921 40.2336C3.5107 40.574 4.25538 40.4463 4.40432 40.0421C4.46815 39.8506 4.85113 38.8719 5.25538 37.8719C6.27666 35.4038 6.31921 35.1059 5.7873 35.1059C5.53198 35.1059 5.25538 35.2761 5.12772 35.4676Z" fill="#3D5224"/>
<path d="M114.043 35.49C114.043 35.724 114.383 36.8091 114.787 37.873C115.192 38.9368 115.532 39.9581 115.532 40.107C115.532 40.3623 115.979 40.6389 116.404 40.6389C116.809 40.6389 116.532 39.4049 115.681 37.341C115.085 35.9581 114.66 35.1921 114.404 35.1496C114.17 35.107 114.043 35.2134 114.043 35.49Z" fill="#3D5224"/>
<path d="M1.9575 44.7461C1.55324 45.2355 0.659626 49.8738 0.936222 50.044C1.51069 50.4482 1.76601 50.0653 2.17026 48.1929C2.80856 45.1716 2.87239 44.4695 2.51069 44.4695C2.3192 44.4695 2.08516 44.5972 1.9575 44.7461Z" fill="#3D5224"/>
<path d="M117.319 44.979C117.255 45.1492 117.404 46.1704 117.638 47.2343C117.894 48.3194 118.085 49.4045 118.085 49.6811C118.085 50.1704 118.596 50.5321 118.958 50.2981C119.532 49.9577 118.489 44.8513 117.809 44.7236C117.617 44.6811 117.383 44.7875 117.319 44.979Z" fill="#3D5224"/>
<path d="M0.255351 54.7236C-0.0637976 55.0427 -0.106351 60.1278 0.212798 60.3193C0.340458 60.4044 0.595777 60.3406 0.76599 60.1916C1.02131 59.9789 1.06386 59.4257 1.02131 57.2767C0.957479 54.6597 0.808543 54.1704 0.255351 54.7236Z" fill="#3D5224"/>
<path d="M119.085 54.6167C119 54.6805 118.936 55.9784 118.936 57.4465C118.936 59.5741 119 60.2124 119.255 60.4252C119.426 60.5528 119.66 60.6167 119.787 60.5316C120.106 60.3401 120.064 55.0422 119.745 54.7231C119.447 54.4252 119.277 54.4039 119.085 54.6167Z" fill="#3D5224"/>
<path d="M0.297946 64.9997C0.0639036 65.5742 0.659648 69.9571 1.00007 70.2337C1.61709 70.7444 1.76603 70.1486 1.51071 68.255C1.38305 67.2976 1.25539 66.1061 1.21284 65.638C1.19156 65.021 1.0639 64.7656 0.787308 64.7231C0.595818 64.6805 0.361776 64.8082 0.297946 64.9997Z" fill="#3D5224"/>
<path d="M118.83 65.1494C118.787 65.2983 118.638 66.3834 118.511 67.5536C118.383 68.7238 118.234 69.8302 118.17 70.0217C118.043 70.4472 118.681 70.7238 119.043 70.4259C119.341 70.1706 119.915 65.7451 119.723 65.2345C119.553 64.8302 118.958 64.7877 118.83 65.1494Z" fill="#3D5224"/>
<path d="M1.91492 75.0427C1.91492 75.3831 2.21279 76.6597 2.57449 77.915C3.12768 79.7874 3.31917 80.2129 3.6596 80.2129C3.87236 80.2129 4.10641 80.064 4.19151 79.8725C4.31917 79.532 3.08513 75.2129 2.70215 74.7235C2.34045 74.2554 1.91492 74.4257 1.91492 75.0427Z" fill="#3D5224"/>
<path d="M117.298 74.9364C116.957 75.4896 115.596 79.8939 115.681 80.1492C115.745 80.2981 115.915 80.4258 116.064 80.4258C116.511 80.4258 116.723 80.0002 117.511 77.5534C118.043 75.8726 118.191 75.1492 118.043 74.9577C117.766 74.6173 117.511 74.6173 117.298 74.9364Z" fill="#3D5224"/>
<path d="M5.31921 84.5954C5.31921 85.4252 7.46815 89.3613 7.93624 89.3613C8.55326 89.3613 8.34049 88.5315 7.17028 86.2762C6.02134 84.0847 5.31921 83.4252 5.31921 84.5954Z" fill="#3D5224"/>
<path d="M112.66 86.5956C111.532 88.8722 111.362 89.6594 112.106 89.5318C112.511 89.4466 114.66 85.4466 114.681 84.7232C114.681 84.4041 114.553 84.2552 114.255 84.2552C113.936 84.2552 113.575 84.7871 112.66 86.5956Z" fill="#3D5224"/>
<path d="M10.2341 93.4479C10.2553 94.1501 12.7873 97.5331 13.3617 97.6182C14.1915 97.7458 13.8936 96.916 12.4256 94.8948C10.9787 92.9586 10.1915 92.4267 10.2341 93.4479Z" fill="#3D5224"/>
<path d="M108.277 93.9792C108 94.4047 107.341 95.3196 106.766 95.9792C105.787 97.1707 105.596 97.8728 106.277 97.8728C106.83 97.8728 109.575 94.2771 109.575 93.5749C109.575 92.8941 108.787 93.1494 108.277 93.9792Z" fill="#3D5224"/>
<path d="M16.5958 101.235C16.5958 101.788 19.8086 104.895 20.3831 104.895C20.6384 104.895 20.8511 104.767 20.8511 104.618C20.8511 104.214 17.3831 100.852 16.9575 100.852C16.7448 100.852 16.5958 101.022 16.5958 101.235Z" fill="#3D5224"/>
<path d="M100.489 102.788C98.7448 104.49 98.4682 105.107 99.4469 105.107C100 105.107 103.192 101.98 103.192 101.427C103.192 100.597 102.234 101.086 100.489 102.788Z" fill="#3D5224"/>
<path d="M24.2554 107.852C24.2554 108.469 27.766 111.064 28.5958 111.064C29.4469 111.064 28.8298 110.235 26.9149 108.873C24.8086 107.384 24.2554 107.171 24.2554 107.852Z" fill="#3D5224"/>
<path d="M94.1702 108.191C93.8298 108.468 92.8936 109.064 92.1064 109.51C91.2979 109.957 90.6383 110.361 90.6383 110.425C90.6383 110.489 90.7447 110.681 90.8511 110.851C91.1277 111.276 91.8723 110.978 94.0426 109.553C95.1277 108.829 95.7447 108.276 95.7447 108.042C95.7447 107.489 94.9149 107.574 94.1702 108.191Z" fill="#3D5224"/>
<path d="M32.766 113.235C32.766 113.66 33.1064 113.873 34.9575 114.618C37.3405 115.618 38.1702 115.767 38.0426 115.171C37.9788 114.852 33.6809 112.767 33.0426 112.767C32.8937 112.767 32.766 112.979 32.766 113.235Z" fill="#3D5224"/>
<path d="M83.8936 113.915C82.0426 114.66 81.7234 114.852 81.7021 115.256C81.7021 116 82.4681 115.873 84.8936 114.766C86.4681 114.022 87.0213 113.66 87.0213 113.383C87.0213 112.788 86.3617 112.894 83.8936 113.915Z" fill="#3D5224"/>
<path d="M42.1703 116.957C42.2554 117.425 45.3617 118.532 46.6809 118.574C47.4256 118.617 47.5532 118.553 47.5532 118.191C47.5532 117.83 47.2128 117.681 45.4256 117.191C42.8086 116.511 42.0639 116.447 42.1703 116.957Z" fill="#3D5224"/>
<path d="M74.3192 117.193C72.5319 117.639 72.1277 117.81 72.1277 118.129C72.1277 118.788 72.6596 118.788 75.2128 118.171C77.4468 117.618 77.6596 117.533 77.6596 117.086C77.6596 116.448 77.1702 116.469 74.3192 117.193Z" fill="#3D5224"/>
<path d="M51.9149 119C51.9149 119.596 52.4681 119.745 55.0213 119.894C56.9575 120.021 57.6383 119.979 57.766 119.787C58.1064 119.213 57.3404 118.979 54.6383 118.83C52.3192 118.724 51.9149 118.745 51.9149 119Z" fill="#3D5224"/>
<path d="M63.9363 118.916C62.3405 119.043 62.2341 119.086 62.1703 119.554L62.0852 120.064L64.7235 119.916C67.298 119.767 68.1278 119.511 67.7873 118.958C67.6384 118.724 66.915 118.703 63.9363 118.916Z" fill="#3D5224"/>
<path d="M33.1644 95.0019C30.1437 95.0019 27.305 93.1922 25.9312 90.3911C24.2454 86.9545 25.17 82.8413 28.1776 80.3887L29.0892 79.6432L28.5322 79.1475C24.7838 75.8134 24.0133 72.1605 26.2468 68.2878C27.836 65.5333 30.1066 64.1355 32.9991 64.1355C34.2727 64.1355 35.68 64.4039 37.1838 64.9332L38.0824 65.25L38.023 64.2958C37.9914 63.7851 37.9506 63.2726 37.9116 62.7787C37.8243 61.6792 37.7426 60.6411 37.7482 59.5918C37.7631 56.4609 38.593 53.2945 40.2843 49.9119C40.8524 48.775 41.5282 47.6549 42.1817 46.5721C42.3265 46.3317 42.4732 46.0895 42.618 45.8472C42.8463 45.4651 43.0988 45.2713 43.368 45.2713C43.4312 45.2713 43.4961 45.2806 43.5648 45.3011C43.847 45.3831 44.0568 45.5024 44.1756 46.3168C44.3743 47.6904 44.6249 49.3155 44.9907 50.9481C45.1392 51.6116 45.5161 52.2023 45.8484 52.7242L45.9078 52.8174C46.3757 53.5535 47.1053 54.0064 48.0187 54.1275C48.1895 54.1499 48.3566 54.1611 48.5144 54.1611C49.7899 54.1611 50.5919 53.3858 50.6606 52.0868C50.7405 50.5586 50.6885 49.2447 50.4973 48.0687C49.983 44.8874 50.6495 41.9726 52.4782 39.4063C53.4269 38.0719 54.5074 36.7822 55.549 35.5354C55.9277 35.0825 56.3065 34.6297 56.6796 34.1749C58.0201 32.5405 59.4923 30.5911 60.0196 28.1142C60.1477 27.5141 60.1978 26.9065 60.2461 26.3195C60.2572 26.1778 60.2684 26.0381 60.2814 25.8983C60.3296 25.3634 60.5487 25.1882 60.7789 25.0783C60.8903 25.0242 60.9924 25 61.0908 25C61.2412 25 61.3935 25.0615 61.5531 25.1864C66.2354 28.8597 69.3581 33.0306 71.1014 37.9396C71.8571 40.0679 71.987 42.3211 71.4987 44.8277C71.3354 45.6645 71.3521 46.5162 71.3669 47.34V47.463C71.3892 48.6334 71.8236 49.3956 72.6554 49.7274C73.049 49.8839 73.4463 49.9641 73.8306 49.9641C74.4841 49.9641 75.0745 49.733 75.5405 49.2931C76.2646 48.611 76.7101 47.9755 76.9032 47.3493C77.2504 46.2199 77.4862 45.0514 77.7145 43.922C77.7795 43.6033 77.8426 43.2846 77.9095 42.9678C77.9633 42.7106 77.9633 42.4646 77.9633 42.2447C77.9633 42.1273 77.9633 42.0154 77.9726 41.9148C78.0246 41.3054 78.3179 41.1544 78.5686 41.0911C78.6502 41.0706 78.7301 41.0594 78.8025 41.0594C78.9009 41.0594 79.2035 41.0594 79.4578 41.5048C79.6881 41.9092 79.9238 42.3099 80.1578 42.7106C80.8206 43.8437 81.5075 45.0141 82.0663 46.2069C83.8022 49.9044 84.5857 53.5982 84.3945 57.184C84.3221 58.5258 84.0677 59.8994 83.8208 61.23C83.7112 61.8171 83.5998 62.4228 83.5033 63.0248C83.4829 63.1496 83.4439 63.2857 83.3938 63.4571C83.3659 63.5559 83.3344 63.6621 83.3028 63.7814L83.0466 64.7524L84.0306 64.566C84.2292 64.5287 84.4205 64.4915 84.6061 64.4542C84.9811 64.3797 85.3339 64.3107 85.6811 64.2567C86.0877 64.1952 86.4998 64.1635 86.9083 64.1635C90.833 64.1635 94.1841 67.0019 94.8748 70.9156C94.9026 71.0721 94.9565 71.2045 94.9992 71.3088V73.4148C94.9528 73.5043 94.9008 73.6179 94.8766 73.7614C94.5146 75.7873 93.5492 77.4273 91.9266 78.7748C91.83 78.8549 91.7465 78.9369 91.6573 79.0226C91.6184 79.0618 91.5757 79.1028 91.5292 79.1456L90.9816 79.6619L91.5812 80.1147C93.1185 81.274 94.1247 82.6922 94.6538 84.4515C94.7411 84.7441 94.8228 85.0386 94.9045 85.3349C94.936 85.4486 94.9658 85.5604 94.9973 85.6741V87.8807C94.9676 87.9963 94.9379 88.1118 94.9082 88.2274C94.8302 88.5349 94.756 88.8256 94.6687 89.1145C93.6142 92.6238 90.4729 94.9795 86.8507 94.9795C86.0969 94.9795 85.3339 94.877 84.5857 94.6757C81.9661 93.9712 79.3465 93.2668 76.725 92.5623C71.5155 91.1608 66.1277 89.7109 60.8253 88.2945C60.5858 88.2311 60.3278 88.1975 60.0623 88.1975C59.7968 88.1975 59.5313 88.2311 59.2918 88.2945C56.2897 89.094 53.2394 89.9159 50.2912 90.7098C45.3249 92.0479 40.1896 93.4308 35.1305 94.7484C34.4844 94.9161 33.8216 95.0019 33.1606 95.0019H33.1644ZM88.4845 80.5136C88.284 80.5136 88.0909 80.5359 87.9108 80.5807C86.1266 81.0224 84.478 81.4622 82.8739 81.93C82.4042 82.066 81.9252 82.3922 81.6208 82.7798C79.8682 85.02 79.7995 88.2441 81.4537 90.6166C82.6901 92.3908 84.7119 93.4494 86.8618 93.4494C87.5339 93.4494 88.2023 93.345 88.8447 93.1419C91.5701 92.2753 93.4749 89.6736 93.4786 86.8147C93.4824 84.1459 91.7855 81.6187 89.3496 80.6683C89.0897 80.5676 88.7889 80.5136 88.4826 80.5136H88.4845ZM33.2405 80.1744C29.6109 80.1744 26.6478 83.1358 26.6329 86.7737C26.6255 88.5367 27.3125 90.2029 28.5656 91.4683C29.8262 92.7412 31.4953 93.4438 33.2665 93.4475C36.8979 93.4475 39.8461 90.475 39.8517 86.8221C39.8554 85.0274 39.1741 83.3538 37.9357 82.107C36.6974 80.8602 35.0302 80.1744 33.2423 80.1725H33.2386L33.2405 80.1744ZM65.1716 86.6936L65.205 87.8285L65.658 87.9665L80.271 91.9081L79.6528 90.652C78.5908 88.4957 78.446 86.3562 79.1905 83.9204L79.5265 82.8245L65.1697 86.6954L65.1716 86.6936ZM86.899 65.7327C86.2269 65.7327 85.5344 65.8277 84.8437 66.0122C70.3514 69.9129 55.8609 73.8174 41.3704 77.7218C40.5795 77.9342 39.7923 78.1542 38.9828 78.3815C38.5985 78.4896 38.2105 78.5977 37.8151 78.7077L36.5173 79.0674L37.622 79.8389C41.1959 82.3325 42.3432 86.6749 40.4774 90.6427L39.9037 91.8634L41.5635 91.4348C41.7825 91.3789 41.9738 91.3304 42.165 91.2782L50.1668 89.1238C59.3178 86.66 68.467 84.1962 77.6161 81.7287C78.5611 81.4734 79.5061 81.2218 80.453 80.9702C83.2118 80.234 86.0635 79.4736 88.8539 78.6573C91.8374 77.7851 93.8852 74.6169 93.4192 71.5958C92.8771 68.0884 90.2556 65.7327 86.8953 65.7327H86.899ZM33.1829 65.7085C30.3869 65.7085 27.901 67.5274 26.995 70.2354C25.8866 73.5453 27.4498 77.0676 30.6283 78.4263C30.9272 78.5548 31.2892 78.6238 31.6494 78.6238C31.8759 78.6238 32.0913 78.5977 32.2899 78.5437C36.2463 77.4981 40.2602 76.4153 44.1441 75.3679C45.388 75.0325 46.6319 74.697 47.8758 74.3616C49.3815 73.9553 50.889 73.5527 52.3947 73.1502L54.9697 72.4606L54.9103 71.3554L54.5019 71.2194C54.4573 71.2045 54.4146 71.1896 54.3701 71.1746C54.2605 71.1355 54.1473 71.0964 54.021 71.0628C52.2406 70.5839 50.4601 70.1049 48.6797 69.6241C44.1404 68.3996 39.447 67.1342 34.8204 65.9191C34.282 65.7774 33.7306 65.7066 33.1811 65.7066L33.1829 65.7085ZM60.5599 51.4326L60.4986 52.1222C60.4615 52.5397 60.4299 52.9049 60.3946 53.2702C60.0809 56.3956 58.9502 58.565 56.8356 60.0969C55.9834 60.7138 55.2426 61.463 54.6931 62.0445C53.0389 63.7963 52.4281 65.8836 52.8737 68.2487C52.9591 68.6997 53.1577 69.2439 53.9523 69.4489C54.9976 69.7191 56.0595 70.0061 57.0844 70.2857C57.866 70.4981 58.6476 70.7106 59.4311 70.9175C59.665 70.979 59.8841 71.0106 60.0827 71.0106C60.2312 71.0106 60.3705 70.9939 60.5004 70.9603C63.0477 70.2894 65.5911 69.6017 68.0604 68.9177C68.4373 68.8134 68.8123 68.4742 68.9497 68.1145C69.6366 66.316 69.917 64.6667 69.8093 63.0732C69.4157 57.2585 65.6079 53.82 61.5513 50.9723L60.6583 50.3461L60.5599 51.4364V51.4326ZM41.7807 50.2045C41.6359 50.5642 41.4836 50.9239 41.3332 51.2835C40.9972 52.0812 40.65 52.9068 40.3585 53.7511C39.059 57.5213 38.89 61.0548 39.8406 64.5511C40.0764 65.4177 40.5498 65.8892 41.3759 66.0812C42.4453 66.3291 43.5296 66.6273 44.5785 66.9161C45.0222 67.0373 45.466 67.1603 45.9097 67.2795L51.2139 68.6978V67.8722C51.2139 67.766 51.2139 67.6672 51.2139 67.574C51.2139 67.382 51.2176 67.1994 51.2102 67.0168C51.1378 65.0711 51.6316 63.4329 52.6787 62.1507C53.6107 61.0082 54.7525 59.8639 56.0707 58.7513C57.6005 57.4579 58.4025 56.1328 58.5919 54.5785C58.7887 52.9609 58.837 51.3134 58.8834 49.7199L58.8964 49.2428C58.9149 48.6334 59.212 48.2252 59.6353 48.2252C59.7857 48.2252 59.9472 48.2718 60.118 48.3631C63.5731 50.2045 66.2094 52.3384 68.1755 54.8898C70.6781 58.1344 71.6788 61.4947 71.2351 65.1587C71.1813 65.6041 71.1126 66.0514 71.0402 66.5248C71.0049 66.7577 70.9678 66.9963 70.9306 67.2441L70.7914 68.2002C70.7914 68.2002 73.1325 67.5666 73.8324 67.3783C75.9638 66.8006 77.9782 66.2545 80.0334 65.7178C80.6832 65.5482 81.0842 65.1978 81.3367 64.5809C83.3585 59.631 83.4365 54.4164 81.5632 49.0788C81.3144 48.3725 81.0229 47.6773 80.7389 47.0064C80.6089 46.6989 80.479 46.3895 80.3527 46.0801L79.9573 45.1092L79.2852 45.9124C78.9677 46.2926 78.8526 46.6299 78.7616 46.9002L78.7486 46.9374C78.3792 48.0351 77.8686 49.2801 76.8884 50.2082C75.9731 51.0729 74.939 51.5128 73.812 51.5128C73.3479 51.5128 72.8596 51.4382 72.3583 51.2929C70.9603 50.8866 70.1435 49.8597 69.9337 48.242C69.7926 47.1611 69.8018 45.9534 69.9597 44.6544C69.9801 44.4848 70.0024 44.3152 70.0228 44.1456C70.1973 42.7702 70.3792 41.3482 70.0451 39.8703C69.3656 36.8512 67.832 33.9848 65.2217 30.8501C64.6777 30.1978 64.104 29.5921 63.4969 28.9529C63.2203 28.6603 62.9363 28.3621 62.6503 28.0527L61.8446 27.1805L61.5717 28.3379C60.8513 31.4018 59.0635 33.7351 57.4427 35.6826L56.9748 36.2455C55.7885 37.6675 54.5613 39.1398 53.4771 40.6904C52.0828 42.6864 51.5908 45.0383 52.0104 47.681C52.2554 49.2186 52.4708 50.8549 52.1942 52.4726C51.8414 54.5413 50.4824 55.7284 48.4662 55.7284C48.4272 55.7284 48.3882 55.7284 48.3474 55.7284C46.6486 55.6912 45.3564 54.942 44.5061 53.5069C44.0995 52.8229 43.7746 52.0812 43.4293 51.2947C43.2696 50.9332 43.1063 50.5586 42.9299 50.184L42.3172 48.8719L41.7733 50.2157L41.7807 50.2045Z" fill="#3D5224"/>
</g>
<defs>
<clipPath id="clip0_2717_471">
<rect width="120" height="120" fill="white"/>
</clipPath>
</defs>
</svg>
