<svg width="120" height="120" viewBox="0 0 120 120" fill="none" xmlns="http://www.w3.org/2000/svg">
<g clip-path="url(#clip0_2717_1255)">
<path d="M57.1278 0.232631C56.8087 0.74327 57.4682 0.870929 60.1278 0.807099C62.4044 0.74327 62.8725 0.67944 62.8725 0.424121C62.8725 0.168802 62.3831 0.104972 60.064 0.0411419C58.1704 -0.00141126 57.2129 0.0624186 57.1278 0.232631Z" fill="#3D5224"/>
<path d="M49.681 0.742934C48.9789 0.913147 48.1704 1.04081 47.8725 1.06208C47.2129 1.06208 46.6172 1.84932 47.1278 2.04081C47.4044 2.14719 51.7023 1.61527 52.5108 1.35996C52.681 1.3174 52.7661 1.10464 52.7236 0.913147C52.6385 0.423785 51.4044 0.359955 49.681 0.742934Z" fill="#3D5224"/>
<path d="M67.2986 0.76363C67.1071 1.27427 67.405 1.40193 69.3624 1.67852C73.2348 2.25299 73.022 2.25299 72.9369 1.67852C72.8731 1.23172 72.6816 1.14661 70.8518 0.82746C68.2348 0.338098 67.4688 0.338098 67.2986 0.76363Z" fill="#3D5224"/>
<path d="M39.7453 3.3594C37.724 4.04026 37.4474 4.18919 37.4474 4.61472C37.4474 5.2743 37.7665 5.25302 40.5325 4.2743C42.3836 3.61472 42.8729 3.3594 42.8729 3.06153C42.8729 2.44451 42.2346 2.50834 39.7453 3.3594Z" fill="#3D5224"/>
<path d="M77.1065 2.78577C77.0426 2.91343 77.0852 3.12619 77.2129 3.25385C77.4895 3.53045 81.1065 4.89215 81.9788 5.04109C82.532 5.14747 82.5746 5.10492 82.5107 4.65811C82.4682 4.23258 82.1065 4.04109 80.3192 3.36024C78.0852 2.53045 77.3618 2.40279 77.1065 2.78577Z" fill="#3D5224"/>
<path d="M30.6391 7.5523C29.5327 8.1906 28.5327 8.74379 28.4476 8.78634C28.1923 8.87145 28.5115 9.57358 28.8093 9.57358C28.937 9.59485 30.0646 9.08422 31.32 8.46719C33.171 7.5523 33.5966 7.25443 33.5966 6.85017C33.6178 6.08421 32.8732 6.2757 30.6391 7.5523Z" fill="#3D5224"/>
<path d="M86.4048 6.85017C86.4048 7.25443 86.8303 7.5523 88.6813 8.46719C89.9367 9.08422 91.0856 9.59485 91.2345 9.57358C91.3622 9.57358 91.4899 9.38209 91.4899 9.16932C91.4899 8.85017 90.9154 8.42464 89.4048 7.57358C87.1069 6.25443 86.3835 6.08422 86.4048 6.85017Z" fill="#3D5224"/>
<path d="M22.6602 12.893C21.8517 13.5525 20.958 14.2547 20.6814 14.4674C20.1708 14.8717 20.2346 15.5312 20.7666 15.5312C21.2772 15.5312 24.8942 12.51 24.8942 12.0844C24.8942 11.4036 24.1921 11.6589 22.6602 12.893Z" fill="#3D5224"/>
<path d="M95.1074 12.0844C95.1074 12.5312 98.7244 15.5312 99.2564 15.5312C100.065 15.5312 99.4904 14.6376 97.7883 13.2121C96.0223 11.7015 95.1074 11.3185 95.1074 12.0844Z" fill="#3D5224"/>
<path d="M14.9584 20.3175C14.0435 21.3175 13.2988 22.2537 13.2988 22.4026C13.2988 22.5515 13.4903 22.6792 13.7456 22.7218C14.0861 22.7643 14.5754 22.3388 15.7244 20.9771C16.5541 19.9771 17.235 19.0196 17.235 18.8494C17.235 18.1473 16.5541 18.5728 14.9584 20.3175Z" fill="#3D5224"/>
<path d="M102.766 18.9553C102.766 19.4446 105.873 22.9766 106.32 22.9766C106.958 22.9766 106.511 21.9978 105.086 20.2957C103.554 18.4872 102.766 18.0404 102.766 18.9553Z" fill="#3D5224"/>
<path d="M9.9371 26.8496C7.87327 29.5943 7.12859 31.2751 7.97965 31.2751C8.34135 31.2751 11.0648 27.1475 11.0648 26.5943C11.0648 25.956 10.5116 26.0837 9.9371 26.8496Z" fill="#3D5224"/>
<path d="M108.937 26.7007C108.937 27.19 111.703 31.2751 112.043 31.2751C112.575 31.2751 112.362 30.6368 111.15 28.4879C110.15 26.7432 109.873 26.3815 109.447 26.3815C109.15 26.3815 108.937 26.5092 108.937 26.7007Z" fill="#3D5224"/>
<path d="M5.12797 35.4676C4.5535 36.574 3.21308 40.0634 3.31946 40.2336C3.51095 40.574 4.25563 40.4463 4.40456 40.0421C4.46839 39.8506 4.85137 38.8719 5.25563 37.8719C6.27691 35.4038 6.31946 35.1059 5.78754 35.1059C5.53222 35.1059 5.25563 35.2761 5.12797 35.4676Z" fill="#3D5224"/>
<path d="M114.043 35.488C114.043 35.7221 114.384 36.8072 114.788 37.871C115.192 38.9348 115.532 39.9561 115.532 40.105C115.532 40.3604 115.979 40.637 116.405 40.637C116.809 40.637 116.532 39.4029 115.681 37.3391C115.086 35.9561 114.66 35.1902 114.405 35.1476C114.171 35.105 114.043 35.2114 114.043 35.488Z" fill="#3D5224"/>
<path d="M1.95823 44.7441C1.55398 45.2335 0.660359 49.8718 0.936954 50.042C1.51142 50.4463 1.76674 50.0633 2.171 48.191C2.80929 45.1697 2.87312 44.4676 2.51142 44.4676C2.31993 44.4676 2.08589 44.5952 1.95823 44.7441Z" fill="#3D5224"/>
<path d="M117.32 44.977C117.256 45.1472 117.405 46.1685 117.639 47.2323C117.894 48.3174 118.085 49.4025 118.085 49.6791C118.085 50.1685 118.596 50.5302 118.958 50.2961C119.532 49.9557 118.49 44.8493 117.809 44.7217C117.617 44.6791 117.383 44.7855 117.32 44.977Z" fill="#3D5224"/>
<path d="M0.25584 54.7216C-0.0633093 55.0408 -0.105863 60.1259 0.213286 60.3173C0.340946 60.4025 0.596265 60.3386 0.766478 60.1897C1.0218 59.9769 1.06435 59.4237 1.0218 57.2748C0.957967 54.6578 0.809031 54.1684 0.25584 54.7216Z" fill="#3D5224"/>
<path d="M119.085 54.6147C119 54.6785 118.937 55.9764 118.937 57.4445C118.937 59.5722 119 60.2105 119.256 60.4232C119.426 60.5509 119.66 60.6147 119.788 60.5296C120.107 60.3381 120.064 55.0402 119.745 54.7211C119.447 54.4232 119.277 54.4019 119.085 54.6147Z" fill="#3D5224"/>
<path d="M0.29819 64.9977C0.0641477 65.5722 0.659892 69.9552 1.00032 70.2318C1.61734 70.7424 1.76628 70.1467 1.51096 68.2531C1.3833 67.2956 1.25564 66.1041 1.21308 65.636C1.19181 65.019 1.06415 64.7637 0.787552 64.7211C0.596063 64.6786 0.36202 64.8062 0.29819 64.9977Z" fill="#3D5224"/>
<path d="M118.83 65.1474C118.788 65.2963 118.639 66.3814 118.511 67.5517C118.384 68.7219 118.235 69.8282 118.171 70.0197C118.043 70.4453 118.681 70.7219 119.043 70.424C119.341 70.1687 119.915 65.7431 119.724 65.2325C119.554 64.8283 118.958 64.7857 118.83 65.1474Z" fill="#3D5224"/>
<path d="M1.91602 75.0407C1.91602 75.3811 2.21389 76.6577 2.57559 77.9131C3.12878 79.7854 3.32027 80.2109 3.6607 80.2109C3.87346 80.2109 4.1075 80.062 4.19261 79.8705C4.32027 79.5301 3.08623 75.2109 2.70325 74.7216C2.34155 74.2535 1.91602 74.4237 1.91602 75.0407Z" fill="#3D5224"/>
<path d="M117.299 74.9345C116.958 75.4877 115.596 79.8919 115.682 80.1472C115.745 80.2962 115.916 80.4238 116.065 80.4238C116.511 80.4238 116.724 79.9983 117.511 77.5515C118.043 75.8706 118.192 75.1472 118.043 74.9557C117.767 74.6153 117.511 74.6153 117.299 74.9345Z" fill="#3D5224"/>
<path d="M5.31934 84.5934C5.31934 85.4232 7.46827 89.3594 7.93636 89.3594C8.55338 89.3594 8.34061 88.5296 7.1704 86.2743C6.02146 84.0828 5.31934 83.4232 5.31934 84.5934Z" fill="#3D5224"/>
<path d="M112.66 86.5936C111.533 88.8702 111.362 89.6575 112.107 89.5298C112.511 89.4447 114.66 85.4447 114.682 84.7213C114.682 84.4021 114.554 84.2532 114.256 84.2532C113.937 84.2532 113.575 84.7851 112.66 86.5936Z" fill="#3D5224"/>
<path d="M10.2341 93.446C10.2553 94.1481 12.7873 97.5311 13.3617 97.6162C14.1915 97.7439 13.8936 96.9141 12.4256 94.8928C10.9787 92.9566 10.1915 92.4247 10.2341 93.446Z" fill="#3D5224"/>
<path d="M108.277 93.9772C108 94.4028 107.341 95.3177 106.766 95.9772C105.787 97.1687 105.596 97.8708 106.277 97.8708C106.83 97.8708 109.575 94.2751 109.575 93.573C109.575 92.8921 108.787 93.1474 108.277 93.9772Z" fill="#3D5224"/>
<path d="M16.5957 101.233C16.5957 101.786 19.8085 104.893 20.3829 104.893C20.6383 104.893 20.851 104.765 20.851 104.616C20.851 104.212 17.3829 100.85 16.9574 100.85C16.7446 100.85 16.5957 101.02 16.5957 101.233Z" fill="#3D5224"/>
<path d="M100.49 102.786C98.7449 104.488 98.4683 105.105 99.447 105.105C100 105.105 103.192 101.978 103.192 101.425C103.192 100.595 102.234 101.084 100.49 102.786Z" fill="#3D5224"/>
<path d="M24.2559 107.85C24.2559 108.467 27.7665 111.062 28.5963 111.062C29.4473 111.062 28.8303 110.233 26.9154 108.871C24.8091 107.382 24.2559 107.169 24.2559 107.85Z" fill="#3D5224"/>
<path d="M94.1707 108.189C93.8303 108.466 92.8941 109.062 92.1069 109.508C91.2984 109.955 90.6388 110.359 90.6388 110.423C90.6388 110.487 90.7452 110.679 90.8516 110.849C91.1282 111.274 91.8728 110.976 94.043 109.551C95.1282 108.828 95.7452 108.274 95.7452 108.04C95.7452 107.487 94.9154 107.572 94.1707 108.189Z" fill="#3D5224"/>
<path d="M32.7665 113.233C32.7665 113.658 33.1069 113.871 34.958 114.616C37.3409 115.616 38.1707 115.765 38.0431 115.169C37.9792 114.85 33.6814 112.765 33.0431 112.765C32.8941 112.765 32.7665 112.977 32.7665 113.233Z" fill="#3D5224"/>
<path d="M83.8946 113.913C82.0436 114.658 81.7244 114.85 81.7031 115.254C81.7031 115.999 82.4691 115.871 84.8946 114.764C86.4691 114.02 87.0223 113.658 87.0223 113.382C87.0223 112.786 86.3627 112.892 83.8946 113.913Z" fill="#3D5224"/>
<path d="M42.1709 116.957C42.256 117.425 45.3624 118.532 46.6815 118.574C47.4262 118.617 47.5538 118.553 47.5538 118.191C47.5538 117.83 47.2134 117.681 45.4262 117.191C42.8092 116.511 42.0645 116.447 42.1709 116.957Z" fill="#3D5224"/>
<path d="M74.3194 117.189C72.5322 117.636 72.1279 117.806 72.1279 118.125C72.1279 118.784 72.6598 118.784 75.213 118.167C77.4471 117.614 77.6598 117.529 77.6598 117.082C77.6598 116.444 77.1705 116.465 74.3194 117.189Z" fill="#3D5224"/>
<path d="M51.916 118.998C51.916 119.594 52.4692 119.743 55.0224 119.892C56.9586 120.02 57.6394 119.977 57.7671 119.785C58.1075 119.211 57.3415 118.977 54.6394 118.828C52.3203 118.722 51.916 118.743 51.916 118.998Z" fill="#3D5224"/>
<path d="M63.937 118.914C62.3413 119.041 62.2349 119.084 62.171 119.552L62.0859 120.062L64.7242 119.914C67.2987 119.765 68.1285 119.509 67.7881 118.956C67.6391 118.722 66.9157 118.701 63.937 118.914Z" fill="#3D5224"/>
<path d="M28.56 50C27.76 48 35.0601 43 44.56 43M28.56 50L29.5243 56.75M28.56 50C30.1693 50.9656 32.0272 51.7986 34.058 52.5M60.56 88.5C59.9256 88.641 59.2565 88.7645 58.56 88.8711M58.56 88.8711V86M58.56 88.8711C56.5612 89.1768 54.3366 89.3422 52.06 89.3757M52.06 89.3757V69.5M52.06 89.3757C49.8905 89.4075 47.6737 89.3195 45.56 89.1187M45.56 89.1187L44.06 69M45.56 89.1187C43.3986 88.9134 41.345 88.5902 39.56 88.1568M39.56 88.1568C36.5038 87.4148 34.2349 86.3497 33.56 85L30.4886 63.5M39.56 88.1568L37.06 67.5M30.4886 63.5C31.4575 65.3498 44.6388 70.8829 59.56 68.7436M30.4886 63.5L29.5243 56.75M73.06 64.5C71.0768 65.517 69.0697 66.3417 67.0626 67M67.0626 67L66.56 71M67.0626 67C64.5458 67.8256 62.029 68.3897 59.56 68.7436M59.56 68.7436V73M72.06 71L74.1282 58M75.56 49C72.8883 52.0533 67.2305 54.0141 60.5601 54.8546M75.56 49L74.1282 58M75.56 49C75.332 48.316 74.8315 47.6898 74.1282 47.1196M55.5601 42.5C57.5677 42.5 60.7828 42.7981 64.0601 43.4232M35.5601 52.9857L36.5601 61M35.5601 52.9857C37.9039 53.6943 40.4386 54.241 43.0601 54.6271M35.5601 52.9857C35.05 52.8315 34.5489 52.6696 34.058 52.5M43.0601 54.6271L44.06 62.5M43.0601 54.6271C45.9996 55.06 49.0484 55.2911 52.06 55.3224M52.06 55.3224V63.5M52.06 55.3224C54.9722 55.3527 57.8497 55.1961 60.5601 54.8546M60.5601 54.8546V62.5M29.5243 56.75C31.0601 61 55.5601 68 74.1282 58M52.06 28C48.86 30 46.5601 34 47.5601 36.5C49.0601 38.5 50.5601 37.5 51.5601 38.5C52.5601 40 51.3934 42.1667 50.5601 44C50.0601 45.5 51.0601 46.0001 52.06 47C52.86 47.8 52.0601 50 51.5601 51M44.06 36.5C43.66 38.1 45.5807 39.4798 46.5601 40.5C48 42 46.5601 43.8333 46.0601 45C45.4988 46.3097 47.2601 46.7 48.0601 47.5C48.8601 48.3 48.0601 50.1667 47.5601 51M54.5601 38C56 39 54.8934 41.8333 54.5601 43C54.0271 44.8654 55.2267 45.6667 56.0601 46.5C57.1998 47.6397 56.5601 49.8333 56.0601 51M34.058 52.5C35.2596 51.3 42.5601 50 46.0601 49.5M70.0601 52.5C68.0601 50.9 61.5601 49.8333 58.5601 49.5M64.0601 43.4232L65.5601 36C66.5601 33 70.0601 32.5 72.0601 33C72.8621 33.1604 73.5837 33.6746 74.1282 34.3297M64.0601 43.4232C67.0744 43.9981 70.1414 44.8496 72.3696 46M72.3696 46L75.0601 37.5C75.3596 36.6015 75.0601 35.4511 74.1282 34.3297M72.3696 46C73.0397 46.346 73.634 46.719 74.1282 47.1196M74.1282 34.3297C77.5 38 74.9388 43.2464 74.1282 47.1196" stroke="#3D5224"/>
<path d="M75.5598 74.5001L79.5598 48.0001C80.56 43.5 89.06 40 93.0598 45.5001C94.56 48.4999 91.56 49.5004 90.5598 49.0002C88.56 48 88.56 46.5 85.5598 47.0002C82.56 48.0001 80.1666 66.3332 78.9999 75.5M78.9999 75.5C70.5001 72.5 62.56 73.5002 58.5598 76.0002M78.9999 75.5C80.4999 77 80.5598 78.0002 80.5598 78.0002M58.5598 76.0002C57.56 84.5002 64.0478 90.0004 69.5598 90.0002C76.9998 90 80.5598 80.0002 80.5598 78.0002M58.5598 76.0002C58.39 77.6993 59.7791 79.1675 62.06 80.13M80.5598 78.0002C79.2765 78.8108 77.9292 79.4571 76.56 79.9564M62.06 80.13C65.5844 81.6172 71.2381 81.8971 76.56 79.9564M62.06 80.13C62.46 78.8262 71.56 76.0002 76.56 79.9564" stroke="#3D5224"/>
</g>
<defs>
<clipPath id="clip0_2717_1255">
<rect width="120" height="120" fill="white"/>
</clipPath>
</defs>
</svg>
