<svg width="128" height="128" viewBox="0 0 128 128" fill="none" xmlns="http://www.w3.org/2000/svg">
<g clip-path="url(#clip0_2717_52)" filter="url(#filter0_d_2717_52)">
<path d="M61.1221 0.266811C60.8029 0.777449 61.4625 0.905109 64.1221 0.841279C66.3987 0.777449 66.8668 0.71362 66.8668 0.4583C66.8668 0.202981 66.3774 0.139151 64.0583 0.0753216C62.1646 0.0327684 61.2072 0.0965983 61.1221 0.266811Z" fill="#3D5224"/>
<path d="M53.6763 0.776137C52.9741 0.94635 52.1656 1.07401 51.8677 1.09529C51.2082 1.09529 50.6124 1.88252 51.1231 2.07401C51.3997 2.18039 55.6975 1.64848 56.506 1.39316C56.6763 1.35061 56.7614 1.13784 56.7188 0.94635C56.6337 0.456988 55.3997 0.393158 53.6763 0.776137Z" fill="#3D5224"/>
<path d="M71.2908 0.796833C71.0993 1.30747 71.3972 1.43513 73.3546 1.71173C77.2269 2.2862 77.0142 2.2862 76.9291 1.71173C76.8652 1.26492 76.6738 1.17981 74.844 0.860663C72.2269 0.371301 71.461 0.371301 71.2908 0.796833Z" fill="#3D5224"/>
<path d="M43.7412 3.39163C41.72 4.07248 41.4434 4.22142 41.4434 4.64695C41.4434 5.30652 41.7625 5.28525 44.5285 4.30652C46.3795 3.64695 46.8689 3.39163 46.8689 3.09376C46.8689 2.47674 46.2306 2.54057 43.7412 3.39163Z" fill="#3D5224"/>
<path d="M81.0987 2.81799C81.0348 2.94565 81.0774 3.15842 81.205 3.28608C81.4816 3.56268 85.0987 4.92438 85.971 5.07331C86.5242 5.1797 86.5667 5.13714 86.5029 4.69033C86.4604 4.2648 86.0987 4.07331 84.3114 3.39246C82.0774 2.56267 81.354 2.43502 81.0987 2.81799Z" fill="#3D5224"/>
<path d="M34.6362 7.58355C33.5298 8.22185 32.5298 8.77504 32.4447 8.81759C32.1894 8.9027 32.5085 9.60483 32.8064 9.60483C32.9341 9.6261 34.0617 9.11547 35.317 8.49844C37.1681 7.58355 37.5936 7.28568 37.5936 6.88142C37.6149 6.11546 36.8702 6.30695 34.6362 7.58355Z" fill="#3D5224"/>
<path d="M90.396 6.88142C90.396 7.28568 90.8215 7.58355 92.6726 8.49844C93.9279 9.11547 95.0768 9.6261 95.2257 9.60483C95.3534 9.60483 95.4811 9.41334 95.4811 9.20057C95.4811 8.88142 94.9066 8.45589 93.396 7.60483C91.0981 6.28568 90.3747 6.11547 90.396 6.88142Z" fill="#3D5224"/>
<path d="M26.6582 12.923C25.8497 13.5824 24.9561 14.2843 24.6795 14.497C24.1689 14.9012 24.2327 15.5605 24.7646 15.5605C25.2752 15.5605 28.8923 12.5401 28.8923 12.1147C28.8923 11.4341 28.1901 11.6893 26.6582 12.923Z" fill="#3D5224"/>
<path d="M99.0968 12.1147C99.0968 12.5614 102.714 15.5605 103.246 15.5605C104.054 15.5605 103.48 14.6672 101.778 13.2421C100.012 11.7318 99.0968 11.349 99.0968 12.1147Z" fill="#3D5224"/>
<path d="M18.9564 20.3455C18.0416 21.3452 17.2969 22.2811 17.2969 22.43C17.2969 22.5789 17.4884 22.7066 17.7437 22.7491C18.0841 22.7916 18.5735 22.3662 19.7224 21.0049C20.5522 20.0052 21.233 19.048 21.233 18.8779C21.233 18.1759 20.5522 18.6013 18.9564 20.3455Z" fill="#3D5224"/>
<path d="M106.756 18.984C106.756 19.4732 109.862 23.0042 110.309 23.0042C110.947 23.0042 110.501 22.0257 109.075 20.3241C107.543 18.5161 106.756 18.0694 106.756 18.984Z" fill="#3D5224"/>
<path d="M13.9359 26.8763C11.872 29.6202 11.1274 31.3005 11.9784 31.3005C12.3401 31.3005 15.0635 27.174 15.0635 26.621C15.0635 25.9829 14.5103 26.1105 13.9359 26.8763Z" fill="#3D5224"/>
<path d="M112.925 26.7274C112.925 27.2166 115.691 31.3005 116.031 31.3005C116.563 31.3005 116.35 30.6624 115.138 28.5141C114.138 26.7699 113.861 26.4083 113.435 26.4083C113.138 26.4083 112.925 26.5359 112.925 26.7274Z" fill="#3D5224"/>
<path d="M9.12785 35.4917C8.55338 36.5978 7.21295 40.0862 7.31934 40.2563C7.51083 40.5967 8.25551 40.469 8.40444 40.0649C8.46827 39.8735 8.85125 38.895 9.25551 37.8953C10.2768 35.4279 10.3193 35.1301 9.78742 35.1301C9.5321 35.1301 9.25551 35.3003 9.12785 35.4917Z" fill="#3D5224"/>
<path d="M118.031 35.5117C118.031 35.7457 118.372 36.8305 118.776 37.894C119.18 38.9575 119.521 39.9785 119.521 40.1274C119.521 40.3827 119.967 40.6592 120.393 40.6592C120.797 40.6592 120.521 39.4255 119.67 37.3622C119.074 35.9797 118.648 35.2139 118.393 35.1714C118.159 35.1288 118.031 35.2352 118.031 35.5117Z" fill="#3D5224"/>
<path d="M5.95823 44.7652C5.55398 45.2544 4.66036 49.8914 4.93695 50.0616C5.51142 50.4657 5.76674 50.0829 6.171 48.2111C6.80929 45.1906 6.87312 44.4887 6.51142 44.4887C6.31993 44.4887 6.08589 44.6163 5.95823 44.7652Z" fill="#3D5224"/>
<path d="M121.307 44.9983C121.243 45.1685 121.392 46.1895 121.626 47.253C121.881 48.3378 122.073 49.4226 122.073 49.6991C122.073 50.1883 122.583 50.5499 122.945 50.3159C123.52 49.9756 122.477 44.8707 121.796 44.7431C121.605 44.7005 121.371 44.8069 121.307 44.9983Z" fill="#3D5224"/>
<path d="M4.25584 54.7398C3.93669 55.0589 3.89414 60.1425 4.21329 60.334C4.34095 60.419 4.59627 60.3552 4.76648 60.2063C5.0218 59.9936 5.06435 59.4406 5.0218 57.2923C4.95797 54.676 4.80903 54.1868 4.25584 54.7398Z" fill="#3D5224"/>
<path d="M123.073 54.633C122.988 54.6968 122.924 55.9943 122.924 57.462C122.924 59.589 122.988 60.2272 123.243 60.4399C123.413 60.5675 123.647 60.6313 123.775 60.5462C124.094 60.3548 124.051 55.0584 123.732 54.7394C123.434 54.4416 123.264 54.4203 123.073 54.633Z" fill="#3D5224"/>
<path d="M4.29819 65.0129C4.06415 65.5872 4.65989 69.969 5.00032 70.2455C5.61734 70.756 5.76628 70.1604 5.51096 68.2673C5.3833 67.3102 5.25564 66.119 5.21308 65.6511C5.19181 65.0342 5.06415 64.779 4.78755 64.7364C4.59606 64.6939 4.36202 64.8215 4.29819 65.0129Z" fill="#3D5224"/>
<path d="M122.818 65.1628C122.775 65.3117 122.626 66.3965 122.499 67.5664C122.371 68.7363 122.222 69.8424 122.158 70.0338C122.031 70.4592 122.669 70.7357 123.031 70.4379C123.328 70.1827 123.903 65.7584 123.711 65.2479C123.541 64.8438 122.945 64.8012 122.818 65.1628Z" fill="#3D5224"/>
<path d="M5.91602 75.0539C5.91602 75.3942 6.21389 76.6705 6.57559 77.9254C7.12878 79.7972 7.32027 80.2227 7.6607 80.2227C7.87346 80.2227 8.1075 80.0738 8.19261 79.8823C8.32027 79.542 7.08623 75.2241 6.70325 74.7349C6.34155 74.2669 5.91602 74.4371 5.91602 75.0539Z" fill="#3D5224"/>
<path d="M121.286 74.9477C120.946 75.5008 119.584 79.9038 119.669 80.159C119.733 80.3079 119.903 80.4355 120.052 80.4355C120.499 80.4355 120.712 80.0101 121.499 77.564C122.031 75.8836 122.18 75.1604 122.031 74.969C121.754 74.6287 121.499 74.6287 121.286 74.9477Z" fill="#3D5224"/>
<path d="M9.31909 84.6036C9.31909 85.4331 11.468 89.3682 11.9361 89.3682C12.5531 89.3682 12.3404 88.5386 11.1702 86.2839C10.0212 84.0931 9.31909 83.4337 9.31909 84.6036Z" fill="#3D5224"/>
<path d="M116.648 86.603C115.521 88.879 115.351 89.666 116.095 89.5383C116.499 89.4533 118.648 85.4544 118.67 84.7312C118.67 84.4121 118.542 84.2632 118.244 84.2632C117.925 84.2632 117.563 84.795 116.648 86.603Z" fill="#3D5224"/>
<path d="M14.2331 93.454C14.2544 94.1559 16.7863 97.538 17.3607 97.623C18.1905 97.7507 17.8927 96.9211 16.4246 94.9004C14.9778 92.9648 14.1905 92.433 14.2331 93.454Z" fill="#3D5224"/>
<path d="M112.266 93.9844C111.989 94.4099 111.33 95.3245 110.755 95.9839C109.776 97.175 109.585 97.877 110.266 97.877C110.819 97.877 113.564 94.2822 113.564 93.5803C113.564 92.8996 112.776 93.1549 112.266 93.9844Z" fill="#3D5224"/>
<path d="M20.5947 101.238C20.5947 101.791 23.8075 104.896 24.382 104.896C24.6373 104.896 24.85 104.769 24.85 104.62C24.85 104.216 21.382 100.855 20.9564 100.855C20.7437 100.855 20.5947 101.025 20.5947 101.238Z" fill="#3D5224"/>
<path d="M104.48 102.791C102.735 104.493 102.459 105.109 103.437 105.109C103.99 105.109 107.182 101.983 107.182 101.43C107.182 100.6 106.224 101.089 104.48 102.791Z" fill="#3D5224"/>
<path d="M28.2529 107.854C28.2529 108.47 31.7636 111.065 32.5934 111.065C33.4444 111.065 32.8274 110.236 30.9125 108.875C28.8061 107.386 28.2529 107.173 28.2529 107.854Z" fill="#3D5224"/>
<path d="M98.1608 108.192C97.8204 108.469 96.8842 109.064 96.097 109.511C95.2885 109.958 94.6289 110.362 94.6289 110.426C94.6289 110.49 94.7353 110.682 94.8417 110.852C95.1183 111.277 95.8629 110.979 98.0332 109.554C99.1183 108.83 99.7353 108.277 99.7353 108.043C99.7353 107.49 98.9055 107.575 98.1608 108.192Z" fill="#3D5224"/>
<path d="M36.7627 113.233C36.7627 113.659 37.1031 113.872 38.9542 114.616C41.3372 115.616 42.167 115.765 42.0393 115.17C41.9755 114.85 37.6776 112.765 37.0393 112.765C36.8904 112.765 36.7627 112.978 36.7627 113.233Z" fill="#3D5224"/>
<path d="M87.8858 113.914C86.0348 114.659 85.7156 114.851 85.6943 115.255C85.6943 116 86.4603 115.872 88.8858 114.765C90.4603 114.021 91.0135 113.659 91.0135 113.382C91.0135 112.787 90.3539 112.893 87.8858 113.914Z" fill="#3D5224"/>
<path d="M46.166 116.957C46.2511 117.425 49.3575 118.532 50.6766 118.574C51.4213 118.617 51.549 118.553 51.549 118.191C51.549 117.83 51.2085 117.681 49.4213 117.191C46.8043 116.511 46.0596 116.447 46.166 116.957Z" fill="#3D5224"/>
<path d="M78.3116 117.189C76.5244 117.636 76.1201 117.806 76.1201 118.125C76.1201 118.784 76.652 118.784 79.2052 118.167C81.4393 117.614 81.652 117.529 81.652 117.082C81.652 116.444 81.1627 116.465 78.3116 117.189Z" fill="#3D5224"/>
<path d="M55.91 118.998C55.91 119.594 56.4632 119.743 59.0164 119.892C60.9526 120.02 61.6334 119.977 61.7611 119.785C62.1015 119.211 61.3356 118.977 58.6334 118.828C56.3143 118.722 55.91 118.743 55.91 118.998Z" fill="#3D5224"/>
<path d="M67.9302 118.914C66.3344 119.041 66.228 119.084 66.1642 119.552L66.0791 120.062L68.7174 119.914C71.2919 119.765 72.1217 119.509 71.7812 118.956C71.6323 118.722 70.9089 118.701 67.9302 118.914Z" fill="#3D5224"/>
<path d="M89.1554 89.4376H38.8365C34.7877 89.4376 31.5 86.1418 31.5 82.093V49.3055C31.5 45.2567 34.7958 41.9609 38.8365 41.9609H89.1554C93.2042 41.9609 96.4919 45.2567 96.4919 49.3055V82.093C96.5 86.1418 93.2042 89.4376 89.1554 89.4376ZM38.8446 43.127C35.4436 43.127 32.6742 45.8964 32.6742 49.2974V82.0849C32.6742 85.494 35.4436 88.2634 38.8446 88.2634H89.1635C92.5645 88.2634 95.3339 85.494 95.3339 82.0849V49.2974C95.3339 45.8964 92.5645 43.127 89.1635 43.127H38.8446Z" fill="#3D5224"/>
<path d="M95.917 76.3837H75.4785C75.2518 76.3837 75.0412 76.246 74.944 76.0355C74.8469 75.825 74.8874 75.582 75.0412 75.4039C77.4057 72.7155 78.7014 69.2658 78.7014 65.6948C78.7014 62.1156 77.3976 58.666 75.0412 55.9857C74.8874 55.8156 74.855 55.5646 74.944 55.3541C75.0412 55.1435 75.2518 55.0059 75.4785 55.0059H95.917C96.2409 55.0059 96.5 55.265 96.5 55.5889V75.7845C96.5 76.1165 96.2409 76.3837 95.917 76.3837ZM76.7093 75.2095H95.334V56.18H76.7093C78.758 58.917 79.8755 62.2452 79.8755 65.6948C79.8674 69.1363 78.758 72.4725 76.7093 75.2095Z" fill="#3D5224"/>
<path d="M52.5294 76.3834H32.0908C31.7669 76.3834 31.5078 76.1162 31.5078 75.8004V55.6048C31.5078 55.2809 31.7669 55.0217 32.0908 55.0217H52.5294C52.7561 55.0217 52.9666 55.1594 53.0638 55.3699C53.161 55.5805 53.1205 55.8234 52.9666 56.0015C50.6102 58.6819 49.3065 62.1315 49.3065 65.7107C49.3065 69.2736 50.594 72.707 52.9342 75.3874C53.0476 75.4926 53.1124 75.6465 53.1124 75.8085C53.1124 76.1162 52.8533 76.3834 52.5294 76.3834ZM32.6739 75.2092H51.2985C49.2498 72.4722 48.1404 69.1441 48.1404 65.6945C48.1404 62.2448 49.2579 58.9167 51.2985 56.1797H32.6739V75.2092Z" fill="#3D5224"/>
<path d="M64.0041 81.5735C55.2586 81.5735 48.1407 74.4476 48.1407 65.694C48.1407 56.9323 55.2586 49.8145 64.0041 49.8145C72.7577 49.8145 79.8755 56.9404 79.8755 65.694C79.8674 74.4476 72.7496 81.5735 64.0041 81.5735ZM64.0041 50.9805C55.8983 50.9805 49.3068 57.5801 49.3068 65.694C49.3068 73.7997 55.8983 80.3993 64.0041 80.3993C72.1098 80.3993 78.7013 73.7997 78.7013 65.694C78.7013 57.5801 72.1017 50.9805 64.0041 50.9805Z" fill="#3D5224"/>
<path d="M64.0038 76.3837C58.1168 76.3837 53.3311 71.5899 53.3311 65.6948C53.3311 59.7997 58.1168 55.0059 64.0038 55.0059C69.8908 55.0059 74.6765 59.7997 74.6765 65.6948C74.6765 71.5899 69.8908 76.3837 64.0038 76.3837ZM64.0038 56.18C58.7646 56.18 54.4971 60.4475 54.4971 65.6948C54.4971 70.9421 58.7646 75.2095 64.0038 75.2095C69.243 75.2095 73.5104 70.9421 73.5104 65.6948C73.5023 60.4475 69.243 56.18 64.0038 56.18Z" fill="#3D5224"/>
<path d="M38.9257 52.9256C37.3709 52.9256 36.0996 51.6624 36.0996 50.0995C36.0996 48.5367 37.3628 47.2734 38.9257 47.2734C40.4804 47.2734 41.7518 48.5367 41.7518 50.0995C41.7518 51.6624 40.4804 52.9256 38.9257 52.9256ZM38.9257 48.4476C38.0107 48.4476 37.2738 49.1926 37.2738 50.0995C37.2738 51.0065 38.0107 51.7514 38.9257 51.7514C39.8407 51.7514 40.5776 51.0065 40.5776 50.0995C40.5776 49.1926 39.8407 48.4476 38.9257 48.4476Z" fill="#3D5224"/>
<path d="M80.386 43.1263H50.0764C49.8902 43.1263 49.712 43.0373 49.5987 42.8834C49.4853 42.7295 49.461 42.5352 49.5177 42.3571L53.5341 30.3968C53.6151 30.1619 53.8419 30 54.0929 30H76.3696C76.6206 30 76.8473 30.1619 76.9283 30.3968L80.9286 42.3004C80.9609 42.3732 80.9771 42.4542 80.9771 42.5433C80.969 42.8591 80.7099 43.1263 80.386 43.1263ZM50.8862 41.9522H79.5682L75.9404 31.1661H54.5059L50.8862 41.9522Z" fill="#3D5224"/>
<path d="M43.6546 43.127H39.0147C38.6908 43.127 38.4316 42.8679 38.4316 42.544V38.1065C38.4316 37.7826 38.6908 37.5234 39.0147 37.5234H43.6546C43.9786 37.5234 44.2377 37.7826 44.2377 38.1065V42.544C44.2377 42.8598 43.9786 43.127 43.6546 43.127ZM39.5977 41.9529H43.0716V38.6895H39.5977V41.9529Z" fill="#3D5224"/>
<path d="M73.2034 43.1268H57.251C57.0647 43.1268 56.8785 43.0377 56.7732 42.8758C56.668 42.7219 56.6356 42.5195 56.7003 42.3413L58.8138 36.3652C58.8948 36.1304 59.1215 35.9766 59.3645 35.9766H71.0899C71.3409 35.9766 71.5596 36.1304 71.6405 36.3652L73.7378 42.2927C73.7702 42.3656 73.7945 42.4547 73.7945 42.5438C73.7864 42.8596 73.5273 43.1268 73.2034 43.1268ZM58.0769 41.9526H72.3693L70.6688 37.1426H59.7693L58.0769 41.9526Z" fill="#3D5224"/>
</g>
<defs>
<filter id="filter0_d_2717_52" x="0" y="0" width="128" height="128" filterUnits="userSpaceOnUse" color-interpolation-filters="sRGB">
<feFlood flood-opacity="0" result="BackgroundImageFix"/>
<feColorMatrix in="SourceAlpha" type="matrix" values="0 0 0 0 0 0 0 0 0 0 0 0 0 0 0 0 0 0 127 0" result="hardAlpha"/>
<feOffset dy="4"/>
<feGaussianBlur stdDeviation="2"/>
<feComposite in2="hardAlpha" operator="out"/>
<feColorMatrix type="matrix" values="0 0 0 0 0 0 0 0 0 0 0 0 0 0 0 0 0 0 0.25 0"/>
<feBlend mode="normal" in2="BackgroundImageFix" result="effect1_dropShadow_2717_52"/>
<feBlend mode="normal" in="SourceGraphic" in2="effect1_dropShadow_2717_52" result="shape"/>
</filter>
<clipPath id="clip0_2717_52">
<rect width="120" height="120" fill="white" transform="translate(4)"/>
</clipPath>
</defs>
</svg>
