<svg width="128" height="128" viewBox="0 0 128 128" fill="none" xmlns="http://www.w3.org/2000/svg">
<g clip-path="url(#clip0_2717_1125)" filter="url(#filter0_d_2717_1125)">
<path d="M61.1221 0.266811C60.8029 0.777449 61.4625 0.905109 64.1221 0.841279C66.3987 0.777449 66.8668 0.71362 66.8668 0.4583C66.8668 0.202981 66.3774 0.139151 64.0583 0.0753216C62.1646 0.0327684 61.2072 0.0965983 61.1221 0.266811Z" fill="#3D5224"/>
<path d="M53.6761 0.776137C52.974 0.94635 52.1655 1.07401 51.8676 1.09529C51.208 1.09529 50.6123 1.88252 51.1229 2.07401C51.3995 2.18039 55.6974 1.64848 56.5059 1.39316C56.6761 1.35061 56.7612 1.13784 56.7187 0.94635C56.6336 0.456988 55.3995 0.393158 53.6761 0.776137Z" fill="#3D5224"/>
<path d="M71.2918 0.796833C71.1003 1.30747 71.3981 1.43513 73.3556 1.71173C77.2279 2.2862 77.0152 2.2862 76.9301 1.71173C76.8662 1.26492 76.6747 1.17981 74.8449 0.860663C72.2279 0.371301 71.462 0.371301 71.2918 0.796833Z" fill="#3D5224"/>
<path d="M43.7412 3.39163C41.72 4.07248 41.4434 4.22142 41.4434 4.64695C41.4434 5.30652 41.7625 5.28525 44.5285 4.30652C46.3795 3.64695 46.8689 3.39163 46.8689 3.09376C46.8689 2.47674 46.2306 2.54057 43.7412 3.39163Z" fill="#3D5224"/>
<path d="M81.0987 2.81799C81.0348 2.94565 81.0774 3.15842 81.205 3.28608C81.4816 3.56268 85.0987 4.92438 85.971 5.07331C86.5242 5.1797 86.5667 5.13714 86.5029 4.69033C86.4604 4.2648 86.0987 4.07331 84.3114 3.39246C82.0774 2.56267 81.354 2.43502 81.0987 2.81799Z" fill="#3D5224"/>
<path d="M34.6362 7.58355C33.5298 8.22185 32.5298 8.77504 32.4447 8.81759C32.1894 8.9027 32.5085 9.60483 32.8064 9.60483C32.9341 9.6261 34.0617 9.11547 35.317 8.49844C37.1681 7.58355 37.5936 7.28568 37.5936 6.88142C37.6149 6.11546 36.8702 6.30695 34.6362 7.58355Z" fill="#3D5224"/>
<path d="M90.396 6.88142C90.396 7.28568 90.8215 7.58355 92.6726 8.49844C93.9279 9.11547 95.0768 9.6261 95.2257 9.60483C95.3534 9.60483 95.4811 9.41334 95.4811 9.20057C95.4811 8.88142 94.9066 8.45589 93.396 7.60483C91.0981 6.28568 90.3747 6.11547 90.396 6.88142Z" fill="#3D5224"/>
<path d="M26.6582 12.923C25.8497 13.5824 24.9561 14.2843 24.6795 14.497C24.1689 14.9012 24.2327 15.5605 24.7646 15.5605C25.2752 15.5605 28.8923 12.5401 28.8923 12.1147C28.8923 11.4341 28.1901 11.6893 26.6582 12.923Z" fill="#3D5224"/>
<path d="M99.0968 12.1147C99.0968 12.5614 102.714 15.5605 103.246 15.5605C104.054 15.5605 103.48 14.6672 101.778 13.2421C100.012 11.7318 99.0968 11.349 99.0968 12.1147Z" fill="#3D5224"/>
<path d="M18.9567 20.3455C18.0418 21.3452 17.2971 22.2811 17.2971 22.43C17.2971 22.5789 17.4886 22.7066 17.7439 22.7491C18.0844 22.7916 18.5737 22.3662 19.7227 21.0049C20.5524 20.0052 21.2333 19.048 21.2333 18.8779C21.2333 18.1759 20.5524 18.6013 18.9567 20.3455Z" fill="#3D5224"/>
<path d="M106.756 18.984C106.756 19.4732 109.862 23.0042 110.309 23.0042C110.947 23.0042 110.501 22.0257 109.075 20.3241C107.543 18.5161 106.756 18.0694 106.756 18.984Z" fill="#3D5224"/>
<path d="M13.9359 26.8763C11.872 29.6202 11.1274 31.3005 11.9784 31.3005C12.3401 31.3005 15.0635 27.174 15.0635 26.621C15.0635 25.9829 14.5103 26.1105 13.9359 26.8763Z" fill="#3D5224"/>
<path d="M112.925 26.7274C112.925 27.2166 115.691 31.3005 116.031 31.3005C116.563 31.3005 116.35 30.6624 115.138 28.5141C114.138 26.7699 113.861 26.4083 113.435 26.4083C113.138 26.4083 112.925 26.5359 112.925 26.7274Z" fill="#3D5224"/>
<path d="M9.12785 35.4917C8.55338 36.5978 7.21295 40.0862 7.31934 40.2563C7.51083 40.5967 8.25551 40.469 8.40444 40.0649C8.46827 39.8735 8.85125 38.895 9.25551 37.8953C10.2768 35.4279 10.3193 35.1301 9.78742 35.1301C9.5321 35.1301 9.25551 35.3003 9.12785 35.4917Z" fill="#3D5224"/>
<path d="M118.031 35.5117C118.031 35.7457 118.372 36.8305 118.776 37.894C119.18 38.9575 119.521 39.9785 119.521 40.1274C119.521 40.3827 119.967 40.6592 120.393 40.6592C120.797 40.6592 120.521 39.4255 119.67 37.3622C119.074 35.9797 118.648 35.2139 118.393 35.1714C118.159 35.1288 118.031 35.2352 118.031 35.5117Z" fill="#3D5224"/>
<path d="M5.95823 44.7652C5.55398 45.2544 4.66036 49.8914 4.93695 50.0616C5.51142 50.4657 5.76674 50.0829 6.171 48.2111C6.80929 45.1906 6.87312 44.4887 6.51142 44.4887C6.31993 44.4887 6.08589 44.6163 5.95823 44.7652Z" fill="#3D5224"/>
<path d="M121.307 44.9983C121.243 45.1685 121.392 46.1895 121.626 47.253C121.881 48.3378 122.073 49.4226 122.073 49.6991C122.073 50.1883 122.583 50.5499 122.945 50.3159C123.52 49.9756 122.477 44.8707 121.796 44.7431C121.605 44.7005 121.371 44.8069 121.307 44.9983Z" fill="#3D5224"/>
<path d="M4.25584 54.7398C3.93669 55.0589 3.89414 60.1425 4.21329 60.334C4.34095 60.419 4.59627 60.3552 4.76648 60.2063C5.0218 59.9936 5.06435 59.4406 5.0218 57.2923C4.95797 54.676 4.80903 54.1868 4.25584 54.7398Z" fill="#3D5224"/>
<path d="M123.073 54.633C122.988 54.6968 122.924 55.9943 122.924 57.462C122.924 59.589 122.988 60.2272 123.243 60.4399C123.413 60.5675 123.647 60.6313 123.775 60.5462C124.094 60.3548 124.051 55.0584 123.732 54.7394C123.434 54.4416 123.264 54.4203 123.073 54.633Z" fill="#3D5224"/>
<path d="M4.29843 65.0129C4.06439 65.5872 4.66014 69.969 5.00056 70.2455C5.61758 70.756 5.76652 70.1604 5.5112 68.2673C5.38354 67.3102 5.25588 66.119 5.21333 65.6511C5.19205 65.0342 5.06439 64.779 4.7878 64.7364C4.59631 64.6939 4.36226 64.8215 4.29843 65.0129Z" fill="#3D5224"/>
<path d="M122.818 65.1628C122.775 65.3117 122.626 66.3965 122.499 67.5664C122.371 68.7363 122.222 69.8424 122.158 70.0338C122.031 70.4592 122.669 70.7357 123.031 70.4379C123.328 70.1827 123.903 65.7584 123.711 65.2479C123.541 64.8438 122.945 64.8012 122.818 65.1628Z" fill="#3D5224"/>
<path d="M5.91504 75.0539C5.91504 75.3942 6.21291 76.6705 6.57461 77.9254C7.1278 79.7972 7.31929 80.2227 7.65972 80.2227C7.87249 80.2227 8.10653 80.0738 8.19163 79.8823C8.31929 79.542 7.08525 75.2241 6.70227 74.7349C6.34057 74.2669 5.91504 74.4371 5.91504 75.0539Z" fill="#3D5224"/>
<path d="M121.286 74.9477C120.946 75.5008 119.584 79.9038 119.669 80.159C119.733 80.3079 119.903 80.4355 120.052 80.4355C120.499 80.4355 120.712 80.0101 121.499 77.564C122.031 75.8836 122.18 75.1604 122.031 74.969C121.754 74.6287 121.499 74.6287 121.286 74.9477Z" fill="#3D5224"/>
<path d="M9.31909 84.6036C9.31909 85.4331 11.468 89.3682 11.9361 89.3682C12.5531 89.3682 12.3404 88.5386 11.1702 86.2839C10.0212 84.0931 9.31909 83.4337 9.31909 84.6036Z" fill="#3D5224"/>
<path d="M116.649 86.603C115.521 88.879 115.351 89.666 116.095 89.5383C116.5 89.4533 118.649 85.4544 118.67 84.7312C118.67 84.4121 118.542 84.2632 118.244 84.2632C117.925 84.2632 117.563 84.795 116.649 86.603Z" fill="#3D5224"/>
<path d="M14.2331 93.454C14.2544 94.1559 16.7863 97.538 17.3607 97.623C18.1905 97.7507 17.8927 96.9211 16.4246 94.9004C14.9778 92.9648 14.1905 92.433 14.2331 93.454Z" fill="#3D5224"/>
<path d="M112.266 93.9844C111.989 94.4099 111.33 95.3245 110.755 95.9839C109.776 97.175 109.585 97.877 110.266 97.877C110.819 97.877 113.564 94.2822 113.564 93.5803C113.564 92.8996 112.776 93.1549 112.266 93.9844Z" fill="#3D5224"/>
<path d="M20.5945 101.238C20.5945 101.791 23.8072 104.896 24.3817 104.896C24.637 104.896 24.8498 104.769 24.8498 104.62C24.8498 104.216 21.3817 100.855 20.9562 100.855C20.7434 100.855 20.5945 101.025 20.5945 101.238Z" fill="#3D5224"/>
<path d="M104.48 102.791C102.735 104.493 102.459 105.109 103.437 105.109C103.99 105.109 107.182 101.983 107.182 101.43C107.182 100.6 106.224 101.089 104.48 102.791Z" fill="#3D5224"/>
<path d="M28.2529 107.854C28.2529 108.47 31.7636 111.065 32.5934 111.065C33.4444 111.065 32.8274 110.236 30.9125 108.875C28.8061 107.386 28.2529 107.173 28.2529 107.854Z" fill="#3D5224"/>
<path d="M98.1608 108.192C97.8204 108.469 96.8842 109.064 96.097 109.511C95.2885 109.958 94.6289 110.362 94.6289 110.426C94.6289 110.49 94.7353 110.682 94.8417 110.852C95.1183 111.277 95.8629 110.979 98.0332 109.554C99.1183 108.83 99.7353 108.277 99.7353 108.043C99.7353 107.49 98.9055 107.575 98.1608 108.192Z" fill="#3D5224"/>
<path d="M36.7627 113.233C36.7627 113.659 37.1031 113.872 38.9542 114.616C41.3372 115.616 42.167 115.765 42.0393 115.17C41.9755 114.85 37.6776 112.765 37.0393 112.765C36.8904 112.765 36.7627 112.978 36.7627 113.233Z" fill="#3D5224"/>
<path d="M87.8858 113.914C86.0348 114.659 85.7156 114.851 85.6943 115.255C85.6943 116 86.4603 115.872 88.8858 114.765C90.4603 114.021 91.0135 113.659 91.0135 113.382C91.0135 112.787 90.3539 112.893 87.8858 113.914Z" fill="#3D5224"/>
<path d="M46.166 116.957C46.2511 117.425 49.3575 118.532 50.6766 118.574C51.4213 118.617 51.549 118.553 51.549 118.191C51.549 117.83 51.2085 117.681 49.4213 117.191C46.8043 116.511 46.0596 116.447 46.166 116.957Z" fill="#3D5224"/>
<path d="M78.3116 117.189C76.5244 117.636 76.1201 117.806 76.1201 118.125C76.1201 118.784 76.652 118.784 79.2052 118.167C81.4393 117.614 81.652 117.529 81.652 117.082C81.652 116.444 81.1627 116.465 78.3116 117.189Z" fill="#3D5224"/>
<path d="M55.9102 118.998C55.9102 119.594 56.4633 119.743 59.0165 119.892C60.9527 120.02 61.6336 119.977 61.7612 119.785C62.1016 119.211 61.3357 118.977 58.6336 118.828C56.3144 118.722 55.9102 118.743 55.9102 118.998Z" fill="#3D5224"/>
<path d="M67.9302 118.914C66.3344 119.041 66.228 119.084 66.1642 119.552L66.0791 120.062L68.7174 119.914C71.2919 119.765 72.1217 119.509 71.7812 118.956C71.6323 118.722 70.9089 118.701 67.9302 118.914Z" fill="#3D5224"/>
<path d="M79.8414 95H48.7829C46.3289 95 44.3361 92.974 44.3361 90.4702V29.5298C44.3361 27.0349 46.3289 25 48.7829 25H79.8414C82.2954 25 84.2882 27.026 84.2882 29.5298V42.4646C84.2882 42.7831 84.0359 43.0397 83.7226 43.0397C83.4093 43.0397 83.1569 42.7831 83.1569 42.4646V29.5298C83.1569 27.6719 81.6688 26.1502 79.8414 26.1502H48.7829C46.9554 26.1502 45.4673 27.663 45.4673 29.5298V90.4702C45.4673 92.3281 46.9554 93.8499 48.7829 93.8499H79.8414C81.6688 93.8499 83.1569 92.337 83.1569 90.4702V63.9813C83.1569 63.6628 83.4093 63.4062 83.7226 63.4062C84.0359 63.4062 84.2882 63.6628 84.2882 63.9813V90.4702C84.2882 92.974 82.2954 95 79.8414 95Z" fill="#3D5224"/>
<path d="M64.3082 91.187C62.5416 91.187 61.1144 89.7273 61.1144 87.9401C61.1144 86.1529 62.5503 84.6931 64.3082 84.6931C66.066 84.6931 67.4932 86.1441 67.4932 87.9401C67.5019 89.7361 66.066 91.187 64.3082 91.187ZM64.3082 85.8521C63.1682 85.8521 62.2457 86.79 62.2457 87.9489C62.2457 89.1079 63.1682 90.0458 64.3082 90.0458C65.4395 90.0458 66.3619 89.1079 66.3619 87.9489C66.3706 86.79 65.4482 85.8521 64.3082 85.8521Z" fill="#3D5224"/>
<path d="M80.2249 81.818H48.3919C48.0787 81.818 47.8263 81.5614 47.8263 81.2429V34.9891C47.8263 34.6706 48.0787 34.4141 48.3919 34.4141H80.2249C80.5382 34.4141 80.7906 34.6706 80.7906 34.9891V42.8898C80.7906 43.2083 80.5382 43.4649 80.2249 43.4649C79.9116 43.4649 79.6592 43.2083 79.6592 42.8898V35.5642H48.9576V80.6679H79.6592V64.1499C79.6592 63.8314 79.9116 63.5748 80.2249 63.5748C80.5382 63.5748 80.7906 63.8314 80.7906 64.1499V81.2429C80.7906 81.5614 80.5382 81.818 80.2249 81.818Z" fill="#3D5224"/>
<path d="M69.843 31.2283H67.7022C67.3889 31.2283 67.1366 30.9717 67.1366 30.6532C67.1366 30.3347 67.3889 30.0781 67.7022 30.0781H69.843C70.1563 30.0781 70.4086 30.3347 70.4086 30.6532C70.4086 30.9717 70.1563 31.2283 69.843 31.2283ZM66.1706 31.2283H58.765C58.4517 31.2283 58.1993 30.9717 58.1993 30.6532C58.1993 30.3347 58.4517 30.0781 58.765 30.0781H66.1706C66.4839 30.0781 66.7363 30.3347 66.7363 30.6532C66.7363 30.9717 66.4839 31.2283 66.1706 31.2283Z" fill="#3D5224"/>
<path d="M93.5652 64.5382H70.5912C70.2779 64.5382 70.0255 64.2816 70.0255 63.9631V50.5594C70.0255 50.2409 70.2779 49.9844 70.5912 49.9844C70.9045 49.9844 71.1569 50.2409 71.1569 50.5594V63.3881H92.9996V50.5594C92.9996 50.2409 93.2519 49.9844 93.5652 49.9844C93.8785 49.9844 94.1308 50.2409 94.1308 50.5594V63.9631C94.1308 64.2816 93.8785 64.5382 93.5652 64.5382Z" fill="#3D5224"/>
<path d="M82.0953 60.3985C81.9735 60.3985 81.8429 60.3543 81.7472 60.2746L70.2428 51.0027C69.9991 50.808 69.9556 50.4453 70.1471 50.1975C70.3385 49.9498 70.6953 49.9056 70.939 50.1002L82.0953 59.0891L93.2081 50.1091C93.4518 49.9144 93.8086 49.9498 94 50.1975C94.1915 50.4453 94.1567 50.808 93.913 51.0027L82.4434 60.2746C82.3477 60.3631 82.2259 60.3985 82.0953 60.3985Z" fill="#3D5224"/>
<path d="M93.5651 64.5396L70.5736 64.5219C70.3386 64.5219 70.1211 64.3715 70.0428 64.1414C69.9644 63.9114 70.0341 63.6548 70.2168 63.5044L78.3448 56.6478C78.5884 56.4443 78.9365 56.4797 79.1367 56.7274C79.3368 56.9751 79.302 57.3379 79.0583 57.5325L72.14 63.3717L91.9812 63.3894L85.0281 57.6209C84.7845 57.4175 84.7496 57.0547 84.9498 56.807C85.1499 56.5593 85.5067 56.5239 85.7504 56.7274L93.9305 63.5133C94.1133 63.6637 94.1829 63.9202 94.1046 64.1503C94.0176 64.3891 93.8087 64.5396 93.5651 64.5396Z" fill="#3D5224"/>
<path d="M93.5649 51.1343C93.4431 51.1343 93.3125 51.09 93.2168 51.0104L82.1039 42.0304L70.9477 51.0104C70.704 51.2051 70.3472 51.1697 70.1557 50.9131C69.9643 50.6654 70.0078 50.3026 70.2514 50.108L81.7559 40.8448C81.9647 40.6767 82.2519 40.6767 82.4608 40.8448L93.9304 50.108C94.174 50.3026 94.2175 50.6654 94.0174 50.9131C93.8955 51.0546 93.7302 51.1343 93.5649 51.1343Z" fill="#3D5224"/>
<path d="M85.5327 48.9041H77.1263C76.8131 48.9041 76.5607 48.6475 76.5607 48.329C76.5607 48.0105 76.8131 47.7539 77.1263 47.7539H85.5327C85.846 47.7539 86.0984 48.0105 86.0984 48.329C86.0984 48.6475 85.846 48.9041 85.5327 48.9041Z" fill="#3D5224"/>
<path d="M82.5827 51.4099H77.1263C76.8131 51.4099 76.5607 51.1533 76.5607 50.8348C76.5607 50.5163 76.8131 50.2598 77.1263 50.2598H82.5827C82.896 50.2598 83.1483 50.5163 83.1483 50.8348C83.1483 51.1445 82.896 51.4099 82.5827 51.4099Z" fill="#3D5224"/>
<path d="M85.5328 53.7713H79.3716C79.0583 53.7713 78.8059 53.5147 78.8059 53.1962C78.8059 52.8777 79.0583 52.6211 79.3716 52.6211H85.5328C85.846 52.6211 86.0984 52.8777 86.0984 53.1962C86.0984 53.5147 85.846 53.7713 85.5328 53.7713Z" fill="#3D5224"/>
</g>
<defs>
<filter id="filter0_d_2717_1125" x="0" y="0" width="128" height="128" filterUnits="userSpaceOnUse" color-interpolation-filters="sRGB">
<feFlood flood-opacity="0" result="BackgroundImageFix"/>
<feColorMatrix in="SourceAlpha" type="matrix" values="0 0 0 0 0 0 0 0 0 0 0 0 0 0 0 0 0 0 127 0" result="hardAlpha"/>
<feOffset dy="4"/>
<feGaussianBlur stdDeviation="2"/>
<feComposite in2="hardAlpha" operator="out"/>
<feColorMatrix type="matrix" values="0 0 0 0 0 0 0 0 0 0 0 0 0 0 0 0 0 0 0.25 0"/>
<feBlend mode="normal" in2="BackgroundImageFix" result="effect1_dropShadow_2717_1125"/>
<feBlend mode="normal" in="SourceGraphic" in2="effect1_dropShadow_2717_1125" result="shape"/>
</filter>
<clipPath id="clip0_2717_1125">
<rect width="120" height="120" fill="white" transform="translate(4)"/>
</clipPath>
</defs>
</svg>
