<svg width="120" height="120" viewBox="0 0 120 120" fill="none" xmlns="http://www.w3.org/2000/svg">
<g clip-path="url(#clip0_2717_622)">
<path d="M57.1279 0.266811C56.8088 0.777449 57.4684 0.905109 60.1279 0.841279C62.4045 0.777449 62.8726 0.71362 62.8726 0.4583C62.8726 0.202981 62.3833 0.139151 60.0641 0.0753216C58.1705 0.0327684 57.2131 0.0965983 57.1279 0.266811Z" fill="#3D5224"/>
<path d="M49.6821 0.776137C48.98 0.94635 48.1715 1.07401 47.8736 1.09529C47.214 1.09529 46.6183 1.88252 47.1289 2.07401C47.4055 2.18039 51.7034 1.64848 52.5119 1.39316C52.6821 1.35061 52.7672 1.13784 52.7247 0.94635C52.6396 0.456988 51.4055 0.393158 49.6821 0.776137Z" fill="#3D5224"/>
<path d="M67.2966 0.796833C67.1051 1.30747 67.403 1.43513 69.3605 1.71173C73.2328 2.2862 73.02 2.2862 72.9349 1.71173C72.8711 1.26492 72.6796 1.17981 70.8498 0.860663C68.2328 0.371301 67.4668 0.371301 67.2966 0.796833Z" fill="#3D5224"/>
<path d="M39.7471 3.39163C37.7258 4.07248 37.4492 4.22142 37.4492 4.64695C37.4492 5.30652 37.7684 5.28525 40.5343 4.30652C42.3854 3.64695 42.8748 3.39163 42.8748 3.09376C42.8748 2.47674 42.2365 2.54057 39.7471 3.39163Z" fill="#3D5224"/>
<path d="M77.1045 2.81799C77.0407 2.94565 77.0832 3.15842 77.2109 3.28608C77.4875 3.56268 81.1045 4.92438 81.9769 5.07331C82.5301 5.1797 82.5726 5.13714 82.5088 4.69033C82.4662 4.2648 82.1045 4.07331 80.3173 3.39246C78.0832 2.56267 77.3598 2.43502 77.1045 2.81799Z" fill="#3D5224"/>
<path d="M30.642 7.58355C29.5357 8.22185 28.5357 8.77504 28.4506 8.81759C28.1952 8.9027 28.5144 9.60483 28.8123 9.60483C28.9399 9.6261 30.0676 9.11547 31.3229 8.49844C33.174 7.58355 33.5995 7.28568 33.5995 6.88142C33.6208 6.11546 32.8761 6.30695 30.642 7.58355Z" fill="#3D5224"/>
<path d="M86.4018 6.88142C86.4018 7.28568 86.8274 7.58355 88.6784 8.49844C89.9337 9.11547 91.0827 9.6261 91.2316 9.60483C91.3593 9.60483 91.4869 9.41334 91.4869 9.20057C91.4869 8.88142 90.9125 8.45589 89.4018 7.60483C87.1039 6.28568 86.3805 6.11547 86.4018 6.88142Z" fill="#3D5224"/>
<path d="M22.6641 12.923C21.8556 13.5824 20.962 14.2843 20.6854 14.497C20.1747 14.9012 20.2385 15.5605 20.7705 15.5605C21.2811 15.5605 24.8981 12.5401 24.8981 12.1147C24.8981 11.4341 24.196 11.6893 22.6641 12.923Z" fill="#3D5224"/>
<path d="M95.1027 12.1147C95.1027 12.5614 98.7197 15.5605 99.2516 15.5605C100.06 15.5605 99.4856 14.6672 97.7835 13.2421C96.0176 11.7318 95.1027 11.349 95.1027 12.1147Z" fill="#3D5224"/>
<path d="M14.9623 20.3455C14.0474 21.3452 13.3027 22.2811 13.3027 22.43C13.3027 22.5789 13.4942 22.7066 13.7495 22.7491C14.09 22.7916 14.5793 22.3662 15.7283 21.0049C16.5581 20.0052 17.2389 19.048 17.2389 18.8779C17.2389 18.1759 16.5581 18.6013 14.9623 20.3455Z" fill="#3D5224"/>
<path d="M102.762 18.984C102.762 19.4732 105.868 23.0042 106.315 23.0042C106.953 23.0042 106.506 22.0257 105.081 20.3241C103.549 18.5161 102.762 18.0694 102.762 18.984Z" fill="#3D5224"/>
<path d="M9.94174 26.8763C7.87791 29.6202 7.13323 31.3005 7.98429 31.3005C8.34599 31.3005 11.0694 27.174 11.0694 26.621C11.0694 25.9829 10.5162 26.1105 9.94174 26.8763Z" fill="#3D5224"/>
<path d="M108.931 26.7274C108.931 27.2166 111.697 31.3005 112.037 31.3005C112.569 31.3005 112.356 30.6624 111.143 28.5141C110.143 26.7699 109.867 26.4083 109.441 26.4083C109.143 26.4083 108.931 26.5359 108.931 26.7274Z" fill="#3D5224"/>
<path d="M5.13371 35.4917C4.55924 36.5978 3.21881 40.0862 3.3252 40.2563C3.51668 40.5967 4.26137 40.469 4.4103 40.0649C4.47413 39.8735 4.85711 38.895 5.26137 37.8953C6.28264 35.4279 6.3252 35.1301 5.79328 35.1301C5.53796 35.1301 5.26137 35.3003 5.13371 35.4917Z" fill="#3D5224"/>
<path d="M114.037 35.5117C114.037 35.7457 114.378 36.8305 114.782 37.894C115.186 38.9575 115.526 39.9785 115.526 40.1274C115.526 40.3827 115.973 40.6592 116.399 40.6592C116.803 40.6592 116.526 39.4255 115.675 37.3622C115.08 35.9797 114.654 35.2139 114.399 35.1714C114.165 35.1288 114.037 35.2352 114.037 35.5117Z" fill="#3D5224"/>
<path d="M1.96409 44.7652C1.55984 45.2544 0.666218 49.8914 0.942814 50.0616C1.51728 50.4657 1.7726 50.0829 2.17686 48.2111C2.81515 45.1906 2.87898 44.4887 2.51728 44.4887C2.32579 44.4887 2.09175 44.6163 1.96409 44.7652Z" fill="#3D5224"/>
<path d="M117.313 44.9983C117.249 45.1685 117.398 46.1895 117.632 47.253C117.887 48.3378 118.079 49.4226 118.079 49.6991C118.079 50.1883 118.589 50.5499 118.951 50.3159C119.525 49.9756 118.483 44.8707 117.802 44.7431C117.611 44.7005 117.377 44.8069 117.313 44.9983Z" fill="#3D5224"/>
<path d="M0.261699 54.7398C-0.05745 55.0589 -0.100003 60.1425 0.219146 60.334C0.346805 60.419 0.602125 60.3552 0.772337 60.2063C1.02766 59.9936 1.07021 59.4406 1.02766 57.2923C0.963827 54.676 0.814891 54.1868 0.261699 54.7398Z" fill="#3D5224"/>
<path d="M119.079 54.633C118.994 54.6968 118.93 55.9943 118.93 57.462C118.93 59.589 118.994 60.2272 119.249 60.4399C119.419 60.5675 119.653 60.6313 119.781 60.5462C120.1 60.3548 120.057 55.0584 119.738 54.7394C119.44 54.4416 119.27 54.4203 119.079 54.633Z" fill="#3D5224"/>
<path d="M0.30405 65.0129C0.0700071 65.5872 0.665752 69.969 1.00618 70.2455C1.6232 70.756 1.77213 70.1604 1.51682 68.2673C1.38916 67.3102 1.2615 66.119 1.21894 65.6511C1.19767 65.0342 1.07001 64.779 0.793411 64.7364C0.601922 64.6939 0.367879 64.8215 0.30405 65.0129Z" fill="#3D5224"/>
<path d="M118.824 65.1628C118.781 65.3117 118.632 66.3965 118.505 67.5664C118.377 68.7363 118.228 69.8424 118.164 70.0338C118.036 70.4592 118.675 70.7357 119.036 70.4379C119.334 70.1827 119.909 65.7584 119.717 65.2479C119.547 64.8438 118.951 64.8012 118.824 65.1628Z" fill="#3D5224"/>
<path d="M1.92188 75.0539C1.92188 75.3942 2.21975 76.6705 2.58145 77.9254C3.13464 79.7972 3.32613 80.2227 3.66656 80.2227C3.87932 80.2227 4.11336 80.0738 4.19847 79.8823C4.32613 79.542 3.09209 75.2241 2.70911 74.7349C2.34741 74.2669 1.92188 74.4371 1.92188 75.0539Z" fill="#3D5224"/>
<path d="M117.292 74.9477C116.951 75.5008 115.59 79.9038 115.675 80.159C115.739 80.3079 115.909 80.4355 116.058 80.4355C116.505 80.4355 116.717 80.0101 117.505 77.564C118.037 75.8836 118.185 75.1604 118.037 74.969C117.76 74.6287 117.505 74.6287 117.292 74.9477Z" fill="#3D5224"/>
<path d="M5.32495 84.6036C5.32495 85.4331 7.47389 89.3682 7.94197 89.3682C8.55899 89.3682 8.34623 88.5386 7.17602 86.2839C6.02708 84.0931 5.32495 83.4337 5.32495 84.6036Z" fill="#3D5224"/>
<path d="M112.654 86.603C111.526 88.879 111.356 89.666 112.101 89.5383C112.505 89.4533 114.654 85.4544 114.675 84.7312C114.675 84.4121 114.548 84.2632 114.25 84.2632C113.931 84.2632 113.569 84.795 112.654 86.603Z" fill="#3D5224"/>
<path d="M10.2389 93.454C10.2602 94.1559 12.7921 97.538 13.3666 97.623C14.1964 97.7507 13.8985 96.9211 12.4304 94.9004C10.9836 92.9648 10.1964 92.433 10.2389 93.454Z" fill="#3D5224"/>
<path d="M108.272 93.9844C107.995 94.4099 107.336 95.3245 106.761 95.9839C105.782 97.175 105.591 97.877 106.272 97.877C106.825 97.877 109.57 94.2822 109.57 93.5803C109.57 92.8996 108.782 93.1549 108.272 93.9844Z" fill="#3D5224"/>
<path d="M16.6006 101.238C16.6006 101.791 19.8134 104.896 20.3878 104.896C20.6431 104.896 20.8559 104.769 20.8559 104.62C20.8559 104.216 17.3878 100.855 16.9623 100.855C16.7495 100.855 16.6006 101.025 16.6006 101.238Z" fill="#3D5224"/>
<path d="M100.486 102.791C98.741 104.493 98.4644 105.109 99.4431 105.109C99.9963 105.109 103.188 101.983 103.188 101.43C103.188 100.6 102.23 101.089 100.486 102.791Z" fill="#3D5224"/>
<path d="M24.2588 107.854C24.2588 108.47 27.7694 111.065 28.5992 111.065C29.4503 111.065 28.8333 110.236 26.9184 108.875C24.812 107.386 24.2588 107.173 24.2588 107.854Z" fill="#3D5224"/>
<path d="M94.1667 108.192C93.8263 108.469 92.8901 109.064 92.1029 109.511C91.2943 109.958 90.6348 110.362 90.6348 110.426C90.6348 110.49 90.7411 110.682 90.8475 110.852C91.1241 111.277 91.8688 110.979 94.039 109.554C95.1241 108.83 95.7411 108.277 95.7411 108.043C95.7411 107.49 94.9114 107.575 94.1667 108.192Z" fill="#3D5224"/>
<path d="M32.7686 113.233C32.7686 113.659 33.109 113.872 34.96 114.616C37.343 115.616 38.1728 115.765 38.0452 115.17C37.9813 114.85 33.6834 112.765 33.0452 112.765C32.8962 112.765 32.7686 112.978 32.7686 113.233Z" fill="#3D5224"/>
<path d="M83.8917 113.914C82.0406 114.659 81.7215 114.851 81.7002 115.255C81.7002 116 82.4662 115.872 84.8917 114.765C86.4662 114.021 87.0193 113.659 87.0193 113.382C87.0193 112.787 86.3598 112.893 83.8917 113.914Z" fill="#3D5224"/>
<path d="M42.1718 116.957C42.257 117.425 45.3633 118.532 46.6825 118.574C47.4272 118.617 47.5548 118.553 47.5548 118.191C47.5548 117.83 47.2144 117.681 45.4272 117.191C42.8101 116.511 42.0655 116.447 42.1718 116.957Z" fill="#3D5224"/>
<path d="M74.3175 117.189C72.5302 117.636 72.126 117.806 72.126 118.125C72.126 118.784 72.6579 118.784 75.2111 118.167C77.4451 117.614 77.6579 117.529 77.6579 117.082C77.6579 116.444 77.1685 116.465 74.3175 117.189Z" fill="#3D5224"/>
<path d="M51.9159 118.998C51.9159 119.594 52.4691 119.743 55.0223 119.892C56.9584 120.02 57.6393 119.977 57.767 119.785C58.1074 119.211 57.3414 118.977 54.6393 118.828C52.3201 118.722 51.9159 118.743 51.9159 118.998Z" fill="#3D5224"/>
<path d="M63.936 118.914C62.3403 119.041 62.2339 119.084 62.1701 119.552L62.085 120.062L64.7233 119.914C67.2977 119.765 68.1275 119.509 67.7871 118.956C67.6382 118.722 66.9147 118.701 63.936 118.914Z" fill="#3D5224"/>
<g clip-path="url(#clip1_2717_622)">
<path d="M37.71 89.7895C35.2813 89.7895 33.3896 89.3239 31.7572 88.3248C28.4242 86.2819 26.8284 83.399 27.0146 79.7556C27.121 77.6679 27.9937 75.7742 29.6078 74.1289C30.0151 73.713 30.1963 73.274 30.1963 72.7057C30.183 62.738 30.1846 52.9709 30.188 44.7313C30.188 42.5045 31.3433 40.8974 33.3547 40.3258C33.5691 40.2645 33.8035 40.2263 34.0496 40.1849C34.1759 40.1634 34.3039 40.1418 34.4369 40.117L34.8192 40.0441V39.6547C34.8192 39.5354 34.8192 39.4195 34.8159 39.3085C34.8142 39.0781 34.8109 38.8611 34.8209 38.6507C34.8475 38.0542 34.8857 37.2457 33.86 36.8331C33.747 36.7801 33.5226 36.4206 33.5126 36.1886C33.4478 34.6229 33.4378 32.9262 33.4827 31.001C33.4943 30.4758 33.9764 30.1245 34.4468 30.0499C34.6397 30.0185 34.8525 30.0036 35.0985 30.0036C36.4948 30.0019 37.8928 30.0002 39.2892 30.0002C40.2799 30.0002 41.2707 30.0002 42.2631 30.0036C43.4999 30.0069 43.9387 30.4393 43.9404 31.6571C43.9404 32.2155 43.9404 32.7755 43.9404 33.3338C43.9404 34.0761 43.9404 34.8184 43.9404 35.5606C43.9437 36.3974 43.6977 36.8447 43.0893 37.1065C42.7302 37.2606 42.5706 37.7129 42.554 37.9631C42.5474 38.0675 42.5357 38.1752 42.5241 38.2862C42.4742 38.7385 42.4177 39.2488 42.667 39.6597C42.9048 40.0524 43.3951 40.1733 43.8273 40.2794C43.947 40.3092 44.0601 40.3374 44.1565 40.3672C45.9734 40.9454 47.1154 42.4846 47.1387 44.3834C47.1487 45.2102 47.147 46.0237 47.1437 46.8852C47.1437 47.2729 47.142 47.664 47.142 48.0616V48.6614L47.7272 48.5172C48.2259 48.393 48.6913 48.3333 49.1468 48.3333C49.7702 48.3333 50.357 48.4477 50.9388 48.6796C51.0186 48.7111 51.1067 48.7277 51.1998 48.7277C51.4391 48.7277 51.7184 48.6183 51.8963 48.4559C52.6826 47.7402 53.783 47.3293 54.9184 47.3293C55.9823 47.3293 57.0063 47.6888 57.7992 48.34C57.9122 48.4327 58.0319 48.4642 58.1034 48.4825L58.1283 48.4891L58.4076 48.5885L58.6154 48.3797L59.9369 47.0725C60.9742 46.0469 62.0082 45.0229 63.0422 43.999C63.5458 43.5003 63.9614 43.2567 64.3138 43.2567C64.6663 43.2567 65.0652 43.5235 65.5074 44.0719C66.026 44.7164 66.4682 45.4206 66.937 46.1662C67.1481 46.5009 67.3642 46.8471 67.5919 47.1918L67.8396 47.5679L68.227 47.3376C69.2343 46.7378 70.4428 46.37 71.7212 46.2722C71.9156 46.2573 72.1101 46.2507 72.2996 46.2507C73.2339 46.2507 74.1166 46.4313 74.9228 46.7858C75.1472 46.8852 75.4148 47.2017 75.5462 47.5231C75.9435 48.499 76.0831 49.5793 75.9601 50.7325C75.9435 50.8932 75.9468 51.0439 75.9518 51.1898C75.9518 51.2477 75.9551 51.3057 75.9551 51.3637V51.8923L76.4821 51.831C76.743 51.7995 77.004 51.7846 77.255 51.7846C80.3835 51.7846 82.0342 54.1191 82.2453 56.2862L82.2836 56.6723L82.6709 56.7087C82.8488 56.7253 83.0283 56.7369 83.2095 56.7502C83.5951 56.7767 83.9592 56.8015 84.3116 56.8678C86.0803 57.2041 86.3962 57.557 86.5624 59.3928C86.6871 60.7713 86.5275 61.9411 86.062 63.0744L85.8941 63.4836L86.2931 63.6758C86.9747 64.0039 87.0561 64.5523 86.973 65.5116C86.8998 66.3516 86.84 67.2099 86.7802 68.04C86.7536 68.4078 86.727 68.7773 86.7004 69.1501L86.6655 69.6156L87.1326 69.6521C88.5788 69.7647 88.9545 70.8599 89.39 72.1291L89.4415 72.2798C89.6543 72.8945 89.0841 73.3966 88.7267 73.6418L88.5189 73.7826C87.9172 74.1919 87.2955 74.616 86.7087 75.1064L85.3572 76.2397L87.096 75.9282C87.5465 75.8471 87.997 75.7675 88.4458 75.688C89.4465 75.5107 90.4489 75.3334 91.448 75.1479C91.7705 75.0882 92.0431 75.06 92.2825 75.06C93.097 75.06 93.5907 75.3401 93.8583 76.8147C93.8849 76.9638 93.9315 77.098 93.973 77.2189C93.9814 77.2438 93.9913 77.2703 93.9996 77.2951V78.1849C93.7071 78.8377 93.21 79.1856 92.4005 79.3033C91.3732 79.454 90.3658 79.6512 89.3002 79.86C88.8414 79.9494 88.3743 80.0406 87.8939 80.1317L86.4444 80.4034L87.7825 81.0198C87.854 81.0529 87.9122 81.0827 87.9637 81.1076C88.0768 81.1656 88.1848 81.2186 88.3145 81.2517C88.5672 81.3147 88.8215 81.3727 89.0758 81.429C89.5396 81.5334 89.9768 81.6311 90.4057 81.7653C91.1687 82.0023 91.5477 82.5954 91.4463 83.3924C91.3964 83.7867 91.325 84.2109 91.2236 84.7278C91.0723 85.4933 90.5486 85.9506 89.8239 85.9506C89.7142 85.9506 89.6011 85.9406 89.4864 85.9207C87.9039 85.6424 86.323 85.3607 84.7421 85.0774C83.8478 84.9183 82.9535 84.7576 82.0592 84.5986C81.9578 84.5803 81.8647 84.577 81.7749 84.572C81.7383 84.572 81.7018 84.5687 81.6619 84.5654L81.1997 84.5323L81.1582 84.9912C81.1449 85.1453 81.1349 85.2994 81.1249 85.4502C81.105 85.7584 81.0867 86.05 81.0352 86.3267C80.6695 88.3033 79.2498 89.5741 77.2384 89.7232C77.029 89.7381 76.753 89.7563 76.4787 89.7563C71.3089 89.7613 66.1407 89.7646 60.9709 89.7679C53.2228 89.7729 45.4747 89.7779 37.7266 89.7862H37.7083L37.71 89.7895ZM74.3676 84.4064C74.4889 84.4064 74.7715 84.4064 74.8929 85.0144C74.971 85.4071 75.0441 85.7998 75.1173 86.1941C75.2154 86.7226 75.3168 87.2678 75.4315 87.8062C75.4863 88.0664 75.6841 88.5369 76.0748 88.6496C76.3491 88.7274 76.6317 88.7672 76.9126 88.7672C77.8335 88.7672 78.7096 88.3546 79.3163 87.6356C79.8948 86.9496 80.1392 86.0616 79.9879 85.1967C79.6554 83.3012 79.298 81.381 78.9523 79.522C78.6647 77.9778 78.3671 76.3822 78.0879 74.8115C77.7537 72.9442 76.6583 71.8723 75.0824 71.8723C74.5903 71.8723 74.0567 71.98 73.4998 72.1904C71.9439 72.7786 70.3896 73.3717 68.8354 73.9632L67.07 74.6359C66.8688 74.7121 66.666 74.79 66.4665 74.8679L65.8016 75.123L65.8748 75.5074C65.9296 75.794 65.9845 76.0724 66.0377 76.3474C66.1607 76.9721 66.2754 77.5636 66.3735 78.1584C66.4366 78.5461 66.2837 78.8244 65.9728 78.8824C65.9263 78.8907 65.8814 78.8957 65.8399 78.8957C65.5839 78.8957 65.4143 78.72 65.3362 78.3721C65.2215 77.8601 65.1251 77.3449 65.0203 76.8014C64.9754 76.5612 64.9289 76.3176 64.879 76.0674L64.7743 75.5323L63.8467 75.8603C63.5824 75.9548 63.3248 76.0459 63.0671 76.1353C62.8826 76.2 62.718 76.2331 62.5784 76.2331C62.349 76.2331 62.2226 76.1503 62.1412 75.9465C62.0514 75.7211 62.1013 75.6052 62.1179 75.567C62.1861 75.4113 62.3855 75.2638 62.6798 75.1528L64.8292 74.3327C67.6285 73.2657 70.5226 72.1606 73.3768 71.1018C73.9686 70.8815 74.5438 70.7705 75.0857 70.7705C76.0233 70.7705 76.876 71.1035 77.6191 71.7629C78.0114 72.1108 78.3306 72.5698 78.668 73.0569C78.8293 73.2905 78.9972 73.5324 79.1784 73.7677L79.431 74.0991L80.6944 73.3585C82.0126 72.5864 83.3724 71.7878 84.7305 70.9842C84.8568 70.9096 85.1594 70.7009 85.2425 70.3778C85.708 68.5751 85.9291 66.852 85.9191 65.1106L85.9158 64.6434H81.1681C80.2788 64.6451 79.1035 64.6434 77.9083 64.6335C77.659 64.6318 77.4595 64.5672 77.3465 64.4512C77.2633 64.3667 77.2218 64.2491 77.2235 64.1016C77.2301 63.6609 77.6806 63.5747 77.9499 63.5631C78.048 63.5582 78.146 63.5565 78.2425 63.5565C78.3272 63.5565 78.4137 63.5565 78.4968 63.5582C78.5832 63.5582 78.6697 63.5598 78.7528 63.5598H79.1651L79.2199 63.1539C79.456 61.4258 78.5683 60.0871 76.9043 59.6629C76.5369 59.5685 76.2277 59.484 76.1463 59.3928C76.0665 59.3034 76.0183 59.0118 75.9584 58.6108C75.7789 57.4129 75.0807 56.5629 73.9404 56.1537C73.5963 56.0294 73.2505 55.9681 72.9147 55.9681C72.2248 55.9681 71.5649 56.22 70.895 56.7369L70.1935 57.2787L71.0379 57.5537C71.9688 57.8569 72.288 58.4203 72.1085 59.4392C71.9655 60.2511 71.7993 61.0414 71.6231 61.8781C71.5466 62.241 71.4701 62.6055 71.3953 62.9733L71.2989 63.4472L71.7943 63.5333C71.8275 63.5383 71.9273 63.5549 72.0254 63.5764C72.5058 63.6791 72.559 63.9094 72.5457 64.1414C72.5324 64.3783 72.4542 64.602 71.9788 64.6318C71.7577 64.6451 71.5317 64.6467 71.279 64.6467C63.8949 64.6467 39.0897 64.6467 39.0897 64.6467L39.4155 68.6547L39.9043 68.5933C40.1536 68.5619 40.3331 68.547 40.4711 68.547C40.8219 68.547 40.895 68.547 41.1028 69.5278L41.1809 69.9006H41.5633C41.9173 69.9006 42.2714 69.894 42.6222 69.889C42.9646 69.884 43.307 69.8774 43.6462 69.8774C44.1365 69.8774 44.5388 69.889 44.9128 69.9155C46.3291 70.0133 47.393 70.2601 47.9865 71.1383C48.4569 71.8342 49.0404 72.26 49.6073 72.6725C49.7386 72.7686 49.8699 72.8647 50.0012 72.9641C50.5049 73.3485 50.9637 73.7412 51.366 74.1306C52.3966 75.1313 53.1547 76.4021 53.6866 78.0192L53.8395 78.4848L54.3 78.3141C54.5643 78.2164 54.8236 78.1186 55.0813 78.0225C55.6698 77.8021 56.225 77.5934 56.7902 77.3912C56.9381 77.3382 57.0761 77.3117 57.1974 77.3117C57.4252 77.3117 57.5681 77.4045 57.6496 77.6033C57.7094 77.7524 57.7177 77.8767 57.6712 77.9844C57.608 78.1335 57.4285 78.2727 57.1692 78.3754C56.6638 78.5759 56.1435 78.7697 55.6415 78.957C55.3273 79.0746 55.0131 79.1922 54.7006 79.3115C53.9692 79.5899 53.2394 79.8716 52.513 80.1516L51.2264 80.647L51.2845 81.0214L51.3311 81.3213C51.361 81.5218 51.3893 81.7007 51.4208 81.878C51.4508 82.0503 51.484 82.221 51.5189 82.3933C51.5405 82.5043 51.5621 82.6153 51.5838 82.7263C51.6336 82.9947 51.6087 83.2201 51.5123 83.3609C51.4441 83.4586 51.3394 83.5199 51.1914 83.5465C51.1516 83.5531 51.1117 83.5581 51.0751 83.5581C50.7476 83.5581 50.603 83.2267 50.5398 82.95C50.4733 82.6617 50.4185 82.3651 50.3603 82.0503C50.332 81.8995 50.3038 81.7438 50.2722 81.5831L50.1658 81.0314L49.6405 81.2335C49.2316 81.3909 48.826 81.54 48.4253 81.6858C47.418 82.0553 46.4671 82.4032 45.5379 82.8572C44.9195 83.1588 44.3144 83.8232 44.0302 84.5107C43.6412 85.4535 43.7392 86.4774 44.2994 87.3158C44.8746 88.1757 45.8521 88.6926 46.9159 88.6976C48.2242 88.7042 49.6089 88.7076 51.2746 88.7076C52.5629 88.7076 53.8528 88.7059 55.1411 88.7042C56.072 88.7042 57.0029 88.7009 57.9338 88.7009C58.0718 88.7009 58.1981 88.6893 58.3328 88.6761C58.3926 88.6711 58.4525 88.6645 58.5173 88.6595L59.0426 88.6214L58.9462 88.1061C58.8947 87.8311 58.8431 87.561 58.7899 87.2926C58.6702 86.6729 58.5555 86.0864 58.4625 85.4899C58.4209 85.2298 58.4176 84.7825 58.8514 84.7129C58.8963 84.7063 58.9412 84.7013 58.9811 84.7013C59.0908 84.7013 59.3801 84.7013 59.5031 85.2944C59.6444 85.982 59.7724 86.658 59.9087 87.3721C59.9652 87.672 60.0234 87.9736 60.0816 88.2768L60.1547 88.6579H69.0265L68.6425 86.4443C68.5046 85.6457 68.8819 85.5662 69.0249 85.5347C69.0598 85.5281 69.093 85.5231 69.1263 85.5231C69.4438 85.5231 69.6283 85.8992 69.6964 86.2504C69.7314 86.4344 69.7629 86.6199 69.7929 86.8038C69.8527 87.1617 69.9142 87.5312 70.0056 87.8957C70.0705 88.1575 70.3747 88.6545 70.8135 88.6711C71.4053 88.691 71.9938 88.6943 72.4393 88.6943C72.6803 88.6943 72.9247 88.6943 73.1707 88.6943C73.4217 88.6943 73.6744 88.6926 73.9304 88.6926H74.4956L74.3925 88.1376C74.3343 87.8178 74.2728 87.5063 74.2146 87.1982C74.08 86.5006 73.9537 85.8412 73.8539 85.1751C73.8157 84.915 73.8439 84.7029 73.9354 84.5803C74.0002 84.4925 74.1049 84.4395 74.2529 84.4196C74.2944 84.413 74.3327 84.4113 74.3709 84.4113L74.3676 84.4064ZM32.9624 73.1828C32.8211 73.1828 32.6914 73.2127 32.5767 73.269C29.5081 74.8082 27.7128 77.9943 28.1101 81.197C28.5905 85.0608 31.5744 88.063 35.3661 88.4988C36.7192 88.6529 38.0508 88.6744 39.1745 88.6744C39.6483 88.6744 40.122 88.6694 40.5958 88.6661C41.0662 88.6612 41.5383 88.6579 42.0088 88.6579C42.3013 88.6579 42.5939 88.6579 42.8848 88.6645C43.1026 88.6645 43.2272 88.5336 43.2671 88.4922C43.2721 88.4872 43.2788 88.4789 43.2888 88.4706L43.5298 88.2469L43.4018 87.9437C43.3902 87.9139 43.3769 87.8841 43.3652 87.8526C43.332 87.7698 43.2954 87.677 43.2472 87.5809C42.667 86.4228 42.5756 85.1851 42.9895 84.0949C43.4051 83.003 44.2978 82.1348 45.5063 81.6494C45.9518 81.4704 46.4139 81.2998 46.8611 81.1357C47.1287 81.038 47.3964 80.9386 47.6623 80.8375C48.7445 80.4266 49.825 80.0157 50.9205 79.5982L52.7773 78.8907L52.6676 78.4815C52.1406 76.5148 51.0369 74.9722 49.2931 73.7627C48.7561 73.3916 48.4021 73.1464 47.9765 73.1464C47.551 73.1464 47.1919 73.3966 46.6533 73.776L46.369 73.9765L46.4771 74.3062C46.645 74.8165 46.7763 75.519 46.4472 75.9697C46.1396 76.3938 45.498 76.4816 45.0142 76.4816C44.9527 76.4816 44.8912 76.4816 44.8264 76.4783C43.7043 76.4303 42.559 76.0442 41.3256 75.2986C41.1111 75.1694 40.8219 75.0219 40.4778 75.0219C40.2118 75.0219 39.9541 75.1048 39.6632 75.2854C38.3866 76.074 37.1847 76.4667 35.9862 76.4833H35.9346C35.4642 76.4833 34.8375 76.3905 34.5283 75.9432C34.2623 75.5571 34.2723 74.9358 34.5582 74.1968L34.7444 73.713L34.244 73.5755C34.116 73.5407 33.9664 73.4794 33.8202 73.4198C33.5359 73.3038 33.2417 73.1845 32.9574 73.1845L32.9624 73.1828ZM85.3123 71.8905C83.4755 72.9724 81.74 73.9947 79.9613 75.0253C79.2698 75.4262 79.3878 76.0508 79.4327 76.2845C79.8333 78.392 80.2223 80.4548 80.593 82.5043C80.6595 82.8721 80.8241 83.3095 81.5089 83.4205C82.6094 83.5995 83.7281 83.8033 84.8103 84.0004C85.1611 84.0651 85.5135 84.1297 85.8642 84.1926C86.712 84.3451 87.5598 84.5008 88.4325 84.6599L90.1248 84.968L90.3941 82.8572L89.7158 82.6882C89.5496 82.6468 89.405 82.6103 89.2603 82.5772L86.8317 82.0222C85.5135 81.7206 84.1969 81.4207 82.8803 81.1175C82.1838 80.9585 82.2038 80.6503 82.2121 80.5177C82.2271 80.2825 82.2902 80.0604 82.8803 79.9527C83.4755 79.8434 84.0706 79.7374 84.6657 79.6297C85.3073 79.5137 85.949 79.3977 86.5907 79.2817C87.9504 79.0332 89.3086 78.7813 90.6783 78.5295L93.0039 78.1004L92.58 76.031C92.58 76.031 90.4589 76.417 89.631 76.5661C87.2888 76.9903 84.8652 77.4294 82.4997 77.875C82.3833 77.8966 82.2786 77.9082 82.1872 77.9082C81.9195 77.9082 81.7832 77.8253 81.6868 77.6017C81.6253 77.4625 81.499 77.1709 82.0176 76.8345C82.8454 76.2961 83.6783 75.7377 84.4845 75.1992L85.2758 74.6707C85.9108 74.2465 86.5441 73.8224 87.1874 73.3916L88.5123 72.5052L87.4567 70.6329L85.3173 71.8921L85.3123 71.8905ZM37.2063 70.9163C36.8689 70.9163 36.5181 70.9328 36.1374 70.9643C35.6853 71.0024 35.2564 71.1234 34.8408 71.241C34.6646 71.2907 34.4884 71.3404 34.3122 71.3835L33.9415 71.473L33.9681 72.4455L34.3172 72.53C34.4884 72.5715 34.663 72.6079 34.8358 72.646C35.2281 72.7289 35.5972 72.8067 35.9346 72.9426C36.2338 73.0635 36.4583 73.2806 36.4799 73.3585C36.5031 73.4761 36.312 73.8472 36.2305 74.0063L36.1973 74.0726C36.1624 74.1405 36.0543 74.2383 35.928 74.3493C35.8382 74.4304 35.7352 74.5216 35.6221 74.6342L34.6713 75.582L36.0078 75.4328C37.3759 75.2804 38.5678 74.8181 39.758 73.9748C40.1054 73.7279 40.3498 73.5755 40.4877 73.5755C40.6257 73.5755 40.8767 73.7296 41.2557 73.9963C42.4925 74.8695 43.6678 75.2754 44.9544 75.2754L45.7423 75.2705L45.4149 74.5994C45.2786 74.3211 45.0475 74.1852 44.8779 74.0858C44.8231 74.0543 44.7715 74.0229 44.735 73.9947C44.5804 73.8754 44.3344 73.6484 44.4391 73.4744C44.5588 73.2756 44.8447 73.0635 45.1871 72.9177C45.4847 72.7918 45.8205 72.7189 46.1746 72.641C46.3375 72.6062 46.5004 72.5698 46.66 72.53L47.019 72.4389L47.009 71.5674L46.7082 71.4547C46.6433 71.4299 46.5785 71.4034 46.5153 71.3769C46.3557 71.3106 46.1912 71.2427 46.0067 71.1963C45.2653 71.0057 44.5189 70.9096 43.7858 70.9096C42.8748 70.9096 41.9556 71.0587 41.0529 71.3537C40.8418 71.4233 40.6124 71.4614 40.4113 71.4614C40.2716 71.4614 40.1503 71.4431 40.0605 71.4083C39.1994 71.0786 38.2652 70.9179 37.2046 70.9179L37.2063 70.9163ZM31.335 73.5888L32.2177 72.023C33.3746 69.9702 35.2913 69.9122 37.3227 69.8509C37.5388 69.8443 37.7532 69.8376 37.9677 69.8294L38.4531 69.8095L38.4181 69.3273C38.3866 68.8932 38.355 68.4608 38.3234 68.0284C38.2486 67.0309 38.1721 66.0004 38.1123 64.988C38.0923 64.6467 38.1306 63.8332 38.9351 63.6692C40.1254 63.4273 40.0705 62.4862 40.0489 62.1333L40.0223 61.6909H31.3333V73.5888H31.335ZM62.7762 62.9783C62.8926 62.9783 63.0172 63.023 63.1569 63.1141C63.3796 63.2599 63.614 63.3693 63.885 63.4969C64.013 63.5565 64.1543 63.6228 64.3089 63.7007L65.1782 64.1331L64.9804 63.1854C64.7976 62.3039 65.0137 62.2111 65.2048 62.1283C65.283 62.0952 65.3528 62.0786 65.4193 62.0786C65.5888 62.0786 65.7784 62.1979 66.0161 62.453C66.0427 62.4812 66.0693 62.5061 66.0975 62.5326C66.1075 62.5409 66.1175 62.5491 66.1258 62.5591C66.6162 63.2516 67.2695 63.6095 68.0574 63.6095C68.222 63.6095 68.3932 63.593 68.5661 63.5615C68.5893 63.5565 68.6193 63.5549 68.6592 63.5549C68.6991 63.5549 68.7406 63.5565 68.7822 63.5582C68.837 63.5598 68.8919 63.5631 68.9451 63.5631C69.0082 63.5631 69.0698 63.5598 69.1313 63.5532C69.3573 63.5267 69.6599 63.4438 69.8145 63.1953C70.629 61.8847 71.0313 60.5626 71.0463 59.1526L71.0512 58.6787H54.4496L54.433 59.1311C54.3881 60.4135 54.807 61.5103 55.2425 62.5226C55.6149 63.3908 56.2599 63.5499 56.9015 63.5946C56.983 63.5996 57.0628 63.6029 57.1409 63.6029C58.0186 63.6029 58.7135 63.2533 59.3235 62.5028C59.6344 62.1217 59.8256 62.0769 59.9436 62.0769C60.0201 62.0769 60.1048 62.0985 60.1946 62.1416C60.3808 62.2277 60.5902 62.3255 60.4157 63.1887L60.2345 64.0801L61.069 63.7106C61.2352 63.6377 61.3865 63.5747 61.5278 63.5167C61.8386 63.3892 62.1063 63.2782 62.3656 63.1224C62.5219 63.028 62.6565 62.9816 62.7745 62.9816L62.7762 62.9783ZM48.796 58.4186C48.3256 58.4186 47.8302 58.47 47.3282 58.5727C46.5103 58.7384 46.3807 59.2967 46.3774 59.6149C46.3657 60.4814 46.3591 61.4059 46.4089 62.3205C46.4522 63.1158 46.9326 63.5913 47.6923 63.5913C47.7887 63.5913 47.8917 63.583 47.9965 63.5681C48.1211 63.5499 48.2608 63.5416 48.4353 63.5416C48.565 63.5416 48.6996 63.5466 48.8376 63.5499C48.9972 63.5549 49.1634 63.5598 49.3396 63.5598H50.0561L49.7718 62.9037C49.7502 62.8557 49.7353 62.8176 49.722 62.7861C49.6954 62.7215 49.6721 62.6651 49.6372 62.6038C49.2931 62.0123 49.4743 61.8682 49.6355 61.7406C49.7319 61.6644 49.8267 61.6263 49.9264 61.6263C50.0927 61.6263 50.2888 61.729 50.4949 61.9245C50.5648 61.9908 50.6379 62.0571 50.711 62.1233C50.9255 62.3172 51.1266 62.5011 51.2729 62.7032C51.6951 63.2898 52.2603 63.5747 53.0034 63.5747C53.2511 63.5747 53.5254 63.5449 53.8678 63.4803L54.4313 63.3743L54.2169 62.8441C54.1238 62.6121 54.0457 62.3669 53.9642 62.1068C53.7764 61.512 53.5819 60.8956 53.1663 60.4217C52.001 59.0913 50.5298 58.4169 48.7977 58.4169L48.796 58.4186ZM81.8896 61.0431C81.9262 61.0431 82.0143 61.0431 82.1739 61.2021C82.3634 61.3927 82.4897 61.5169 81.4059 62.7844L80.7443 63.5582H81.7633C81.9893 63.5582 82.2071 63.5582 82.4182 63.5598C82.6194 63.5598 82.8139 63.5615 83.005 63.5615C83.4356 63.5615 83.7647 63.5549 84.0722 63.5416C84.4197 63.5267 84.7638 63.2401 84.8967 62.9716C85.4752 61.7986 85.6514 60.5758 85.4387 59.2321C85.3107 58.4319 84.8934 58.0243 84.0839 57.9066C83.7315 57.8553 83.3824 57.8304 83.0482 57.8304C81.6801 57.8304 80.4434 58.2596 79.3712 59.1045L79.0487 59.3597L80.5764 61.9311L81.0036 61.5633C81.5056 61.1309 81.7616 61.0397 81.8896 61.0397V61.0431ZM42.7901 60.4847C41.8226 61.0745 41.269 61.8632 41.0496 62.97L40.9382 63.53H45.6044L45.4614 62.9484C45.2586 62.1217 44.6701 61.7141 44.198 61.3877C43.8756 61.164 43.5963 60.9702 43.4616 60.6852L43.2389 60.2113L42.7901 60.4847ZM31.3233 60.5294H31.7938C32.5385 60.5294 33.2799 60.5328 34.018 60.5344C34.7527 60.5377 35.4858 60.5394 36.2172 60.5394C37.9893 60.5394 39.3424 60.5228 40.6058 60.4864C41.1843 60.4698 41.6713 60.0241 42.0985 59.6298C42.1634 59.5701 42.2282 59.5105 42.2897 59.4558C42.5873 59.1924 42.5474 58.7616 42.5158 58.4153L42.5075 58.3291C42.3761 56.7187 42.9164 55.4081 44.1598 54.3195C44.4391 54.0743 44.6236 53.6386 44.597 53.2824C44.5072 52.0679 44.853 50.9644 45.6576 49.9123C45.862 49.6439 45.9585 49.3374 46.0582 49.011C46.1014 48.8685 46.148 48.7227 46.2045 48.5736L46.4472 47.9373H45.764C45.508 47.9373 45.2769 47.9373 45.0625 47.9407C44.8779 47.9407 44.7051 47.9423 44.5388 47.9423C44.3194 47.9423 44.1133 47.9407 43.9071 47.934C43.2588 47.9142 43.2489 47.548 43.2472 47.427C43.2356 46.9416 43.7675 46.8886 43.9304 46.8836C44.1365 46.877 44.3427 46.8753 44.5521 46.8753C44.7184 46.8753 44.8879 46.8753 45.0608 46.877C45.2437 46.877 45.4332 46.8803 45.6276 46.8803H46.0981V46.4114C46.0981 46.1728 46.1014 45.9458 46.1031 45.7254C46.1081 45.2566 46.113 44.8125 46.0914 44.3685C46.0033 42.5493 44.7799 41.3066 43.0444 41.2735C41.8209 41.2503 40.5293 41.2403 39.093 41.2403C37.4124 41.2403 35.7152 41.2553 34.2773 41.2702C32.9208 41.2851 31.8669 42.0555 31.5261 43.2816C31.3317 43.9808 31.2934 44.7181 31.2552 45.4289C31.2386 45.737 31.2219 46.0568 31.192 46.3683L31.1438 46.8819H35.3063C36.2189 46.8803 37.1149 46.8819 38.0125 46.8852C38.1771 46.8852 38.7124 46.9267 38.7157 47.4138C38.719 47.8379 38.3417 47.9307 38.0242 47.934C37.311 47.9407 36.5979 47.9423 35.8848 47.9423C35.4642 47.9423 33.2533 47.9407 33.2533 47.9407H31.3184V60.5294H31.3233ZM49.1235 49.3755C48.422 49.3755 47.7421 49.6091 47.1038 50.0714C45.877 50.9578 45.4215 52.2352 45.7839 53.7662C45.9402 54.4223 45.9102 54.4919 45.3301 54.8332C44.4358 55.3584 43.8606 56.1321 43.6196 57.1362C43.3602 58.2181 43.7476 59.4707 44.5039 59.986L45.0625 60.3687L45.227 59.7126C45.2453 59.6414 45.2636 59.5701 45.2835 59.5005C45.3301 59.3332 45.3766 59.1592 45.4082 58.9753C45.5479 58.127 46.0133 57.6763 46.8295 57.5985C46.9575 57.5869 47.0855 57.5736 47.2152 57.5604C47.8153 57.4991 48.437 57.4361 49.0304 57.4361C49.3579 57.4361 49.6505 57.4543 49.9248 57.4924C50.5764 57.5836 51.223 57.8321 51.9079 58.0955C52.2204 58.2148 52.5429 58.3391 52.8737 58.4517L53.2394 58.576L53.4323 58.2413C53.6999 57.7791 54.1521 57.5819 54.9433 57.5819C54.9782 57.5819 55.0131 57.5819 55.048 57.5819C55.6714 57.5951 56.3447 57.6018 57.1658 57.6018C57.6645 57.6018 58.1649 57.6001 58.6636 57.5968C59.1623 57.5951 59.661 57.5918 60.1614 57.5918H60.5055L60.6102 57.2638C60.6501 57.1395 60.685 57.0219 60.7182 56.9125C60.7847 56.6922 60.8429 56.5033 60.9127 56.3277C61.0307 56.0294 61.1488 55.7776 61.2751 55.5556C61.842 54.5648 61.8669 54.0727 60.8762 53.284C60.3708 52.8814 59.8073 52.6014 59.2903 52.492C58.6387 52.3545 58.4209 52.1275 58.3611 51.5178C58.2131 50.0001 57.3321 48.9447 55.8775 48.5438C55.5218 48.446 55.1711 48.3963 54.8353 48.3963C53.8163 48.3963 52.9253 48.837 52.1872 49.7036C51.8331 50.1194 51.6951 50.1758 51.6054 50.1758C51.4458 50.1758 51.1665 50.0233 50.9687 49.9107C50.3536 49.5544 49.7319 49.3738 49.1185 49.3738L49.1235 49.3755ZM77.4495 52.8565C76.1845 52.8565 75.0741 53.4779 74.4042 54.5615L74.1349 54.9972L74.5937 55.2275C75.8421 55.8538 76.615 56.7783 76.9575 58.0558C77.1254 58.682 77.5543 58.75 77.7305 58.75C77.9416 58.75 78.1544 58.6704 78.4203 58.4899C79.1351 58.0094 79.84 57.5902 80.5149 57.2439C80.9953 56.997 81.1881 56.6557 81.1399 56.1338C81.0036 54.6758 79.81 53.3138 78.3605 52.9642C78.0579 52.8913 77.7521 52.8549 77.4495 52.8549V52.8565ZM65.283 54.2649C63.6639 54.308 62.2043 55.4777 61.8902 56.9838L61.7721 57.5488H69.0432L68.8985 56.9672C68.5046 55.375 67.0583 54.2632 65.3827 54.2632C65.3495 54.2632 65.3162 54.2632 65.283 54.2632V54.2649ZM70.8784 50.9379C70.998 50.9379 71.1028 50.9876 71.2009 51.0903C71.5184 51.4267 71.1726 51.8426 71.0097 52.0066C70.5343 52.4804 70.0422 52.9576 69.5651 53.4182C69.354 53.6237 69.1412 53.8275 68.9301 54.0346L68.6425 54.3146L69.7846 55.9168L70.1303 55.7759C70.3464 55.6881 70.5559 55.592 70.757 55.5009C71.1959 55.3004 71.6081 55.1115 72.0237 55.0254C72.5324 54.9193 73.1574 54.6973 73.4865 53.907C73.5131 53.8424 73.5547 53.7794 73.5979 53.738C74.5637 52.8135 74.9793 51.604 74.9045 49.9339C74.8064 47.7153 74.5787 47.4751 72.4759 47.3624L72.4127 47.3591C72.3063 47.3541 72.1982 47.3508 72.0919 47.3508C69.0066 47.3508 66.1424 49.7466 65.7069 52.6925L65.647 53.1018L66.0476 53.2128C66.1474 53.2409 66.2471 53.2625 66.3419 53.284C66.4998 53.3188 66.6378 53.3503 66.7292 53.4C66.9719 53.5325 67.2013 53.5972 67.4274 53.5972C67.9311 53.5972 68.2818 53.2741 68.5012 53.0305C68.9467 52.5368 69.4388 52.0579 69.9142 51.5957L70.25 51.2676C70.4678 51.0555 70.6905 50.9379 70.8784 50.9379ZM62.7845 45.7768C61.6558 46.8985 60.5354 48.0152 59.42 49.1353C59.036 49.5196 59.1706 50.2619 59.2205 50.4806C59.292 50.7938 59.4798 51.3438 59.9303 51.5029C61.0241 51.8889 61.8819 52.5699 62.5518 53.5856L62.7961 53.9567L63.1818 53.733C63.2782 53.6767 63.4062 53.632 63.5425 53.5839C63.9814 53.4298 64.8009 53.1415 64.5848 51.9983L64.5117 51.6156H63.5941C63.491 51.6172 63.3863 51.6156 63.2815 51.6156C62.5385 51.6023 62.5435 51.2361 62.5451 51.0804C62.5485 50.7391 62.7197 50.5734 63.0688 50.5734C63.1186 50.5734 63.1735 50.5767 63.23 50.585C63.4478 50.6148 63.6539 50.6281 63.8467 50.6281C64.9555 50.6281 65.7468 50.1211 66.2022 49.122C66.2521 49.069 66.3153 48.9861 66.3419 48.8668C66.3552 48.8072 66.3751 48.7459 66.3934 48.6862C66.4616 48.4709 66.5447 48.2041 66.4682 47.9208C66.1308 46.6864 65.5057 45.5846 64.6064 44.6435L64.2739 44.2956L62.7862 45.7768H62.7845ZM35.8897 40.1004H41.4253V37.2291H35.8897V40.1004ZM34.5483 36.0428H42.8183V31.1501H34.5483V36.0428Z" fill="#3D5224"/>
<path d="M48.409 54.9119C48.3807 54.9119 48.3525 54.9086 48.3242 54.9037C48.045 54.849 47.8421 54.5806 47.8721 54.3039C47.9951 53.1441 48.5503 52.3869 49.5726 51.9859C49.9084 51.8534 50.2392 51.7871 50.5551 51.7871C51.1685 51.7871 51.7619 52.0423 52.3205 52.5476C52.4152 52.6338 52.4933 52.7829 52.5565 52.9022C52.5615 52.9121 52.5665 52.9221 52.5715 52.9303C52.5548 53.1076 52.4933 53.2584 52.3919 53.3611C52.3005 53.4539 52.1792 53.5036 52.0528 53.5036C51.9597 53.5036 51.865 53.4771 51.7735 53.4257C51.717 53.3943 51.6522 53.3446 51.5857 53.2932C51.4993 53.2269 51.4012 53.1524 51.2881 53.0894C51.0438 52.9519 50.7712 52.8806 50.5002 52.8806C49.8187 52.8806 49.2252 53.3313 49.0224 54.0023C48.9975 54.0852 48.9775 54.1713 48.9576 54.2558C48.9426 54.3204 48.9276 54.3851 48.9094 54.448C48.8229 54.733 48.6318 54.9103 48.4123 54.9103L48.409 54.9119Z" fill="#3D5224"/>
<path d="M53.7066 56.5575C53.6268 56.5575 53.537 56.5244 53.4406 56.4598C53.0549 56.203 53.2926 55.7043 53.4123 55.5021C53.8761 54.7201 54.5693 54.3191 55.4703 54.3125H55.4902C56.3613 54.3125 57.0445 54.7135 57.5199 55.5038C57.5748 55.5966 57.6213 55.7241 57.6779 55.8849C57.6895 55.9147 57.6995 55.9462 57.7111 55.9793C57.6961 56.0008 57.6828 56.0224 57.6695 56.0439C57.5997 56.1516 57.4701 56.3488 57.4052 56.3769C57.3986 56.3786 57.377 56.3869 57.3221 56.3869C57.1708 56.3869 56.9581 56.3272 56.7686 56.2742L56.7519 56.2692C56.7337 56.2444 56.7137 56.2113 56.6971 56.1864C56.6605 56.1284 56.6223 56.0721 56.5857 56.024C56.2732 55.6198 55.8742 55.3961 55.4636 55.3961C55.053 55.3961 54.6258 55.638 54.3216 56.0754C54.1039 56.3869 53.8861 56.5592 53.7066 56.5592V56.5575Z" fill="#3D5224"/>
<path d="M57.64 61.1076C57.3557 61.1076 57.0731 61.0877 56.7988 61.0496C56.4714 61.0032 56.4514 60.7116 56.4697 60.5409C56.4996 60.2427 56.6409 60.1101 56.9534 60.082C57.1064 60.0687 57.2643 60.0621 57.4322 60.0571C57.507 60.0538 57.5818 60.0521 57.6583 60.0488C57.7281 60.0521 57.7996 60.0555 57.8727 60.0571C58.0389 60.0637 58.2118 60.0687 58.3731 60.0902C58.6573 60.1267 58.787 60.2543 58.8153 60.531C58.8369 60.7431 58.8003 61.0032 58.4994 61.0479C58.2201 61.0893 57.9309 61.1092 57.64 61.1092V61.1076Z" fill="#3D5224"/>
<path d="M68.2892 61.1215C68.2127 61.1215 68.1363 61.1182 68.0598 61.1149C67.97 61.1116 67.8803 61.1066 67.7905 61.1066H67.36V61.1182C67.2137 61.1016 67.0774 61.0818 66.9577 61.0437C66.7765 60.9857 66.6152 60.8813 66.6585 60.5118C66.6967 60.1788 66.8613 60.1191 67.0341 60.1026C67.3101 60.0777 67.5943 60.0645 67.8786 60.0645C68.0781 60.0645 68.2809 60.0711 68.4804 60.0827C68.7962 60.1026 69.0239 60.3047 69.009 60.5532C68.9907 60.8796 68.8344 61.0503 68.5036 61.1066C68.4438 61.1166 68.3756 61.1215 68.2892 61.1215Z" fill="#3D5224"/>
<path d="M62.858 48.9538C62.6452 48.9538 62.469 48.7998 62.3876 48.649C62.3443 48.5661 62.2862 48.4071 62.3859 48.2596C62.7001 47.7974 63.1323 47.3616 63.6027 47.0319C63.6709 46.9838 63.744 46.959 63.8205 46.959C64.0515 46.959 64.3092 47.1777 64.3109 47.4908C64.2942 47.8636 63.2486 48.9306 62.8763 48.9538H62.858Z" fill="#3D5224"/>
</g>
</g>
<defs>
<clipPath id="clip0_2717_622">
<rect width="120" height="120" fill="white"/>
</clipPath>
<clipPath id="clip1_2717_622">
<rect width="67" height="59.7892" fill="white" transform="translate(27 30)"/>
</clipPath>
</defs>
</svg>
