<svg width="156" height="156" viewBox="0 0 156 156" fill="none" xmlns="http://www.w3.org/2000/svg">
<g clip-path="url(#clip0_2717_1402)">
<path d="M156 0H0V156H156V0Z" fill="white"/>
<path d="M18.3259 13.1367H13.1368V18.3258H18.3259V13.1367Z" fill="black"/>
<path d="M23.5149 13.1367H18.3259V18.3258H23.5149V13.1367Z" fill="black"/>
<path d="M28.704 13.1367H23.5149V18.3258H28.704V13.1367Z" fill="black"/>
<path d="M33.8931 13.1367H28.704V18.3258H33.8931V13.1367Z" fill="black"/>
<path d="M39.0821 13.1367H33.8931V18.3258H39.0821V13.1367Z" fill="black"/>
<path d="M44.2712 13.1367H39.0821V18.3258H44.2712V13.1367Z" fill="black"/>
<path d="M49.4602 13.1367H44.2712V18.3258H49.4602V13.1367Z" fill="black"/>
<path d="M59.8383 13.1367H54.6493V18.3258H59.8383V13.1367Z" fill="black"/>
<path d="M65.0274 13.1367H59.8383V18.3258H65.0274V13.1367Z" fill="black"/>
<path d="M80.5945 13.1367H75.4055V18.3258H80.5945V13.1367Z" fill="black"/>
<path d="M90.9726 13.1367H85.7836V18.3258H90.9726V13.1367Z" fill="black"/>
<path d="M101.351 13.1367H96.1617V18.3258H101.351V13.1367Z" fill="black"/>
<path d="M111.729 13.1367H106.54V18.3258H111.729V13.1367Z" fill="black"/>
<path d="M116.918 13.1367H111.729V18.3258H116.918V13.1367Z" fill="black"/>
<path d="M122.107 13.1367H116.918V18.3258H122.107V13.1367Z" fill="black"/>
<path d="M127.296 13.1367H122.107V18.3258H127.296V13.1367Z" fill="black"/>
<path d="M132.485 13.1367H127.296V18.3258H132.485V13.1367Z" fill="black"/>
<path d="M137.674 13.1367H132.485V18.3258H137.674V13.1367Z" fill="black"/>
<path d="M142.863 13.1367H137.674V18.3258H142.863V13.1367Z" fill="black"/>
<path d="M18.3259 18.3258H13.1368V23.5148H18.3259V18.3258Z" fill="black"/>
<path d="M49.4602 18.3258H44.2712L44.2712 23.5148H49.4602V18.3258Z" fill="black"/>
<path d="M75.4055 18.3258H70.2164V23.5148H75.4055V18.3258Z" fill="black"/>
<path d="M80.5945 18.3258H75.4055V23.5148H80.5945V18.3258Z" fill="black"/>
<path d="M85.7836 18.3258H80.5945V23.5148H85.7836V18.3258Z" fill="black"/>
<path d="M90.9726 18.3258H85.7836V23.5148H90.9726V18.3258Z" fill="black"/>
<path d="M101.351 18.3258H96.1617V23.5148H101.351V18.3258Z" fill="black"/>
<path d="M111.729 18.3258H106.54V23.5148H111.729V18.3258Z" fill="black"/>
<path d="M142.863 18.3258H137.674V23.5148H142.863V18.3258Z" fill="black"/>
<path d="M18.3259 23.5148H13.1368V28.7039H18.3259V23.5148Z" fill="black"/>
<path d="M28.704 23.5148H23.5149V28.7039H28.704V23.5148Z" fill="black"/>
<path d="M33.8931 23.5148H28.704V28.7039H33.8931V23.5148Z" fill="black"/>
<path d="M39.0821 23.5148H33.8931V28.7039H39.0821V23.5148Z" fill="black"/>
<path d="M49.4602 23.5148H44.2712V28.7039H49.4602V23.5148Z" fill="black"/>
<path d="M59.8383 23.5148H54.6493V28.7039H59.8383V23.5148Z" fill="black"/>
<path d="M70.2164 23.5148H65.0274V28.7039H70.2164V23.5148Z" fill="black"/>
<path d="M75.4055 23.5148H70.2164V28.7039H75.4055V23.5148Z" fill="black"/>
<path d="M85.7836 23.5148H80.5945V28.7039H85.7836V23.5148Z" fill="black"/>
<path d="M96.1617 23.5148H90.9726L90.9726 28.7039H96.1617V23.5148Z" fill="black"/>
<path d="M111.729 23.5148H106.54V28.7039H111.729V23.5148Z" fill="black"/>
<path d="M122.107 23.5148H116.918V28.7039H122.107V23.5148Z" fill="black"/>
<path d="M127.296 23.5148H122.107V28.7039H127.296V23.5148Z" fill="black"/>
<path d="M132.485 23.5148H127.296V28.7039H132.485V23.5148Z" fill="black"/>
<path d="M142.863 23.5148H137.674V28.7039H142.863V23.5148Z" fill="black"/>
<path d="M18.3259 28.7039H13.1368V33.8929H18.3259V28.7039Z" fill="black"/>
<path d="M28.704 28.7039H23.5149V33.8929H28.704V28.7039Z" fill="black"/>
<path d="M33.8931 28.7039H28.704V33.8929H33.8931V28.7039Z" fill="black"/>
<path d="M39.0821 28.7039H33.8931V33.8929H39.0821V28.7039Z" fill="black"/>
<path d="M49.4602 28.7039H44.2712V33.8929H49.4602V28.7039Z" fill="black"/>
<path d="M65.0274 28.7039H59.8383V33.8929H65.0274V28.7039Z" fill="black"/>
<path d="M70.2164 28.7039H65.0274V33.8929H70.2164V28.7039Z" fill="black"/>
<path d="M75.4055 28.7039H70.2164V33.8929H75.4055V28.7039Z" fill="black"/>
<path d="M85.7836 28.7039H80.5945V33.8929H85.7836V28.7039Z" fill="black"/>
<path d="M96.1617 28.7039H90.9726V33.8929H96.1617V28.7039Z" fill="black"/>
<path d="M111.729 28.7039H106.54V33.8929H111.729V28.7039Z" fill="black"/>
<path d="M122.107 28.7039H116.918V33.8929H122.107V28.7039Z" fill="black"/>
<path d="M127.296 28.7039H122.107V33.8929H127.296V28.7039Z" fill="black"/>
<path d="M132.485 28.7039H127.296V33.8929H132.485V28.7039Z" fill="black"/>
<path d="M142.863 28.7039H137.674V33.8929H142.863V28.7039Z" fill="black"/>
<path d="M18.3259 33.8929H13.1368V39.082H18.3259V33.8929Z" fill="black"/>
<path d="M28.704 33.8929H23.5149V39.082H28.704V33.8929Z" fill="black"/>
<path d="M33.8931 33.8929H28.704V39.082H33.8931V33.8929Z" fill="black"/>
<path d="M39.0821 33.8929H33.8931V39.082H39.0821V33.8929Z" fill="black"/>
<path d="M49.4602 33.8929H44.2712V39.082H49.4602V33.8929Z" fill="black"/>
<path d="M65.0274 33.8929H59.8383V39.082H65.0274V33.8929Z" fill="black"/>
<path d="M80.5945 33.8929H75.4055V39.082H80.5945V33.8929Z" fill="black"/>
<path d="M90.9726 33.8929H85.7836V39.082H90.9726L90.9726 33.8929Z" fill="black"/>
<path d="M101.351 33.8929H96.1617V39.082H101.351V33.8929Z" fill="black"/>
<path d="M111.729 33.8929H106.54V39.082H111.729V33.8929Z" fill="black"/>
<path d="M122.107 33.8929H116.918V39.082H122.107V33.8929Z" fill="black"/>
<path d="M127.296 33.8929H122.107V39.082H127.296V33.8929Z" fill="black"/>
<path d="M132.485 33.8929H127.296V39.082H132.485V33.8929Z" fill="black"/>
<path d="M142.863 33.8929H137.674V39.082H142.863V33.8929Z" fill="black"/>
<path d="M18.3259 39.082H13.1368V44.271H18.3259V39.082Z" fill="black"/>
<path d="M49.4602 39.082H44.2712V44.271H49.4602V39.082Z" fill="black"/>
<path d="M70.2164 39.082H65.0274V44.271H70.2164V39.082Z" fill="black"/>
<path d="M80.5945 39.082H75.4055V44.271H80.5945V39.082Z" fill="black"/>
<path d="M85.7836 39.082H80.5945V44.271H85.7836V39.082Z" fill="black"/>
<path d="M90.9726 39.082H85.7836V44.271H90.9726V39.082Z" fill="black"/>
<path d="M111.729 39.082H106.54V44.271H111.729V39.082Z" fill="black"/>
<path d="M142.863 39.082H137.674V44.271H142.863V39.082Z" fill="black"/>
<path d="M18.3259 44.271H13.1368V49.4601H18.3259V44.271Z" fill="black"/>
<path d="M23.5149 44.271L18.3259 44.271V49.4601H23.5149V44.271Z" fill="black"/>
<path d="M28.704 44.271H23.5149V49.4601H28.704V44.271Z" fill="black"/>
<path d="M33.8931 44.271H28.704V49.4601H33.8931V44.271Z" fill="black"/>
<path d="M39.0821 44.271H33.8931V49.4601H39.0821V44.271Z" fill="black"/>
<path d="M44.2712 44.271L39.0821 44.271V49.4601H44.2712L44.2712 44.271Z" fill="black"/>
<path d="M49.4602 44.271H44.2712L44.2712 49.4601H49.4602V44.271Z" fill="black"/>
<path d="M59.8383 44.271H54.6493V49.4601H59.8383V44.271Z" fill="black"/>
<path d="M70.2164 44.271H65.0274V49.4601H70.2164V44.271Z" fill="black"/>
<path d="M80.5945 44.271H75.4055V49.4601H80.5945V44.271Z" fill="black"/>
<path d="M90.9726 44.271H85.7836V49.4601H90.9726V44.271Z" fill="black"/>
<path d="M101.351 44.271H96.1617V49.4601H101.351V44.271Z" fill="black"/>
<path d="M111.729 44.271H106.54V49.4601H111.729V44.271Z" fill="black"/>
<path d="M116.918 44.271L111.729 44.271V49.4601H116.918V44.271Z" fill="black"/>
<path d="M122.107 44.271H116.918V49.4601H122.107V44.271Z" fill="black"/>
<path d="M127.296 44.271H122.107V49.4601H127.296V44.271Z" fill="black"/>
<path d="M132.485 44.271H127.296V49.4601H132.485V44.271Z" fill="black"/>
<path d="M137.674 44.271L132.485 44.271V49.4601H137.674V44.271Z" fill="black"/>
<path d="M142.863 44.271H137.674V49.4601H142.863V44.271Z" fill="black"/>
<path d="M59.8383 49.4601H54.6493V54.6491H59.8383V49.4601Z" fill="black"/>
<path d="M75.4055 49.4601H70.2164V54.6491H75.4055V49.4601Z" fill="black"/>
<path d="M80.5945 49.4601H75.4055V54.6491H80.5945V49.4601Z" fill="black"/>
<path d="M85.7836 49.4601H80.5945V54.6491H85.7836V49.4601Z" fill="black"/>
<path d="M90.9726 49.4601H85.7836V54.6491H90.9726V49.4601Z" fill="black"/>
<path d="M18.3259 54.6491H13.1368V59.8382H18.3259V54.6491Z" fill="black"/>
<path d="M28.704 54.6491H23.5149V59.8382H28.704V54.6491Z" fill="black"/>
<path d="M44.2712 54.6491H39.0821V59.8382H44.2712V54.6491Z" fill="black"/>
<path d="M49.4602 54.6491H44.2712V59.8382H49.4602V54.6491Z" fill="black"/>
<path d="M65.0274 54.6491H59.8383V59.8382H65.0274V54.6491Z" fill="black"/>
<path d="M85.7836 54.6491H80.5945V59.8382H85.7836V54.6491Z" fill="black"/>
<path d="M106.54 54.6491H101.351V59.8382H106.54V54.6491Z" fill="black"/>
<path d="M111.729 54.6491H106.54V59.8382H111.729V54.6491Z" fill="black"/>
<path d="M132.485 54.6491H127.296V59.8382H132.485V54.6491Z" fill="black"/>
<path d="M142.863 54.6491H137.674V59.8382H142.863V54.6491Z" fill="black"/>
<path d="M23.5149 59.8382H18.3259V65.0272H23.5149V59.8382Z" fill="black"/>
<path d="M33.8931 59.8382H28.704V65.0272H33.8931V59.8382Z" fill="black"/>
<path d="M39.0821 59.8382H33.8931V65.0272H39.0821V59.8382Z" fill="black"/>
<path d="M54.6493 59.8382H49.4602V65.0272H54.6493V59.8382Z" fill="black"/>
<path d="M59.8383 59.8382H54.6493V65.0272H59.8383V59.8382Z" fill="black"/>
<path d="M70.2164 59.8382H65.0274V65.0272H70.2164V59.8382Z" fill="black"/>
<path d="M75.4055 59.8382H70.2164V65.0272H75.4055V59.8382Z" fill="black"/>
<path d="M80.5945 59.8382H75.4055V65.0272H80.5945V59.8382Z" fill="black"/>
<path d="M85.7836 59.8382H80.5945V65.0272H85.7836V59.8382Z" fill="black"/>
<path d="M90.9726 59.8382H85.7836V65.0272H90.9726V59.8382Z" fill="black"/>
<path d="M96.1617 59.8382H90.9726V65.0272H96.1617V59.8382Z" fill="black"/>
<path d="M101.351 59.8382H96.1617V65.0272H101.351V59.8382Z" fill="black"/>
<path d="M111.729 59.8382H106.54V65.0272H111.729V59.8382Z" fill="black"/>
<path d="M116.918 59.8382H111.729V65.0272H116.918V59.8382Z" fill="black"/>
<path d="M127.296 59.8382H122.107V65.0272H127.296V59.8382Z" fill="black"/>
<path d="M132.485 59.8382H127.296V65.0272H132.485V59.8382Z" fill="black"/>
<path d="M142.863 59.8382H137.674V65.0272H142.863V59.8382Z" fill="black"/>
<path d="M18.3259 65.0272H13.1368V70.2163H18.3259V65.0272Z" fill="black"/>
<path d="M23.5149 65.0272H18.3259V70.2163H23.5149V65.0272Z" fill="black"/>
<path d="M33.8931 65.0272H28.704V70.2163H33.8931V65.0272Z" fill="black"/>
<path d="M39.0821 65.0272H33.8931V70.2163H39.0821V65.0272Z" fill="black"/>
<path d="M49.4602 65.0272H44.2712V70.2163H49.4602V65.0272Z" fill="black"/>
<path d="M54.6493 65.0272H49.4602V70.2163H54.6493V65.0272Z" fill="black"/>
<path d="M70.2164 65.0272H65.0274V70.2163H70.2164V65.0272Z" fill="black"/>
<path d="M75.4055 65.0272H70.2164V70.2163H75.4055V65.0272Z" fill="black"/>
<path d="M80.5945 65.0272H75.4055V70.2163H80.5945V65.0272Z" fill="black"/>
<path d="M96.1617 65.0272H90.9726L90.9726 70.2163H96.1617V65.0272Z" fill="black"/>
<path d="M101.351 65.0272H96.1617V70.2163H101.351V65.0272Z" fill="black"/>
<path d="M116.918 65.0272H111.729V70.2163H116.918V65.0272Z" fill="black"/>
<path d="M122.107 65.0272H116.918V70.2163H122.107V65.0272Z" fill="black"/>
<path d="M127.296 65.0272H122.107V70.2163H127.296V65.0272Z" fill="black"/>
<path d="M28.704 70.2163H23.5149V75.4053H28.704V70.2163Z" fill="black"/>
<path d="M33.8931 70.2163H28.704V75.4053H33.8931V70.2163Z" fill="black"/>
<path d="M44.2712 70.2163H39.0821V75.4053H44.2712L44.2712 70.2163Z" fill="black"/>
<path d="M65.0274 70.2163H59.8383V75.4053H65.0274V70.2163Z" fill="black"/>
<path d="M70.2164 70.2163H65.0274V75.4053H70.2164V70.2163Z" fill="black"/>
<path d="M96.1617 70.2163H90.9726V75.4053H96.1617V70.2163Z" fill="black"/>
<path d="M111.729 70.2163H106.54V75.4053H111.729V70.2163Z" fill="black"/>
<path d="M122.107 70.2163H116.918V75.4053H122.107V70.2163Z" fill="black"/>
<path d="M137.674 70.2163H132.485V75.4053H137.674V70.2163Z" fill="black"/>
<path d="M18.3259 75.4053H13.1368V80.5944H18.3259V75.4053Z" fill="black"/>
<path d="M23.5149 75.4053H18.3259V80.5944H23.5149V75.4053Z" fill="black"/>
<path d="M33.8931 75.4053H28.704V80.5944H33.8931V75.4053Z" fill="black"/>
<path d="M39.0821 75.4053H33.8931V80.5944H39.0821V75.4053Z" fill="black"/>
<path d="M49.4602 75.4053H44.2712L44.2712 80.5944H49.4602V75.4053Z" fill="black"/>
<path d="M54.6493 75.4053H49.4602V80.5944H54.6493V75.4053Z" fill="black"/>
<path d="M59.8383 75.4053H54.6493V80.5944H59.8383V75.4053Z" fill="black"/>
<path d="M70.2164 75.4053H65.0274V80.5944H70.2164V75.4053Z" fill="black"/>
<path d="M75.4055 75.4053H70.2164V80.5944H75.4055V75.4053Z" fill="black"/>
<path d="M80.5945 75.4053H75.4055V80.5944H80.5945V75.4053Z" fill="black"/>
<path d="M85.7836 75.4053H80.5945V80.5944H85.7836V75.4053Z" fill="black"/>
<path d="M90.9726 75.4053H85.7836V80.5944H90.9726L90.9726 75.4053Z" fill="black"/>
<path d="M96.1617 75.4053H90.9726L90.9726 80.5944H96.1617V75.4053Z" fill="black"/>
<path d="M122.107 75.4053H116.918V80.5944H122.107V75.4053Z" fill="black"/>
<path d="M127.296 75.4053H122.107V80.5944H127.296V75.4053Z" fill="black"/>
<path d="M132.485 75.4053H127.296V80.5944H132.485V75.4053Z" fill="black"/>
<path d="M137.674 75.4053H132.485V80.5944H137.674V75.4053Z" fill="black"/>
<path d="M18.3259 80.5944H13.1368V85.7835H18.3259V80.5944Z" fill="black"/>
<path d="M23.5149 80.5944H18.3259V85.7835H23.5149V80.5944Z" fill="black"/>
<path d="M28.704 80.5944H23.5149V85.7835H28.704V80.5944Z" fill="black"/>
<path d="M33.8931 80.5944H28.704V85.7835H33.8931V80.5944Z" fill="black"/>
<path d="M39.0821 80.5944H33.8931V85.7835H39.0821V80.5944Z" fill="black"/>
<path d="M59.8383 80.5944H54.6493V85.7835H59.8383V80.5944Z" fill="black"/>
<path d="M65.0274 80.5944H59.8383V85.7835H65.0274V80.5944Z" fill="black"/>
<path d="M75.4055 80.5944H70.2164V85.7835H75.4055V80.5944Z" fill="black"/>
<path d="M80.5945 80.5944H75.4055V85.7835H80.5945V80.5944Z" fill="black"/>
<path d="M90.9726 80.5944H85.7836V85.7835H90.9726V80.5944Z" fill="black"/>
<path d="M101.351 80.5944H96.1617V85.7835H101.351V80.5944Z" fill="black"/>
<path d="M106.54 80.5944H101.351V85.7835H106.54V80.5944Z" fill="black"/>
<path d="M116.918 80.5944H111.729V85.7835H116.918V80.5944Z" fill="black"/>
<path d="M122.107 80.5944H116.918V85.7835H122.107V80.5944Z" fill="black"/>
<path d="M132.485 80.5944H127.296V85.7835H132.485V80.5944Z" fill="black"/>
<path d="M142.863 80.5944H137.674V85.7835H142.863V80.5944Z" fill="black"/>
<path d="M23.5149 85.7835H18.3259V90.9725H23.5149V85.7835Z" fill="black"/>
<path d="M28.704 85.7835H23.5149V90.9725H28.704V85.7835Z" fill="black"/>
<path d="M44.2712 85.7835H39.0821V90.9725H44.2712V85.7835Z" fill="black"/>
<path d="M49.4602 85.7835H44.2712V90.9725H49.4602V85.7835Z" fill="black"/>
<path d="M54.6493 85.7835H49.4602V90.9725H54.6493V85.7835Z" fill="black"/>
<path d="M59.8383 85.7835H54.6493V90.9725H59.8383V85.7835Z" fill="black"/>
<path d="M90.9726 85.7835H85.7836V90.9725H90.9726V85.7835Z" fill="black"/>
<path d="M96.1617 85.7835H90.9726V90.9725H96.1617V85.7835Z" fill="black"/>
<path d="M101.351 85.7835H96.1617V90.9725H101.351V85.7835Z" fill="black"/>
<path d="M106.54 85.7835H101.351V90.9725H106.54V85.7835Z" fill="black"/>
<path d="M132.485 85.7835H127.296V90.9725H132.485V85.7835Z" fill="black"/>
<path d="M137.674 85.7835H132.485V90.9725H137.674V85.7835Z" fill="black"/>
<path d="M142.863 85.7835H137.674V90.9725H142.863V85.7835Z" fill="black"/>
<path d="M28.704 90.9725H23.5149V96.1616H28.704V90.9725Z" fill="black"/>
<path d="M65.0274 90.9725L59.8383 90.9725V96.1616H65.0274V90.9725Z" fill="black"/>
<path d="M70.2164 90.9725H65.0274V96.1616H70.2164V90.9725Z" fill="black"/>
<path d="M80.5945 90.9725H75.4055V96.1616H80.5945V90.9725Z" fill="black"/>
<path d="M85.7836 90.9725L80.5945 90.9725V96.1616H85.7836V90.9725Z" fill="black"/>
<path d="M90.9726 90.9725H85.7836V96.1616H90.9726V90.9725Z" fill="black"/>
<path d="M101.351 90.9725H96.1617V96.1616H101.351V90.9725Z" fill="black"/>
<path d="M106.54 90.9725H101.351V96.1616H106.54V90.9725Z" fill="black"/>
<path d="M122.107 90.9725H116.918V96.1616H122.107V90.9725Z" fill="black"/>
<path d="M142.863 90.9725H137.674V96.1616H142.863V90.9725Z" fill="black"/>
<path d="M18.3259 96.1616H13.1368V101.351H18.3259V96.1616Z" fill="black"/>
<path d="M33.8931 96.1616H28.704V101.351H33.8931V96.1616Z" fill="black"/>
<path d="M39.0821 96.1616H33.8931V101.351H39.0821V96.1616Z" fill="black"/>
<path d="M49.4602 96.1616H44.2712V101.351H49.4602V96.1616Z" fill="black"/>
<path d="M70.2164 96.1616H65.0274V101.351H70.2164V96.1616Z" fill="black"/>
<path d="M75.4055 96.1616H70.2164V101.351H75.4055V96.1616Z" fill="black"/>
<path d="M90.9726 96.1616H85.7836V101.351H90.9726V96.1616Z" fill="black"/>
<path d="M96.1617 96.1616H90.9726V101.351H96.1617V96.1616Z" fill="black"/>
<path d="M101.351 96.1616H96.1617V101.351H101.351V96.1616Z" fill="black"/>
<path d="M106.54 96.1616H101.351V101.351H106.54V96.1616Z" fill="black"/>
<path d="M111.729 96.1616H106.54V101.351H111.729V96.1616Z" fill="black"/>
<path d="M116.918 96.1616H111.729V101.351H116.918V96.1616Z" fill="black"/>
<path d="M122.107 96.1616H116.918V101.351H122.107V96.1616Z" fill="black"/>
<path d="M127.296 96.1616H122.107V101.351H127.296V96.1616Z" fill="black"/>
<path d="M137.674 96.1616H132.485V101.351H137.674V96.1616Z" fill="black"/>
<path d="M142.863 96.1616H137.674V101.351H142.863V96.1616Z" fill="black"/>
<path d="M70.2164 101.351H65.0274V106.54H70.2164V101.351Z" fill="black"/>
<path d="M80.5945 101.351H75.4055V106.54H80.5945V101.351Z" fill="black"/>
<path d="M85.7836 101.351H80.5945V106.54H85.7836V101.351Z" fill="black"/>
<path d="M101.351 101.351H96.1617V106.54H101.351V101.351Z" fill="black"/>
<path d="M122.107 101.351H116.918V106.54H122.107V101.351Z" fill="black"/>
<path d="M137.674 101.351H132.485V106.54H137.674V101.351Z" fill="black"/>
<path d="M142.863 101.351H137.674V106.54H142.863V101.351Z" fill="black"/>
<path d="M18.3259 106.54H13.1368V111.729H18.3259V106.54Z" fill="black"/>
<path d="M23.5149 106.54H18.3259V111.729H23.5149V106.54Z" fill="black"/>
<path d="M28.704 106.54H23.5149V111.729H28.704V106.54Z" fill="black"/>
<path d="M33.8931 106.54H28.704V111.729H33.8931V106.54Z" fill="black"/>
<path d="M39.0821 106.54H33.8931V111.729H39.0821V106.54Z" fill="black"/>
<path d="M44.2712 106.54H39.0821V111.729H44.2712V106.54Z" fill="black"/>
<path d="M49.4602 106.54H44.2712V111.729H49.4602V106.54Z" fill="black"/>
<path d="M65.0274 106.54H59.8383V111.729H65.0274V106.54Z" fill="black"/>
<path d="M70.2164 106.54H65.0274V111.729H70.2164V106.54Z" fill="black"/>
<path d="M80.5945 106.54H75.4055V111.729H80.5945V106.54Z" fill="black"/>
<path d="M85.7836 106.54H80.5945V111.729H85.7836V106.54Z" fill="black"/>
<path d="M90.9726 106.54H85.7836V111.729H90.9726V106.54Z" fill="black"/>
<path d="M101.351 106.54H96.1617V111.729H101.351V106.54Z" fill="black"/>
<path d="M111.729 106.54H106.54V111.729H111.729V106.54Z" fill="black"/>
<path d="M122.107 106.54H116.918V111.729H122.107V106.54Z" fill="black"/>
<path d="M142.863 106.54H137.674V111.729H142.863V106.54Z" fill="black"/>
<path d="M18.3259 111.729H13.1368V116.918H18.3259V111.729Z" fill="black"/>
<path d="M49.4602 111.729H44.2712L44.2712 116.918H49.4602V111.729Z" fill="black"/>
<path d="M59.8383 111.729H54.6493V116.918H59.8383V111.729Z" fill="black"/>
<path d="M70.2164 111.729H65.0274V116.918H70.2164V111.729Z" fill="black"/>
<path d="M90.9726 111.729H85.7836V116.918H90.9726V111.729Z" fill="black"/>
<path d="M96.1617 111.729H90.9726V116.918H96.1617V111.729Z" fill="black"/>
<path d="M101.351 111.729H96.1617V116.918H101.351V111.729Z" fill="black"/>
<path d="M122.107 111.729H116.918V116.918H122.107V111.729Z" fill="black"/>
<path d="M127.296 111.729H122.107V116.918H127.296V111.729Z" fill="black"/>
<path d="M132.485 111.729H127.296V116.918H132.485V111.729Z" fill="black"/>
<path d="M137.674 111.729H132.485V116.918H137.674V111.729Z" fill="black"/>
<path d="M18.3259 116.918H13.1368V122.107H18.3259V116.918Z" fill="black"/>
<path d="M28.704 116.918H23.5149V122.107H28.704V116.918Z" fill="black"/>
<path d="M33.8931 116.918H28.704V122.107H33.8931V116.918Z" fill="black"/>
<path d="M39.0821 116.918H33.8931V122.107H39.0821V116.918Z" fill="black"/>
<path d="M49.4602 116.918H44.2712V122.107H49.4602V116.918Z" fill="black"/>
<path d="M70.2164 116.918H65.0274V122.107H70.2164V116.918Z" fill="black"/>
<path d="M101.351 116.918H96.1617V122.107H101.351V116.918Z" fill="black"/>
<path d="M106.54 116.918H101.351V122.107H106.54V116.918Z" fill="black"/>
<path d="M111.729 116.918H106.54V122.107H111.729V116.918Z" fill="black"/>
<path d="M116.918 116.918H111.729V122.107H116.918V116.918Z" fill="black"/>
<path d="M122.107 116.918H116.918V122.107H122.107V116.918Z" fill="black"/>
<path d="M127.296 116.918H122.107V122.107H127.296V116.918Z" fill="black"/>
<path d="M132.485 116.918H127.296V122.107H132.485V116.918Z" fill="black"/>
<path d="M142.863 116.918H137.674V122.107H142.863V116.918Z" fill="black"/>
<path d="M18.3259 122.107H13.1368V127.296H18.3259V122.107Z" fill="black"/>
<path d="M28.704 122.107H23.5149V127.296H28.704V122.107Z" fill="black"/>
<path d="M33.8931 122.107H28.704V127.296H33.8931V122.107Z" fill="black"/>
<path d="M39.0821 122.107H33.8931V127.296H39.0821V122.107Z" fill="black"/>
<path d="M49.4602 122.107H44.2712V127.296H49.4602V122.107Z" fill="black"/>
<path d="M65.0274 122.107H59.8383V127.296H65.0274V122.107Z" fill="black"/>
<path d="M70.2164 122.107H65.0274V127.296H70.2164V122.107Z" fill="black"/>
<path d="M90.9726 122.107H85.7836V127.296H90.9726V122.107Z" fill="black"/>
<path d="M106.54 122.107H101.351V127.296H106.54V122.107Z" fill="black"/>
<path d="M111.729 122.107H106.54V127.296H111.729V122.107Z" fill="black"/>
<path d="M18.3259 127.296H13.1368V132.485H18.3259V127.296Z" fill="black"/>
<path d="M28.704 127.296H23.5149V132.485H28.704V127.296Z" fill="black"/>
<path d="M33.8931 127.296H28.704V132.485H33.8931V127.296Z" fill="black"/>
<path d="M39.0821 127.296H33.8931V132.485H39.0821V127.296Z" fill="black"/>
<path d="M49.4602 127.296H44.2712V132.485H49.4602V127.296Z" fill="black"/>
<path d="M59.8383 127.296H54.6493V132.485H59.8383V127.296Z" fill="black"/>
<path d="M65.0274 127.296H59.8383V132.485H65.0274V127.296Z" fill="black"/>
<path d="M85.7836 127.296H80.5945V132.485H85.7836V127.296Z" fill="black"/>
<path d="M90.9726 127.296H85.7836V132.485H90.9726V127.296Z" fill="black"/>
<path d="M127.296 127.296H122.107V132.485H127.296V127.296Z" fill="black"/>
<path d="M132.485 127.296H127.296V132.485H132.485V127.296Z" fill="black"/>
<path d="M18.3259 132.485H13.1368V137.674H18.3259V132.485Z" fill="black"/>
<path d="M49.4602 132.485H44.2712V137.674H49.4602V132.485Z" fill="black"/>
<path d="M70.2164 132.485H65.0274V137.674H70.2164V132.485Z" fill="black"/>
<path d="M75.4055 132.485H70.2164V137.674H75.4055V132.485Z" fill="black"/>
<path d="M80.5945 132.485H75.4055V137.674H80.5945V132.485Z" fill="black"/>
<path d="M85.7836 132.485H80.5945V137.674H85.7836V132.485Z" fill="black"/>
<path d="M90.9726 132.485H85.7836V137.674H90.9726V132.485Z" fill="black"/>
<path d="M106.54 132.485H101.351V137.674H106.54V132.485Z" fill="black"/>
<path d="M111.729 132.485H106.54V137.674H111.729V132.485Z" fill="black"/>
<path d="M116.918 132.485H111.729V137.674H116.918V132.485Z" fill="black"/>
<path d="M122.107 132.485H116.918V137.674H122.107V132.485Z" fill="black"/>
<path d="M127.296 132.485H122.107V137.674H127.296V132.485Z" fill="black"/>
<path d="M132.485 132.485H127.296V137.674H132.485V132.485Z" fill="black"/>
<path d="M18.3259 137.674H13.1368V142.863H18.3259V137.674Z" fill="black"/>
<path d="M23.5149 137.674H18.3259V142.863H23.5149V137.674Z" fill="black"/>
<path d="M28.704 137.674H23.5149V142.863H28.704V137.674Z" fill="black"/>
<path d="M33.8931 137.674H28.704V142.863H33.8931V137.674Z" fill="black"/>
<path d="M39.0821 137.674H33.8931V142.863H39.0821V137.674Z" fill="black"/>
<path d="M44.2712 137.674H39.0821V142.863H44.2712L44.2712 137.674Z" fill="black"/>
<path d="M49.4602 137.674H44.2712L44.2712 142.863H49.4602V137.674Z" fill="black"/>
<path d="M59.8383 137.674H54.6493V142.863H59.8383V137.674Z" fill="black"/>
<path d="M65.0274 137.674H59.8383V142.863H65.0274V137.674Z" fill="black"/>
<path d="M70.2164 137.674H65.0274V142.863H70.2164V137.674Z" fill="black"/>
<path d="M80.5945 137.674H75.4055V142.863H80.5945V137.674Z" fill="black"/>
<path d="M85.7836 137.674H80.5945V142.863H85.7836V137.674Z" fill="black"/>
<path d="M90.9726 137.674H85.7836V142.863H90.9726V137.674Z" fill="black"/>
<path d="M101.351 137.674H96.1617V142.863H101.351V137.674Z" fill="black"/>
<path d="M106.54 137.674H101.351V142.863H106.54V137.674Z" fill="black"/>
<path d="M111.729 137.674H106.54V142.863H111.729V137.674Z" fill="black"/>
<path d="M116.918 137.674H111.729V142.863H116.918V137.674Z" fill="black"/>
<path d="M122.107 137.674H116.918V142.863H122.107V137.674Z" fill="black"/>
<path d="M132.485 137.674H127.296V142.863H132.485V137.674Z" fill="black"/>
<path d="M142.863 137.674H137.674V142.863H142.863V137.674Z" fill="black"/>
</g>
<defs>
<clipPath id="clip0_2717_1402">
<rect width="156" height="156" fill="white"/>
</clipPath>
</defs>
</svg>
