<svg width="19" height="19" viewBox="0 0 19 19" fill="none" xmlns="http://www.w3.org/2000/svg">
<path d="M8.73443 0.741936C8.50439 0.842116 8.38566 1.10184 8.44131 1.38383C8.45987 1.48772 8.51923 1.57306 8.66394 1.71034C8.92366 1.95523 8.99416 2.09993 8.99416 2.37821C8.99416 2.67875 8.89398 2.86427 8.60828 3.08318C8.09254 3.48019 7.8291 3.99964 7.8291 4.62299C7.8291 5.14244 8.0072 5.57284 8.37082 5.94759C8.77896 6.36686 9.1166 6.40397 9.39859 6.07003C9.61379 5.81773 9.56556 5.55429 9.25017 5.25004C9.009 5.01629 8.94221 4.88271 8.94221 4.62299C8.94221 4.3781 9.009 4.22227 9.18339 4.06643C9.69913 3.59892 9.76592 3.52472 9.9032 3.24644C10.2779 2.50065 10.1518 1.65469 9.58411 1.05361C9.26502 0.719674 9.00529 0.623204 8.73443 0.741936Z" fill="#464646"/>
<path d="M11.5171 0.741936C11.2871 0.842116 11.1684 1.10184 11.224 1.38383C11.2426 1.48772 11.3019 1.57306 11.4467 1.71034C11.7064 1.95523 11.7769 2.09993 11.7769 2.37821C11.7769 2.67875 11.6767 2.86427 11.391 3.08318C10.8753 3.48019 10.6118 3.99964 10.6118 4.62299C10.6118 5.14244 10.7899 5.57284 11.1535 5.94759C11.5617 6.36686 11.8993 6.40397 12.1813 6.07003C12.3965 5.81773 12.3483 5.55429 12.0329 5.25004C11.7917 5.01629 11.7249 4.88271 11.7249 4.62299C11.7249 4.3781 11.7917 4.22227 11.9661 4.06643C12.4818 3.59892 12.5486 3.52472 12.6859 3.24644C13.0607 2.50065 12.9345 1.65469 12.3668 1.05361C12.0477 0.719674 11.788 0.623204 11.5171 0.741936Z" fill="#464646"/>
<path d="M14.2999 0.741936C14.0698 0.842116 13.9511 1.10184 14.0067 1.38383C14.0253 1.48772 14.0847 1.57306 14.2294 1.71034C14.4891 1.95523 14.5596 2.09993 14.5596 2.37821C14.5596 2.67875 14.4594 2.86427 14.1737 3.08318C13.658 3.48019 13.3945 3.99964 13.3945 4.62299C13.3945 5.14244 13.5726 5.57284 13.9362 5.94759C14.3444 6.36686 14.682 6.40397 14.964 6.07003C15.1792 5.81773 15.131 5.55429 14.8156 5.25004C14.5744 5.01629 14.5076 4.88271 14.5076 4.62299C14.5076 4.3781 14.5744 4.22227 14.7488 4.06643C15.2646 3.59892 15.3313 3.52472 15.4686 3.24644C15.8434 2.50065 15.7172 1.65469 15.1495 1.05361C14.8304 0.719674 14.5707 0.623204 14.2999 0.741936Z" fill="#464646"/>
<path d="M0.289409 5.22034C0.129863 5.30197 0 5.52088 0 5.69898C0 5.83997 0.107601 6.05888 0.241174 6.18132C0.519452 6.43734 0.831124 6.98648 0.99067 7.50593L1.09456 7.83244L1.11311 12.0252L1.13166 16.2179L1.22071 16.4776C1.48044 17.2605 1.98876 17.8579 2.68631 18.1992C3.12784 18.4181 3.39128 18.4775 3.91444 18.4775C4.44874 18.4812 4.69733 18.4218 5.19081 18.1807C5.61379 17.9729 6.06646 17.561 6.28537 17.1863C6.36329 17.0527 6.43379 16.9414 6.4375 16.9414C6.44492 16.9414 6.50799 17.1974 6.58591 17.5054C6.66383 17.8171 6.76401 18.1436 6.81225 18.2252C6.97921 18.5183 6.63044 18.4998 11.7508 18.4998C16.2477 18.4998 16.3034 18.4998 16.4592 18.4256C16.5668 18.3699 16.6373 18.3031 16.693 18.1918C16.8154 17.9469 19.0082 9.12365 18.986 8.95669C18.9637 8.77859 18.845 8.61904 18.6854 8.54112C18.5704 8.48547 17.9545 8.48176 11.7433 8.48176C5.53217 8.48176 4.91624 8.48547 4.80122 8.54112C4.64168 8.61904 4.52294 8.77859 4.50068 8.95669C4.48955 9.05686 4.65652 9.78781 5.09805 11.5502C5.4357 12.9045 5.71397 14.0176 5.71397 14.0288C5.71397 14.0399 4.93109 14.0473 3.9701 14.0473H2.22622V11.0679C2.22622 8.6747 2.21509 8.02167 2.17428 7.73968C2.04813 6.91227 1.70677 6.17762 1.13537 5.50233C0.831124 5.14613 0.586239 5.06079 0.289409 5.22034ZM17.5909 10.1403L17.4536 10.6894H11.7433H6.03307L5.89578 10.1403L5.7585 9.59487H11.7433H17.7282L17.5909 10.1403ZM8.18137 11.9027C8.20735 12.0252 8.57096 14.9935 8.57096 15.0825C8.57096 15.1604 8.55983 15.1604 7.85857 15.153L7.14618 15.1419L6.73062 13.4796L6.31506 11.8211H7.23894H8.16282L8.18137 11.9027ZM11.1682 13.4908V15.1604H10.4447C9.72489 15.1604 9.72118 15.1604 9.70263 15.0751C9.67665 14.9564 9.31304 11.9918 9.31304 11.899C9.31304 11.8211 9.32788 11.8211 10.2406 11.8211H11.1682V13.4908ZM14.1365 11.899C14.1365 11.9918 13.7729 14.9564 13.7469 15.0751C13.7284 15.1604 13.7247 15.1604 13.0049 15.1604H12.2813V13.4908V11.8211H13.2089C14.1217 11.8211 14.1365 11.8211 14.1365 11.899ZM16.756 13.4796L16.3405 15.1419L15.6095 15.153C14.8897 15.1604 14.8786 15.1604 14.8786 15.0825C14.8786 14.9935 15.2422 12.0252 15.2682 11.9027L15.2867 11.8211H16.2292H17.1716L16.756 13.4796ZM5.60266 15.5129C5.60266 15.7021 5.58411 15.9507 5.56185 16.0583C5.38004 16.908 4.51923 17.5017 3.67698 17.357C3.32449 17.2976 3.03509 17.1529 2.76423 16.9006C2.37464 16.5333 2.22622 16.1548 2.22622 15.524V15.1604H3.91444H5.60266V15.5129ZM15.9212 16.819L15.7839 17.3681H11.7433H7.70273L7.56545 16.819L7.42817 16.2735H11.7433H16.0585L15.9212 16.819Z" fill="#464646"/>
</svg>
