<svg width="24" height="25" viewBox="0 0 24 25" fill="none" xmlns="http://www.w3.org/2000/svg">
<path d="M3 19.1538V14.375C3.00214 13.6514 3.29053 12.958 3.80218 12.4464C4.31384 11.9347 5.00717 11.6463 5.73076 11.6442H18.0192C18.7427 11.6463 19.4361 11.9347 19.9477 12.4464C20.4594 12.958 20.7478 13.6514 20.7499 14.375V19.1538M17.3365 11.6442H5.04807V7.20672C5.04942 6.75449 5.22967 6.32116 5.54945 6.00138C5.86923 5.6816 6.30255 5.50135 6.75479 5.5H16.9951C17.4474 5.50135 17.8807 5.6816 18.2005 6.00138C18.5202 6.32116 18.7005 6.75449 18.7018 7.20672V11.6442H17.3365Z" stroke="#464646" stroke-width="1.36538" stroke-linecap="round" stroke-linejoin="round"/>
<path d="M3 19.1533V18.812C3.00079 18.5407 3.10893 18.2806 3.3008 18.0888C3.49268 17.8969 3.75269 17.7888 4.02403 17.788H19.7259C19.9972 17.7888 20.2572 17.8969 20.4491 18.0888C20.641 18.2806 20.7491 18.5407 20.7499 18.812V19.1533M5.73076 11.6438V10.9611C5.73177 10.5993 5.87595 10.2526 6.13178 9.99673C6.38762 9.74089 6.73432 9.59672 7.09613 9.5957H10.5096C10.8714 9.59672 11.2181 9.74089 11.4739 9.99673C11.7298 10.2526 11.8739 10.5993 11.875 10.9611M11.875 10.9611V11.6438M11.875 10.9611C11.876 10.5993 12.0201 10.2526 12.276 9.99673C12.5318 9.74089 12.8785 9.59672 13.2403 9.5957H16.6538C17.0156 9.59672 17.3623 9.74089 17.6181 9.99673C17.874 10.2526 18.0181 10.5993 18.0192 10.9611V11.6438" stroke="#464646" stroke-width="1.36538" stroke-linecap="round" stroke-linejoin="round"/>
</svg>
